{"glyphs":{"0":{"ha":726,"x_min":46,"x_max":647,"o":"m 124 629 q 164 683 124 629 q 347 736 203 736 q 569 630 492 736 q 647 363 647 524 q 569 95 647 201 q 347 -11 492 -11 q 125 97 204 -11 q 46 363 46 204 q 124 629 46 522 m 520 585 q 491 630 520 585 q 347 675 461 675 q 174 585 233 675 q 115 363 115 496 q 174 140 115 229 q 347 50 233 50 q 519 140 460 50 q 579 363 579 231 q 520 585 579 496 z "},"1":{"ha":403,"x_min":57,"x_max":308,"o":"m 308 0 l 242 0 l 242 636 q 71 565 158 565 l 57 624 q 174 661 115 624 q 236 700 196 672 l 300 743 l 308 743 l 308 0 z "},"2":{"ha":597,"x_min":49,"x_max":533,"o":"m 435 542 q 393 646 435 606 q 286 686 351 686 q 183 660 226 686 q 121 590 140 635 q 112 569 118 583 q 103 547 106 554 l 50 575 l 76 628 q 154 709 100 679 q 283 739 208 739 q 441 689 385 739 q 497 542 497 639 q 475 440 497 481 q 408 356 453 400 q 325 286 369 317 q 238 219 272 247 q 185 173 203 189 q 148 126 168 157 q 119 64 128 96 l 533 64 l 533 0 l 49 0 l 49 14 q 76 131 49 81 q 242 303 124 213 q 314 357 297 343 q 356 395 331 371 q 406 453 382 419 q 435 542 435 494 z "},"3":{"ha":621,"x_min":38,"x_max":544,"o":"m 432 569 q 390 652 432 622 q 286 682 347 682 q 131 626 214 682 l 99 681 q 158 715 138 704 q 215 737 178 726 q 292 747 251 747 q 442 700 379 747 q 504 575 504 653 q 470 475 504 518 q 389 414 436 432 q 497 340 447 401 q 544 194 544 281 q 469 41 544 96 q 281 -14 393 -14 q 38 64 169 -14 l 65 119 q 206 60 158 68 q 269 53 236 53 q 415 90 357 53 q 474 200 474 128 q 442 301 474 260 q 360 361 411 342 q 292 374 329 374 l 169 374 l 169 436 l 292 436 q 369 459 335 436 q 419 515 403 482 q 432 569 432 542 z "},"4":{"ha":596,"x_min":22,"x_max":538,"o":"m 101 203 l 375 203 l 375 450 l 444 450 l 444 203 l 538 203 l 538 140 l 444 140 l 444 -3 l 375 -3 l 375 140 l 22 140 l 22 196 l 249 733 l 324 733 l 101 203 z "},"5":{"ha":578,"x_min":47,"x_max":510,"o":"m 224 426 q 147 421 183 426 q 92 410 108 415 l 75 404 l 69 408 l 69 718 l 311 721 l 442 725 l 442 663 l 313 658 l 138 658 l 138 481 q 224 489 193 489 q 432 429 354 489 q 510 251 510 369 q 444 70 510 147 q 253 -7 379 -7 q 86 44 167 -7 q 47 74 58 63 l 61 132 q 153 76 101 101 q 246 56 197 56 q 332 68 301 56 q 394 114 363 81 q 444 261 444 167 q 224 426 444 426 z "},"6":{"ha":633,"x_min":39,"x_max":564,"o":"m 110 368 q 308 465 189 465 q 491 392 418 465 q 564 210 564 319 q 490 31 564 103 q 308 -42 417 -42 q 111 47 183 -42 q 39 269 39 135 q 75 442 39 358 q 164 582 111 525 q 478 721 290 721 l 478 663 q 258 592 353 663 q 110 368 164 522 m 308 407 q 167 349 224 407 q 110 206 110 292 q 167 71 110 124 q 308 18 225 18 q 449 73 393 18 q 504 213 504 128 q 448 351 504 296 q 308 407 392 407 z "},"7":{"ha":540,"x_min":22,"x_max":486,"o":"m 486 717 l 203 0 l 132 0 l 397 663 l 275 658 l 22 658 l 22 722 l 247 722 l 486 725 l 486 717 z "},"8":{"ha":617,"x_min":44,"x_max":542,"o":"m 175 414 q 85 556 85 461 q 144 690 85 640 q 290 740 204 740 q 443 685 386 740 q 500 558 500 629 q 397 401 500 468 q 542 200 542 336 q 478 45 542 108 q 293 -18 414 -18 q 113 40 181 -18 q 44 203 44 97 q 79 321 44 274 q 175 414 114 368 m 392 645 q 372 662 392 645 q 292 679 353 679 q 192 646 231 679 q 153 556 153 613 q 163 508 153 528 q 197 476 174 489 q 238 456 219 463 q 290 440 257 449 q 336 425 322 431 q 349 435 338 426 q 365 447 361 444 q 378 458 368 449 q 392 471 389 467 q 404 484 396 475 q 415 499 413 493 q 423 515 418 506 q 429 535 428 525 q 431 554 431 544 q 392 645 431 611 m 292 42 q 424 84 376 42 q 472 204 472 126 q 455 276 472 246 q 402 327 438 307 q 337 358 367 347 q 261 381 307 369 l 236 386 q 142 292 164 326 q 114 203 114 249 q 163 84 114 126 q 292 42 211 42 z "},"9":{"ha":633,"x_min":38,"x_max":561,"o":"m 125 -42 l 125 18 q 433 190 315 18 q 496 319 471 244 q 290 214 403 214 q 110 288 183 214 q 38 468 38 361 q 110 649 38 576 q 292 721 183 721 q 488 635 415 721 q 561 419 561 550 q 439 99 561 235 q 128 -42 314 -42 l 125 -42 m 292 663 q 153 607 210 663 q 97 468 97 551 q 153 328 97 383 q 292 274 208 274 q 434 331 376 274 q 492 475 492 389 q 433 610 492 557 q 292 663 375 663 z "}," ":{"ha":367,"x_min":0,"x_max":0,"o":""},"!":{"ha":210,"x_min":32,"x_max":140,"o":"m 119 176 l 57 176 l 46 782 l 131 782 l 119 176 m 32 51 q 48 90 32 74 q 86 106 64 106 q 124 90 108 106 q 140 51 140 74 q 124 14 140 29 q 86 -1 108 -1 q 48 15 64 -1 q 32 51 32 31 z "},"\"":{"ha":349,"x_min":57,"x_max":258,"o":"m 125 547 l 68 547 l 57 760 l 136 760 l 125 547 m 247 547 l 190 547 l 179 760 l 258 760 l 247 547 z "},"#":{"ha":661,"x_min":32,"x_max":596,"o":"m 469 538 l 596 538 l 596 481 l 469 481 l 469 263 l 596 263 l 596 204 l 469 204 l 469 33 l 408 33 l 408 204 l 221 204 l 221 33 l 161 33 l 161 204 l 32 204 l 32 263 l 158 263 l 158 481 l 32 481 l 32 538 l 158 538 l 158 708 l 221 708 l 221 538 l 407 538 l 407 708 l 469 708 l 469 538 m 221 481 l 221 263 l 407 263 l 407 481 l 221 481 z "},"$":{"ha":601,"x_min":29,"x_max":536,"o":"m 318 833 l 318 736 q 436 708 365 736 q 535 656 488 689 l 497 603 q 318 674 401 661 l 318 404 q 467 338 415 378 q 536 188 536 286 q 469 44 536 96 q 318 -8 401 -8 l 318 -78 l 253 -78 l 253 -10 q 129 17 203 -10 q 29 71 75 38 l 65 125 q 253 53 163 63 l 253 358 q 125 424 160 389 q 68 567 68 481 q 176 715 68 667 q 253 736 217 732 l 253 833 l 318 833 m 253 426 l 253 675 q 167 639 203 675 q 136 567 136 608 q 167 480 136 511 q 253 426 199 449 m 318 336 l 318 51 q 426 88 385 51 q 468 188 468 124 q 456 247 468 221 q 418 289 443 272 q 372 315 393 306 q 318 336 351 325 z "},"%":{"ha":818,"x_min":36,"x_max":756,"o":"m 36 618 l 36 625 q 80 742 36 693 q 186 790 124 790 q 295 742 251 790 q 339 625 339 694 l 339 618 q 294 501 339 550 q 186 453 249 453 q 80 501 124 453 q 36 618 36 550 m 186 735 q 116 703 142 735 q 90 625 90 672 l 90 618 q 117 540 90 572 q 186 508 143 508 q 275 575 247 508 q 283 618 283 594 l 283 625 q 256 703 283 671 q 186 735 229 735 m 297 0 l 232 0 l 475 725 l 540 725 l 297 0 m 453 153 l 453 161 q 496 278 453 231 q 603 325 539 325 q 713 278 669 325 q 756 161 756 231 l 756 153 q 711 37 756 85 q 603 -11 667 -11 q 496 36 539 -11 q 453 153 453 83 m 673 238 q 659 254 673 238 q 603 269 646 269 q 533 238 560 269 q 507 161 507 207 l 507 153 q 533 76 507 108 q 603 44 560 44 q 692 111 664 44 q 700 153 700 131 l 700 161 q 673 238 700 207 z "},"&":{"ha":706,"x_min":44,"x_max":640,"o":"m 597 350 q 539 136 597 226 l 640 42 l 600 -3 l 501 88 q 261 -11 413 -11 q 105 41 165 -11 q 44 185 44 93 q 79 311 44 256 q 168 392 114 367 q 111 533 111 458 q 166 659 111 614 q 308 704 221 704 q 426 651 374 704 q 453 608 444 633 l 410 571 q 297 643 376 643 q 183 533 183 643 q 231 425 183 478 q 279 378 249 404 q 326 335 310 351 l 494 176 q 539 353 539 256 l 539 397 l 597 397 l 597 350 m 108 189 q 151 86 108 125 q 261 47 194 47 q 458 126 379 47 l 292 281 l 211 349 q 137 285 165 326 q 108 189 108 243 z "},"'":{"ha":214,"x_min":50,"x_max":131,"o":"m 119 547 l 61 547 l 50 760 l 131 760 l 119 547 z "},"(":{"ha":411,"x_min":28,"x_max":342,"o":"m 314 833 l 342 786 q 165 599 233 721 q 96 326 96 478 q 165 56 96 176 q 342 -131 233 -65 l 314 -179 q 106 20 185 -110 q 28 326 28 150 q 106 634 28 504 q 314 833 185 764 z "},")":{"ha":411,"x_min":36,"x_max":350,"o":"m 36 786 l 64 833 q 272 633 194 763 q 350 326 350 504 q 272 19 350 149 q 64 -179 194 -110 l 36 -131 q 213 55 144 -65 q 282 326 282 175 q 213 599 282 479 q 36 786 144 719 z "},"*":{"ha":419,"x_min":31,"x_max":358,"o":"m 219 642 l 339 688 l 358 625 l 242 592 l 317 503 l 263 464 l 194 569 l 125 463 l 72 503 l 147 593 l 31 625 l 51 688 l 168 642 l 161 771 l 228 771 l 219 642 z "},"+":{"ha":479,"x_min":17,"x_max":431,"o":"m 254 354 l 431 354 l 431 297 l 254 297 l 254 119 l 192 119 l 192 297 l 17 297 l 17 354 l 192 354 l 192 532 l 254 532 l 254 354 z "},",":{"ha":213,"x_min":26,"x_max":133,"o":"m 26 -75 q 63 11 63 -39 q 62 34 63 18 q 61 58 61 50 q 72 84 61 74 q 97 94 82 94 q 122 83 111 94 q 133 58 133 72 l 133 36 q 117 -51 133 -19 q 64 -111 101 -82 l 26 -75 z "},"-":{"ha":483,"x_min":60,"x_max":390,"o":"m 390 308 l 60 308 l 60 371 l 390 371 l 390 308 z "},".":{"ha":228,"x_min":53,"x_max":147,"o":"m 67 9 q 60 16 67 9 q 53 42 53 22 q 67 76 53 61 q 99 90 81 90 q 133 76 118 90 q 147 42 147 61 q 133 10 147 24 q 99 -4 118 -4 q 67 9 81 -4 z "},"/":{"ha":379,"x_min":17,"x_max":331,"o":"m 88 -78 l 17 -78 l 260 833 l 331 833 l 88 -78 z "},":":{"ha":239,"x_min":53,"x_max":147,"o":"m 67 447 q 60 454 67 447 q 53 481 53 461 q 67 514 53 500 q 99 528 81 528 q 133 514 118 528 q 147 481 147 500 q 133 448 147 463 q 99 433 118 433 q 67 447 81 433 m 67 9 q 60 16 67 9 q 53 42 53 22 q 67 76 53 61 q 99 90 81 90 q 133 76 118 90 q 147 42 147 61 q 133 10 147 24 q 99 -4 118 -4 q 67 9 81 -4 z "},";":{"ha":221,"x_min":26,"x_max":147,"o":"m 67 447 q 60 454 67 447 q 53 481 53 461 q 67 514 53 500 q 99 528 81 528 q 133 514 118 528 q 147 481 147 500 q 133 447 147 461 q 99 433 118 433 q 67 447 81 433 m 26 -75 q 63 11 63 -39 q 62 34 63 18 q 61 58 61 50 q 97 94 65 94 q 122 83 111 94 q 133 58 133 72 l 133 36 q 117 -51 133 -19 q 64 -111 101 -82 l 26 -75 z "},"<":{"ha":432,"x_min":14,"x_max":347,"o":"m 344 447 l 126 297 l 347 143 l 308 89 l 14 294 l 308 500 l 344 447 z "},"=":{"ha":510,"x_min":60,"x_max":451,"o":"m 451 386 l 60 386 l 60 443 l 451 443 l 451 386 m 451 208 l 60 208 l 60 265 l 451 265 l 451 208 z "},">":{"ha":432,"x_min":53,"x_max":386,"o":"m 386 294 l 90 89 l 54 142 l 272 292 l 53 446 l 90 500 l 386 294 z "},"?":{"ha":514,"x_min":31,"x_max":458,"o":"m 90 640 q 100 618 90 628 q 125 608 110 608 l 131 608 l 146 551 q 125 549 132 549 q 58 574 85 549 q 31 640 31 600 q 92 743 31 706 q 233 781 153 781 q 395 718 332 781 q 458 558 458 656 q 325 353 458 429 q 301 339 319 350 q 275 323 282 328 q 254 308 268 318 q 231 290 240 299 q 213 271 221 281 q 192 214 192 246 q 197 167 192 206 l 140 154 q 133 214 133 186 q 160 304 133 267 q 227 364 188 342 q 306 408 267 386 q 372 468 344 431 q 399 558 399 506 q 352 676 399 631 q 235 722 306 722 q 136 701 182 722 q 90 640 90 681 m 149 21 q 141 28 149 21 q 133 58 133 36 q 149 96 133 81 q 186 111 164 111 q 224 96 208 111 q 239 58 239 81 q 224 21 239 36 q 186 6 208 6 q 149 21 164 6 z "},"@":{"ha":781,"x_min":46,"x_max":706,"o":"m 376 -14 q 593 28 510 -14 l 608 -22 l 567 -36 q 376 -67 472 -67 q 135 21 225 -67 q 46 258 46 108 q 134 513 46 417 q 376 608 222 608 q 616 520 526 608 q 706 283 706 432 q 665 150 706 203 q 553 97 624 97 q 447 164 469 97 q 343 113 406 113 q 242 163 278 113 q 206 289 206 214 q 249 404 206 357 q 358 451 293 451 q 397 449 368 451 q 432 446 425 446 l 481 446 l 481 215 q 553 147 492 147 q 623 188 599 147 q 647 286 647 229 q 574 483 647 410 q 376 557 500 557 q 178 475 250 557 q 106 261 106 393 q 178 60 106 135 q 376 -14 251 -14 m 343 168 q 425 240 400 168 l 425 390 l 393 393 q 379 394 386 393 q 368 395 372 394 q 363 396 364 396 q 290 365 319 396 q 261 289 261 333 q 343 168 261 168 z "},"A":{"ha":861,"x_min":17,"x_max":794,"o":"m 81 92 q 117 61 89 61 q 150 83 142 61 l 443 763 l 464 763 l 794 0 l 724 0 l 618 253 l 290 253 l 208 56 q 117 -4 182 -4 q 51 21 79 -4 q 17 79 22 46 l 81 92 m 442 614 l 317 315 l 592 315 l 465 614 q 453 650 453 643 l 442 614 z "},"B":{"ha":717,"x_min":17,"x_max":636,"o":"m 133 710 q 95 694 111 710 q 79 656 79 678 l 17 656 q 88 764 17 731 q 131 772 108 772 l 378 772 q 586 653 531 772 q 603 571 603 615 q 518 421 603 472 q 501 414 517 419 l 485 408 q 503 404 490 404 l 519 397 q 636 207 636 333 q 595 78 636 129 q 486 4 554 26 q 358 -11 438 -11 q 214 -6 279 -11 l 154 1 l 154 710 l 133 710 m 492 470 q 514 489 492 470 q 536 572 536 507 q 497 674 536 638 q 393 710 458 710 l 222 710 l 222 53 l 294 53 q 322 52 308 53 q 343 51 335 51 q 353 50 351 50 q 571 210 571 50 q 517 328 571 285 q 385 372 464 372 l 279 372 l 279 433 l 376 433 q 492 470 447 433 z "},"C":{"ha":822,"x_min":44,"x_max":744,"o":"m 431 36 q 585 74 515 36 q 694 172 654 113 l 744 138 q 433 -25 633 -25 q 154 89 264 -25 q 44 374 44 203 q 158 668 44 547 q 440 789 271 789 q 619 747 543 789 q 694 622 694 704 q 667 549 694 578 q 597 519 640 519 q 536 540 565 519 l 574 588 q 597 579 586 579 q 624 592 614 579 q 635 622 635 604 q 574 701 635 675 q 442 728 513 728 q 201 624 299 728 q 104 375 104 521 q 197 133 104 231 q 431 36 289 36 z "},"D":{"ha":894,"x_min":15,"x_max":815,"o":"m 126 704 q 92 686 107 701 q 78 650 78 671 l 15 650 q 49 733 15 700 q 131 767 82 767 l 464 767 q 718 657 621 767 q 815 381 815 547 q 699 86 815 183 q 371 -11 583 -11 q 271 -8 338 -11 q 176 -6 204 -6 l 154 0 l 154 704 l 126 704 m 394 50 q 749 381 749 50 q 668 613 749 522 q 453 704 588 704 l 222 704 l 222 56 q 394 50 294 50 z "},"E":{"ha":719,"x_min":15,"x_max":642,"o":"m 131 697 q 93 682 108 697 q 78 643 78 667 l 15 643 q 86 751 15 718 q 131 760 107 760 l 642 760 l 642 697 l 213 697 l 213 433 l 508 433 l 508 369 l 213 369 l 213 64 l 642 64 l 642 0 l 144 0 l 144 697 l 131 697 z "},"F":{"ha":675,"x_min":15,"x_max":642,"o":"m 131 697 q 93 681 108 697 q 78 642 78 665 l 15 642 q 86 750 15 717 q 131 758 107 758 l 642 758 l 642 697 l 213 697 l 213 432 l 508 432 l 508 369 l 213 369 l 213 -1 l 144 -1 l 144 697 l 131 697 z "},"G":{"ha":833,"x_min":44,"x_max":743,"o":"m 640 -236 q 668 -224 657 -236 q 681 -197 679 -212 l 681 92 q 422 -35 586 -35 q 152 82 260 -35 q 44 364 44 199 q 157 659 44 538 q 439 781 269 781 q 614 739 539 781 q 689 618 689 697 q 661 544 689 574 q 592 514 633 514 q 531 535 558 514 l 569 582 q 592 575 579 575 q 619 587 608 575 q 629 617 629 599 q 571 694 629 668 q 442 719 513 719 q 200 616 296 719 q 104 364 104 513 q 196 124 104 222 q 425 25 288 25 q 607 99 533 25 q 681 249 681 172 l 681 336 l 743 336 l 743 -197 q 679 -293 743 -265 q 640 -301 661 -301 q 556 -256 586 -301 l 608 -219 q 640 -236 621 -236 z "},"H":{"ha":778,"x_min":15,"x_max":683,"o":"m 136 663 q 126 688 136 678 q 103 697 117 697 q 74 681 86 697 l 15 719 q 101 765 47 765 q 197 701 171 765 q 206 663 206 683 l 206 426 l 615 426 l 615 760 l 683 760 l 683 0 l 615 0 l 615 364 l 206 364 l 206 0 l 136 0 l 136 663 z "},"I":{"ha":226,"x_min":60,"x_max":128,"o":"m 128 0 l 60 0 l 60 760 l 128 760 l 128 0 z "},"J":{"ha":519,"x_min":32,"x_max":431,"o":"m 153 710 q 65 686 113 710 l 35 742 q 156 774 111 774 q 193 767 169 774 l 250 747 q 311 735 290 735 q 369 764 340 735 l 431 764 l 431 213 q 377 56 431 115 q 232 -4 324 -4 q 87 49 139 -4 q 32 199 35 103 l 96 193 q 232 58 104 58 q 334 101 300 58 q 368 215 368 143 l 368 686 q 308 671 343 671 q 271 675 290 671 q 241 683 251 679 q 207 695 231 686 q 179 706 183 704 q 153 710 160 710 z "},"K":{"ha":714,"x_min":60,"x_max":665,"o":"m 564 54 q 591 66 579 54 q 603 93 603 78 l 665 93 q 604 0 665 28 q 565 -8 586 -8 q 481 35 511 -8 l 251 360 q 158 347 208 347 l 131 347 l 131 1 l 60 1 l 60 760 l 128 760 l 128 414 l 175 414 q 299 469 254 415 q 375 588 325 501 q 460 760 393 621 l 543 760 q 511 701 529 736 q 486 653 493 667 q 467 617 483 647 q 444 574 451 586 q 422 534 438 561 q 397 491 407 507 q 371 453 386 475 q 341 415 356 432 q 311 386 326 399 l 533 71 q 564 54 546 54 z "},"L":{"ha":568,"x_min":60,"x_max":492,"o":"m 128 64 l 492 64 l 492 0 l 60 0 l 60 760 l 128 760 l 128 64 z "},"M":{"ha":1122,"x_min":17,"x_max":1057,"o":"m 75 76 q 107 54 90 54 q 142 79 133 54 l 281 760 l 347 760 l 579 125 l 592 82 l 603 125 l 838 760 l 901 760 l 1057 0 l 993 0 l 868 625 l 861 668 l 849 625 l 624 0 l 558 0 l 333 624 l 321 668 l 203 71 q 169 15 196 39 q 110 -8 143 -8 q 53 9 78 -8 q 17 53 28 26 l 75 76 z "},"N":{"ha":867,"x_min":15,"x_max":775,"o":"m 197 760 q 358 576 275 675 q 542 356 442 478 q 697 168 642 233 l 710 143 l 710 758 l 775 758 l 775 0 l 756 0 l 232 625 l 221 649 l 221 94 q 190 24 221 53 q 115 -4 160 -4 q 45 26 75 -4 q 15 96 15 56 l 78 96 q 89 69 78 81 q 115 58 100 58 q 142 69 131 58 q 154 94 154 79 l 154 760 l 197 760 z "},"O":{"ha":899,"x_min":44,"x_max":821,"o":"m 44 367 l 44 388 q 155 671 44 557 q 432 785 265 785 q 709 670 597 785 q 821 388 821 556 l 821 367 q 712 83 821 197 q 436 -31 603 -31 q 157 85 269 -31 q 44 367 44 200 m 758 367 l 758 388 q 665 628 758 532 q 431 724 572 724 q 199 626 292 724 q 107 388 107 529 l 107 367 q 199 128 107 226 q 431 31 292 31 q 665 127 572 31 q 758 367 758 224 z "},"P":{"ha":676,"x_min":15,"x_max":599,"o":"m 132 697 q 94 681 110 697 q 78 643 78 665 l 15 643 q 86 751 15 718 q 131 760 107 760 l 386 760 q 542 696 486 760 q 599 528 599 632 q 532 349 599 413 q 346 286 465 286 q 269 292 300 286 l 269 353 l 372 347 q 490 399 447 347 q 533 529 533 450 q 490 651 533 606 q 369 697 446 696 l 224 697 l 224 -1 l 156 -1 l 156 697 l 132 697 z "},"Q":{"ha":867,"x_min":44,"x_max":794,"o":"m 194 -185 l 325 0 q 120 129 196 29 q 44 381 44 229 q 147 663 44 554 q 419 771 249 771 q 692 663 590 771 q 794 381 794 554 q 692 99 794 208 q 419 -11 589 -11 l 389 -10 l 324 -104 l 413 -135 q 538 -157 471 -157 q 643 -118 585 -157 l 671 -167 q 607 -207 624 -200 q 556 -214 588 -214 q 399 -190 465 -214 l 289 -153 l 242 -221 l 194 -185 m 421 710 q 194 619 276 710 q 113 378 113 528 q 196 141 113 232 q 419 50 279 50 q 645 141 563 50 q 728 379 728 232 q 645 617 728 525 q 421 710 563 710 z "},"R":{"ha":800,"x_min":15,"x_max":751,"o":"m 132 697 q 94 681 110 697 q 78 643 78 665 l 15 643 q 86 751 15 718 q 131 760 107 760 l 392 760 q 544 695 486 760 q 601 532 601 631 q 553 385 601 442 q 424 322 506 328 l 396 321 l 410 317 q 453 286 438 308 q 547 165 486 244 q 619 68 607 85 q 650 53 631 53 q 677 63 667 53 q 688 90 688 74 l 751 88 q 722 17 751 46 q 651 -11 693 -11 q 568 32 601 -11 l 428 214 q 365 281 396 258 q 279 307 333 303 l 279 369 l 375 369 q 491 413 447 369 q 535 529 535 456 q 495 650 535 603 q 388 697 456 697 l 221 697 l 221 0 l 153 0 l 153 697 l 132 697 z "},"S":{"ha":621,"x_min":25,"x_max":542,"o":"m 82 182 q 165 76 108 119 q 296 33 222 33 q 428 82 375 33 q 481 207 481 131 q 452 295 481 263 q 371 356 424 328 l 308 386 q 124 522 178 436 q 101 601 101 560 q 159 734 101 683 q 303 785 217 785 q 426 749 375 785 q 476 653 476 714 q 449 582 476 608 q 379 556 422 556 q 374 556 378 556 q 369 557 371 557 l 374 614 q 382 613 376 613 q 406 626 396 613 q 415 656 415 640 q 380 706 415 689 q 303 724 344 724 q 203 690 244 724 q 163 601 163 657 q 221 507 163 551 q 297 460 250 483 q 383 419 344 438 q 460 374 422 400 q 520 305 499 347 q 542 204 542 263 q 471 38 542 104 q 297 -28 400 -28 q 71 82 165 -28 q 25 160 42 117 l 82 182 z "},"T":{"ha":694,"x_min":28,"x_max":642,"o":"m 129 697 q 103 686 114 697 q 92 660 92 675 l 28 660 q 88 753 28 722 q 125 760 101 760 l 642 760 l 642 697 l 375 697 l 375 0 l 308 0 l 308 697 l 129 697 z "},"U":{"ha":829,"x_min":15,"x_max":742,"o":"m 15 722 q 107 769 47 769 q 184 739 154 769 q 214 661 214 708 l 214 297 q 274 118 214 185 q 442 51 335 51 q 612 118 550 51 q 674 297 674 185 l 674 761 l 742 761 l 742 297 q 661 74 742 158 q 444 -10 581 -10 q 227 74 307 -10 q 147 297 147 157 l 147 661 l 146 674 q 133 694 146 686 q 106 703 121 703 q 71 685 83 703 l 15 722 z "},"V":{"ha":756,"x_min":15,"x_max":689,"o":"m 114 701 q 78 675 82 701 l 15 692 q 53 745 25 724 q 117 767 81 767 q 201 711 176 767 q 313 382 242 596 q 408 96 383 168 l 622 761 l 689 761 l 442 0 l 376 0 l 147 678 q 114 701 142 697 z "},"W":{"ha":1244,"x_min":15,"x_max":1178,"o":"m 15 697 q 50 749 24 728 q 113 771 76 771 q 208 701 182 771 l 399 111 q 401 99 400 107 q 403 88 403 92 l 408 111 l 618 761 l 683 761 l 892 111 l 899 81 l 899 85 q 900 96 899 93 l 903 111 l 1111 761 l 1178 761 l 931 0 l 864 0 l 650 657 l 436 0 l 371 0 l 147 681 q 111 707 139 707 q 76 681 85 707 l 15 697 z "},"X":{"ha":742,"x_min":47,"x_max":693,"o":"m 592 57 q 616 67 606 57 q 629 92 626 78 l 693 89 q 631 0 689 26 q 592 -8 614 -8 q 570 -6 581 -8 q 553 -2 560 -4 q 538 7 546 0 q 525 17 529 14 q 514 29 521 19 q 505 42 507 39 q 495 57 503 44 q 486 72 488 69 l 331 340 l 129 0 l 50 0 l 282 390 l 47 760 l 125 760 l 326 439 l 528 760 l 607 760 l 374 390 l 563 72 q 592 57 574 57 z "},"Y":{"ha":701,"x_min":15,"x_max":653,"o":"m 118 706 q 94 696 104 706 q 81 672 83 686 l 15 679 q 49 744 18 717 q 118 771 79 771 q 208 718 178 771 l 379 407 l 575 761 l 653 761 l 415 332 l 415 0 l 342 0 l 346 331 l 150 686 q 118 706 138 706 z "},"Z":{"ha":654,"x_min":31,"x_max":581,"o":"m 408 -15 q 247 16 351 -15 q 119 51 142 47 l 81 -17 l 31 14 l 439 697 l 92 697 l 92 757 l 542 757 l 150 100 l 188 93 q 229 83 210 90 q 282 68 249 78 q 326 56 315 58 q 408 43 372 43 q 538 101 474 43 l 581 60 l 567 47 q 408 -15 489 -15 z "},"[":{"ha":372,"x_min":60,"x_max":325,"o":"m 325 769 l 128 769 l 128 -131 l 325 -131 l 325 -193 l 60 -193 l 60 833 l 325 833 l 325 769 z "},"\\":{"ha":379,"x_min":17,"x_max":331,"o":"m 331 -78 l 258 -78 l 17 833 l 86 833 l 331 -78 z "},"]":{"ha":372,"x_min":14,"x_max":279,"o":"m 279 -193 l 14 -193 l 14 -131 l 211 -131 l 211 769 l 14 769 l 14 833 l 279 833 l 279 -193 z "},"^":{"ha":504,"x_min":31,"x_max":442,"o":"m 442 403 l 386 364 l 233 582 l 83 367 l 31 403 l 225 683 l 247 683 l 442 403 z "},"_":{"ha":643,"x_min":60,"x_max":549,"o":"m 549 -147 l 60 -147 l 60 -86 l 549 -86 l 549 -147 z "},"`":{"ha":289,"x_min":19,"x_max":235,"o":"m 235 668 l 210 631 l 19 753 l 58 807 l 235 668 z "},"a":{"ha":681,"x_min":46,"x_max":632,"o":"m 511 89 q 524 63 511 75 q 550 50 536 50 q 582 68 569 50 l 632 33 q 550 -11 607 -11 q 484 14 511 -11 q 451 75 457 39 q 282 -11 401 -11 q 108 69 169 -11 q 46 275 46 150 q 115 483 46 401 q 304 564 185 564 q 450 554 379 564 l 511 554 l 511 89 m 450 497 q 381 502 428 497 q 306 507 335 507 q 160 443 211 507 q 108 278 108 379 q 153 114 108 181 q 282 47 197 47 q 402 92 354 47 q 450 208 450 136 l 450 497 z "},"b":{"ha":601,"x_min":60,"x_max":525,"o":"m 265 -11 q 60 11 142 -11 l 60 807 l 121 807 l 121 481 q 288 564 179 564 q 463 484 401 564 q 525 279 525 404 q 456 70 525 151 q 265 -11 386 -11 m 121 57 l 179 50 q 264 47 204 47 q 410 110 358 47 q 461 275 461 174 q 417 440 461 374 q 288 507 372 507 q 174 467 221 507 q 121 364 128 426 l 121 57 z "},"c":{"ha":578,"x_min":46,"x_max":501,"o":"m 299 51 q 472 104 376 51 l 501 58 q 299 -7 406 -7 q 46 279 46 -7 q 110 485 46 401 q 286 569 175 569 q 431 524 374 569 q 488 400 488 479 l 425 400 q 385 483 425 453 q 286 514 346 514 q 153 440 199 514 q 108 263 108 367 q 158 108 108 164 q 299 51 207 51 z "},"d":{"ha":681,"x_min":46,"x_max":632,"o":"m 304 564 q 450 554 379 564 l 450 808 l 511 808 l 511 89 q 524 63 511 75 q 550 50 536 50 q 582 68 569 50 l 632 33 q 550 -11 607 -11 q 484 14 511 -11 q 451 75 457 39 q 282 -11 401 -11 q 108 69 169 -11 q 46 275 46 150 q 115 483 46 401 q 304 564 185 564 m 450 496 q 306 507 415 507 q 160 443 211 507 q 108 278 108 379 q 153 114 108 181 q 282 47 197 47 q 402 92 354 47 q 450 208 450 136 l 450 496 z "},"e":{"ha":579,"x_min":46,"x_max":501,"o":"m 299 47 q 472 100 376 47 l 501 53 q 299 -11 413 -11 q 46 275 46 -11 q 111 480 46 396 q 286 564 176 564 q 431 520 374 564 q 488 396 488 476 q 419 263 488 304 q 243 222 350 222 l 113 222 q 299 47 135 47 m 108 281 l 243 281 q 425 396 425 281 q 387 481 425 453 q 286 510 349 510 q 156 441 204 510 q 108 281 108 372 z "},"f":{"ha":443,"x_min":58,"x_max":394,"o":"m 394 667 q 336 514 394 567 q 172 461 278 461 l 119 461 l 119 281 l 283 281 l 283 222 l 119 222 l 119 -289 l 58 -289 l 58 558 q 232 825 58 825 q 351 783 307 825 q 394 667 394 740 m 331 667 q 304 740 331 713 q 232 767 278 767 q 172 750 196 767 q 138 701 149 733 q 123 638 126 669 q 119 561 119 606 l 119 519 l 172 519 q 290 557 249 519 q 331 667 331 594 z "},"g":{"ha":601,"x_min":46,"x_max":510,"o":"m 181 -136 q 231 -7 181 -57 q 96 95 146 14 q 46 286 46 176 q 120 487 46 408 q 314 565 194 565 q 451 554 344 565 l 510 554 l 510 -125 q 465 -262 510 -212 q 336 -312 419 -312 q 224 -262 267 -312 q 181 -136 181 -211 m 104 285 q 149 117 104 188 q 276 47 193 47 q 395 96 339 47 q 451 199 451 144 l 451 500 q 319 507 344 507 q 163 445 221 507 q 104 285 104 383 m 342 -253 q 451 -129 442 -253 l 451 76 q 299 -31 393 18 q 239 -136 239 -61 q 267 -219 239 -186 q 342 -253 294 -253 z "},"h":{"ha":658,"x_min":60,"x_max":610,"o":"m 428 386 q 303 510 428 510 q 200 481 240 510 q 121 397 160 451 l 121 3 l 60 3 l 60 810 l 121 810 l 121 469 q 303 568 190 568 q 489 389 489 568 l 489 92 q 501 65 489 76 q 526 53 513 53 q 558 69 547 53 l 610 36 q 526 -8 581 -8 q 457 22 486 -8 q 428 92 428 51 l 428 386 z "},"i":{"ha":263,"x_min":29,"x_max":231,"o":"m 43 706 q 36 713 43 706 q 29 739 29 719 q 42 772 29 758 q 75 786 56 786 q 109 772 94 786 q 124 739 124 758 q 109 706 124 721 q 75 692 94 692 q 43 706 57 692 m 147 -11 q 76 18 106 -11 q 47 89 47 47 l 47 556 l 108 556 l 108 89 q 120 62 108 74 q 147 50 132 50 q 179 67 167 50 l 231 33 q 147 -11 199 -11 z "},"j":{"ha":271,"x_min":0,"x_max":196,"o":"m 101 739 q 115 772 101 758 q 147 786 129 786 q 182 773 168 786 q 196 739 196 760 q 181 706 196 721 q 147 692 167 692 q 115 706 129 692 q 101 739 101 721 m 83 -228 q 110 -216 99 -228 q 121 -189 121 -204 l 121 557 l 182 557 l 182 -189 q 122 -281 182 -254 q 83 -289 106 -289 q 0 -244 32 -289 l 51 -211 q 83 -228 64 -228 z "},"k":{"ha":649,"x_min":60,"x_max":600,"o":"m 600 97 q 569 30 597 58 q 501 1 540 1 q 417 47 446 1 l 310 224 l 121 224 l 121 1 l 60 1 l 60 808 l 121 808 l 121 456 q 296 565 176 565 q 425 522 379 565 q 474 400 471 479 q 369 240 468 292 l 472 76 q 500 64 485 64 q 526 75 515 64 q 538 100 538 86 l 600 97 m 415 403 q 296 511 408 511 q 169 442 215 511 q 124 281 124 374 l 253 281 q 369 310 329 281 q 415 403 408 339 z "},"l":{"ha":289,"x_min":58,"x_max":242,"o":"m 242 35 q 158 -10 213 -10 q 86 19 114 -10 q 58 90 58 47 l 58 807 l 119 807 l 119 90 q 132 63 119 75 q 158 51 144 51 q 190 68 178 51 l 242 35 z "},"m":{"ha":994,"x_min":53,"x_max":947,"o":"m 431 374 q 317 507 431 507 q 186 443 247 507 q 158 397 171 425 l 158 0 l 97 0 l 97 392 q 53 525 97 481 l 90 561 q 150 464 136 524 q 220 536 175 508 q 324 564 265 564 q 479 461 443 564 q 650 564 543 564 q 778 518 732 564 q 825 390 825 472 l 825 88 q 838 60 825 72 q 864 49 850 49 q 897 65 885 49 l 947 32 q 864 -12 918 -12 q 793 17 822 -12 q 764 88 764 46 l 764 389 q 735 478 761 449 q 651 507 708 507 q 492 397 550 507 l 492 0 l 431 0 l 431 374 z "},"n":{"ha":676,"x_min":33,"x_max":628,"o":"m 446 374 q 416 475 446 443 q 319 507 386 507 q 240 489 276 507 q 185 451 204 471 q 139 394 167 431 l 139 0 l 78 0 l 78 392 q 33 525 78 481 l 71 561 q 132 458 118 529 q 319 564 204 564 q 507 386 507 564 l 507 86 q 519 60 507 72 q 546 47 531 47 q 578 64 565 47 l 628 31 q 546 -14 599 -14 q 475 15 504 -14 q 446 86 446 44 l 446 374 z "},"o":{"ha":676,"x_min":46,"x_max":597,"o":"m 322 564 q 523 485 449 564 q 597 278 597 406 q 522 69 597 149 q 322 -11 447 -11 q 121 68 196 -11 q 46 275 46 147 q 122 483 46 403 q 322 564 197 564 m 478 446 q 450 476 478 446 q 322 507 422 507 q 165 444 222 507 q 108 278 108 381 q 165 110 108 174 q 322 47 222 47 q 478 111 422 47 q 535 281 535 175 q 478 446 535 385 z "},"p":{"ha":619,"x_min":33,"x_max":542,"o":"m 283 -11 q 139 -1 213 -11 l 139 -290 l 78 -290 l 78 392 q 33 525 78 481 l 71 561 q 131 468 117 526 q 306 564 176 564 q 481 484 419 564 q 542 279 542 404 q 473 70 542 151 q 283 -11 404 -11 m 139 57 l 197 51 q 282 47 232 47 q 428 110 376 47 q 479 275 479 174 q 435 440 479 374 q 306 507 392 507 q 158 426 208 507 q 139 364 143 403 l 139 57 z "},"q":{"ha":603,"x_min":44,"x_max":508,"o":"m 303 564 q 508 542 429 564 l 508 -290 l 447 -290 l 447 71 q 281 -11 397 -11 q 106 69 168 -11 q 44 275 44 150 q 114 483 44 401 q 303 564 183 564 m 281 47 q 395 86 349 47 q 447 189 442 125 l 447 496 q 304 507 388 507 q 159 443 210 507 q 108 278 108 379 q 152 113 108 179 q 281 47 196 47 z "},"r":{"ha":438,"x_min":44,"x_max":371,"o":"m 371 497 q 297 506 328 506 q 150 397 211 506 l 150 0 l 89 0 l 89 392 q 44 525 89 481 l 82 561 q 143 464 125 529 q 306 564 200 564 q 371 556 329 564 l 371 497 z "},"s":{"ha":493,"x_min":35,"x_max":425,"o":"m 425 150 q 369 28 425 68 q 222 -11 314 -11 q 35 53 118 -11 l 65 100 q 231 47 150 47 q 361 150 361 47 q 285 247 361 215 q 228 269 267 256 q 167 292 190 282 q 118 321 144 303 q 78 366 92 339 q 65 431 65 393 q 112 528 65 493 q 228 564 158 564 q 308 554 265 564 q 371 531 351 544 l 358 474 q 219 507 274 507 q 156 486 181 507 q 131 431 131 465 q 143 388 131 407 q 169 360 156 369 q 207 342 183 351 q 260 319 222 335 q 322 293 299 304 q 372 262 344 282 q 412 214 399 242 q 425 150 425 186 z "},"t":{"ha":406,"x_min":58,"x_max":347,"o":"m 197 -11 q 58 158 58 -11 l 58 693 l 119 693 l 119 553 l 294 553 l 294 492 l 119 492 l 119 158 q 203 47 119 47 q 260 67 232 47 q 303 113 288 88 l 347 79 q 197 -11 300 -11 z "},"u":{"ha":693,"x_min":33,"x_max":644,"o":"m 94 432 q 33 514 94 467 l 67 564 q 147 475 124 526 q 156 432 156 454 l 156 182 q 281 49 156 49 q 382 76 343 49 q 463 160 421 104 l 463 556 l 522 556 l 522 88 q 535 60 522 72 q 561 49 547 49 q 593 65 581 49 l 644 31 q 561 -12 607 -12 q 492 16 519 -12 q 461 86 464 44 q 281 -8 392 -8 q 94 153 104 -8 l 94 432 z "},"v":{"ha":547,"x_min":33,"x_max":483,"o":"m 33 524 l 65 574 q 153 453 126 533 l 271 93 l 422 554 l 483 554 l 303 0 l 240 0 l 88 461 q 33 524 69 501 z "},"w":{"ha":919,"x_min":33,"x_max":844,"o":"m 33 525 l 65 575 q 153 453 124 538 l 269 97 l 419 556 l 482 556 l 632 97 l 782 556 l 844 556 l 664 1 l 601 1 l 451 460 l 301 1 l 238 1 l 88 463 q 33 525 69 503 z "},"x":{"ha":619,"x_min":43,"x_max":571,"o":"m 571 75 q 540 8 568 36 q 474 -21 513 -21 q 386 26 422 -21 l 261 229 l 118 0 l 46 0 l 221 278 l 43 556 l 118 556 l 261 326 l 400 556 l 474 556 l 303 281 l 439 60 q 471 42 449 42 q 497 53 486 42 q 508 79 508 64 l 571 75 z "},"y":{"ha":615,"x_min":33,"x_max":522,"o":"m 94 432 q 33 514 94 467 l 67 564 q 146 475 126 525 q 156 432 156 456 l 156 182 q 281 49 156 49 q 401 90 346 49 q 463 190 457 131 l 463 556 l 522 556 l 522 -131 q 477 -267 522 -218 q 350 -317 432 -317 q 237 -266 281 -317 q 193 -143 193 -215 q 249 -8 193 -44 q 94 153 94 7 l 94 432 m 350 -258 q 434 -224 404 -258 q 464 -135 464 -190 l 464 65 l 451 54 q 336 -17 428 32 q 273 -66 293 -39 q 253 -142 253 -93 q 279 -224 253 -190 q 350 -258 306 -258 z "},"z":{"ha":589,"x_min":38,"x_max":514,"o":"m 469 539 l 167 97 l 256 65 q 386 43 322 43 q 486 82 431 43 l 514 33 q 386 -14 457 -14 q 242 10 306 -14 l 132 46 l 86 -22 l 38 14 l 365 496 l 81 496 l 81 553 l 469 553 l 469 539 z "},"{":{"ha":358,"x_min":24,"x_max":300,"o":"m 300 782 q 190 742 214 763 q 161 675 161 718 q 164 622 161 643 l 172 554 q 183 419 183 454 q 156 347 183 375 q 131 331 143 335 l 110 319 q 114 318 111 319 q 122 315 117 317 q 131 313 126 314 q 183 222 183 278 q 172 86 183 186 l 164 19 q 161 -33 161 -1 q 242 -125 161 -100 q 300 -142 264 -133 l 285 -192 q 250 -182 275 -189 q 214 -172 225 -175 q 183 -160 203 -168 q 153 -147 163 -153 q 129 -128 143 -140 q 109 -103 115 -117 q 98 -72 103 -90 q 93 -31 93 -53 q 104 108 93 26 l 113 175 q 115 222 115 194 q 24 290 115 281 l 24 351 q 107 389 81 356 q 115 419 115 401 q 113 467 115 447 l 104 531 q 93 672 93 608 q 98 713 93 694 q 109 745 103 732 q 129 770 115 758 q 153 788 143 782 q 183 802 163 794 q 214 813 203 810 q 250 824 225 817 q 285 833 275 831 l 300 782 z "},"|":{"ha":226,"x_min":60,"x_max":128,"o":"m 128 -78 l 60 -78 l 60 833 l 128 833 l 128 -78 z "},"}":{"ha":357,"x_min":25,"x_max":303,"o":"m 164 675 q 162 699 164 688 q 153 719 160 710 q 143 734 147 728 q 127 747 139 740 q 110 756 115 753 q 90 765 106 760 q 69 771 74 769 q 47 776 65 772 q 25 782 28 781 l 42 833 q 76 824 51 831 q 112 813 101 817 q 143 802 122 810 q 173 788 164 794 q 196 770 182 782 q 216 745 210 758 q 227 713 222 732 q 232 672 232 694 q 221 531 232 608 l 214 467 q 210 419 210 438 q 303 351 210 360 l 303 290 q 237 270 264 286 q 210 222 210 254 q 214 175 210 204 l 221 108 q 232 -31 232 26 q 227 -72 232 -53 q 216 -103 222 -90 q 196 -128 210 -117 q 173 -147 182 -140 q 143 -160 164 -153 q 112 -172 122 -168 q 76 -182 101 -175 q 42 -192 51 -189 l 25 -142 q 129 -104 99 -125 q 164 -33 164 -82 q 161 19 164 -1 l 153 86 q 142 222 142 186 q 163 285 142 258 q 215 319 185 313 q 196 328 207 324 q 142 419 142 360 q 153 554 142 454 l 161 622 q 164 675 164 643 z "},"~":{"ha":588,"x_min":60,"x_max":488,"o":"m 172 375 l 186 375 q 285 353 229 375 q 360 336 326 336 q 450 372 403 336 l 488 326 q 375 278 432 282 l 360 278 q 264 299 314 278 q 188 315 221 315 q 97 281 142 315 l 60 325 q 172 375 117 371 z "}," ":{"ha":367,"x_min":0,"x_max":0,"o":""},"¡":{"ha":253,"x_min":57,"x_max":164,"o":"m 74 479 q 65 487 74 479 q 57 515 57 494 q 74 553 57 536 q 111 569 90 569 q 148 553 132 569 q 164 515 164 536 q 148 479 164 494 q 111 464 132 464 q 74 479 90 464 m 153 -210 l 68 -210 l 79 396 l 142 396 l 153 -210 z "},"¢":{"ha":561,"x_min":29,"x_max":485,"o":"m 233 74 q 29 357 29 101 q 85 544 29 463 q 233 643 144 626 l 233 758 l 301 758 l 301 644 q 458 542 419 631 q 471 478 471 513 l 454 478 l 424 479 q 408 478 408 479 q 378 553 408 525 q 301 590 349 582 l 301 129 q 381 147 344 133 q 456 182 424 165 l 485 136 q 403 92 446 108 q 301 71 364 75 l 301 -1 l 233 -1 l 233 74 m 233 133 l 233 588 q 128 502 165 572 q 92 340 92 432 q 233 133 92 165 z "},"£":{"ha":633,"x_min":53,"x_max":549,"o":"m 194 36 q 167 -14 178 -3 l 110 8 q 133 61 125 38 q 144 138 144 85 l 144 336 l 53 336 l 53 400 l 144 400 l 144 539 q 197 681 144 632 q 367 736 253 736 q 428 735 403 736 l 493 728 l 493 669 l 419 676 q 358 679 364 679 q 250 643 288 679 q 213 539 213 607 l 213 400 l 383 400 l 383 336 l 213 336 l 213 118 l 210 99 l 290 71 q 421 49 351 49 q 521 88 465 49 l 549 33 q 421 -14 485 -14 q 276 10 343 -14 l 194 36 z "},"¤":{"ha":779,"x_min":58,"x_max":689,"o":"m 372 579 q 524 533 454 579 l 642 651 l 689 603 l 575 486 q 625 319 625 424 q 574 153 625 217 l 689 38 l 642 -11 l 522 108 q 372 61 453 61 q 222 106 299 61 l 106 -11 l 58 38 l 171 151 q 119 319 119 215 q 172 486 119 415 l 58 603 l 106 651 l 224 533 q 372 579 293 579 m 558 322 q 508 465 558 411 q 374 519 458 519 q 239 464 294 519 q 189 319 189 414 q 297 135 189 181 q 374 119 331 119 q 510 175 461 119 q 558 322 558 231 z "},"¥":{"ha":700,"x_min":53,"x_max":614,"o":"m 414 414 l 581 414 l 581 353 l 381 353 l 369 335 l 369 247 l 581 247 l 581 188 l 369 188 l 369 0 l 303 0 l 303 188 l 86 188 l 86 247 l 300 247 l 300 335 l 289 353 l 86 353 l 86 414 l 256 414 l 53 733 l 129 733 l 335 408 l 536 733 l 614 733 l 414 414 z "},"¦":{"ha":217,"x_min":58,"x_max":126,"o":"m 126 422 l 58 422 l 58 833 l 126 833 l 126 422 m 126 -78 l 58 -78 l 58 333 l 126 333 l 126 -78 z "},"§":{"ha":456,"x_min":53,"x_max":369,"o":"m 121 492 q 86 586 86 538 q 146 692 86 653 q 313 747 207 731 l 326 689 q 199 649 238 671 q 158 586 158 628 q 214 499 158 543 q 261 465 225 489 q 316 425 297 440 q 352 379 335 410 q 369 313 369 349 q 342 214 369 246 q 318 192 335 206 l 301 182 q 336 86 336 138 q 278 -19 336 18 q 111 -75 217 -58 l 97 -15 q 225 24 189 3 q 264 86 264 44 q 210 175 264 133 q 158 210 193 189 q 69 297 89 257 q 53 361 53 331 q 72 442 53 407 q 121 492 90 476 m 169 447 q 122 361 122 419 q 126 333 122 346 q 143 308 131 319 q 161 290 156 296 q 186 272 167 285 q 208 258 206 260 q 253 226 240 236 q 286 253 269 236 q 301 313 301 275 q 299 333 301 324 q 290 352 296 343 q 280 367 285 361 q 264 381 275 374 q 248 392 253 389 q 231 404 243 396 q 215 414 218 413 q 169 447 181 439 z "},"¨":{"ha":493,"x_min":60,"x_max":401,"o":"m 60 732 q 74 767 60 753 q 107 781 88 781 q 141 767 128 781 q 154 732 154 753 q 140 699 154 713 q 107 686 126 686 q 74 700 88 686 q 60 732 60 714 m 307 732 q 320 767 307 753 q 353 781 333 781 q 387 766 372 781 q 401 732 401 751 q 387 700 401 714 q 353 686 372 686 q 320 699 333 686 q 307 732 307 713 z "},"©":{"ha":819,"x_min":57,"x_max":731,"o":"m 394 610 q 588 555 508 610 q 706 407 668 500 q 731 274 731 346 q 726 199 731 222 q 706 138 722 176 q 394 -67 619 -67 q 198 -12 278 -67 q 81 135 118 42 q 57 269 57 192 q 111 467 57 388 q 257 585 165 547 q 394 610 319 610 m 394 557 q 231 511 299 557 q 136 389 164 465 q 117 274 117 340 q 281 7 117 74 q 394 -14 331 -14 q 593 68 511 -14 q 669 275 669 144 q 507 536 669 469 q 394 557 456 557 m 408 100 q 300 148 339 100 q 261 274 261 196 q 288 389 261 344 q 329 432 300 410 q 397 449 354 449 l 442 449 l 489 444 l 489 392 l 442 397 l 397 397 q 319 275 319 397 q 414 151 319 151 q 497 183 447 151 l 521 142 q 408 100 465 100 z "},"ª":{"ha":453,"x_min":57,"x_max":364,"o":"m 306 500 q 315 490 306 490 q 324 496 318 490 l 364 469 q 315 442 349 442 q 263 476 276 442 q 181 442 232 442 q 67 538 97 442 q 57 603 57 565 q 97 704 57 658 q 196 747 135 747 q 229 745 200 747 q 261 743 258 743 l 306 743 l 306 500 m 108 603 q 181 496 108 496 q 247 543 224 496 l 254 558 l 254 690 l 225 693 q 196 694 217 694 q 134 667 160 694 q 108 603 108 640 z "},"«":{"ha":682,"x_min":53,"x_max":592,"o":"m 358 492 l 118 279 l 358 67 l 317 21 l 88 225 q 53 279 53 254 q 88 332 53 301 l 317 536 l 358 492 m 592 492 l 351 279 l 592 67 l 550 21 l 321 225 q 286 279 286 254 q 321 332 286 301 l 550 536 l 592 492 z "},"¬":{"ha":539,"x_min":47,"x_max":447,"o":"m 447 164 l 379 164 l 379 293 l 47 293 l 47 358 l 447 358 l 447 164 z "},"­":{"ha":667,"x_min":60,"x_max":390,"o":"m 390 308 l 60 308 l 60 371 l 390 371 l 390 308 z "},"®":{"ha":819,"x_min":57,"x_max":731,"o":"m 394 807 q 589 751 508 807 q 706 604 669 696 q 731 469 731 544 q 726 396 731 418 q 706 335 722 374 q 394 131 619 131 q 197 185 278 131 q 81 331 117 239 q 57 467 57 388 q 111 664 57 585 q 257 781 165 743 q 394 807 322 807 m 394 753 q 231 708 297 753 q 136 586 164 663 q 117 469 117 538 q 160 301 117 369 q 281 203 204 233 q 394 182 331 182 q 593 264 511 182 q 669 472 669 340 q 507 733 669 665 q 394 753 458 753 m 528 542 q 508 482 528 508 q 463 447 489 456 q 508 397 492 436 l 550 296 l 497 274 l 463 368 q 432 413 456 389 q 369 432 413 432 l 344 432 l 344 267 l 290 267 l 290 553 q 292 651 290 631 q 303 653 300 651 l 332 653 q 363 656 335 653 q 397 658 390 658 q 492 627 456 658 q 528 542 528 596 m 475 542 q 453 590 475 572 q 397 608 431 608 q 378 607 381 608 l 360 604 l 344 603 l 344 476 l 408 476 q 456 494 438 476 q 475 542 475 513 z "},"¯":{"ha":490,"x_min":47,"x_max":410,"o":"m 410 697 l 47 697 l 47 760 l 410 760 l 410 697 z "},"°":{"ha":440,"x_min":57,"x_max":351,"o":"m 204 440 q 97 481 138 440 q 57 588 57 521 q 143 726 57 689 q 203 738 165 738 q 310 697 269 738 q 351 590 351 656 q 265 451 351 489 q 204 440 242 440 m 267 521 q 279 534 267 521 q 292 589 292 547 q 268 657 292 631 q 204 683 244 683 q 151 666 176 683 q 119 626 126 649 q 117 589 117 618 q 141 521 117 547 q 203 494 165 494 q 267 521 242 494 z "},"±":{"ha":546,"x_min":50,"x_max":464,"o":"m 288 354 l 464 354 l 464 297 l 288 297 l 288 119 l 225 119 l 225 297 l 50 297 l 50 354 l 225 354 l 225 532 l 288 532 l 288 354 m 464 0 l 50 0 l 50 58 l 464 58 l 464 0 z "},"²":{"ha":347,"x_min":47,"x_max":269,"o":"m 153 779 q 251 686 251 779 q 241 642 251 663 q 221 613 231 622 q 192 589 211 604 l 143 553 q 107 508 119 535 l 269 508 l 269 460 l 47 460 l 47 465 q 60 525 47 499 q 85 564 74 551 q 125 599 97 576 l 163 626 q 203 686 203 658 q 156 731 203 731 l 113 731 l 86 728 l 63 728 l 63 775 l 110 779 l 153 779 z "},"³":{"ha":329,"x_min":47,"x_max":251,"o":"m 115 653 q 167 660 149 653 q 186 692 186 667 q 139 732 186 732 l 122 731 l 99 731 l 74 729 l 51 729 l 51 775 q 97 779 72 778 l 136 779 q 235 692 235 779 q 217 636 235 656 q 251 556 251 601 q 135 458 251 458 l 119 458 q 79 461 93 458 l 47 464 l 47 513 l 78 508 q 84 508 81 508 q 94 506 88 507 q 106 506 100 506 l 133 506 q 200 558 200 506 q 174 611 200 585 q 114 603 153 603 l 93 603 l 93 653 l 115 653 z "},"´":{"ha":347,"x_min":50,"x_max":265,"o":"m 265 753 l 75 631 l 50 668 l 225 807 l 265 753 z "},"µ":{"ha":583,"x_min":47,"x_max":513,"o":"m 110 181 q 138 80 110 113 q 231 47 167 47 q 329 78 293 47 q 408 161 371 108 l 408 553 l 469 553 l 469 160 q 513 28 469 72 l 475 -8 q 414 97 422 29 q 231 -11 343 -11 q 108 19 151 -11 l 108 -278 l 47 -278 l 47 553 l 108 553 l 110 181 z "},"¶":{"ha":565,"x_min":19,"x_max":474,"o":"m 253 278 q 74 331 128 289 q 19 479 19 372 q 88 639 19 593 q 333 686 158 686 l 385 685 l 419 685 l 474 682 l 474 1 l 408 1 l 408 619 l 318 619 l 318 1 l 253 1 l 253 278 z "},"·":{"ha":250,"x_min":42,"x_max":174,"o":"m 42 364 q 61 410 42 390 q 108 429 81 429 q 153 408 132 429 q 174 364 174 388 q 154 317 174 336 q 108 297 135 297 q 60 316 79 297 q 42 364 42 335 z "},"¸":{"ha":288,"x_min":54,"x_max":201,"o":"m 89 -210 q 142 -147 142 -210 q 89 -106 142 -106 l 54 -106 l 65 1 l 133 1 l 122 -54 q 180 -86 158 -58 q 201 -153 201 -114 q 169 -236 201 -203 q 89 -269 138 -269 l 89 -210 z "},"¹":{"ha":264,"x_min":33,"x_max":183,"o":"m 67 742 q 176 782 117 742 l 183 778 l 183 460 l 131 460 l 131 708 q 72 693 85 693 q 33 701 56 693 l 43 744 l 58 742 l 67 742 z "},"º":{"ha":456,"x_min":57,"x_max":367,"o":"m 211 776 q 324 733 282 776 q 367 618 367 689 q 275 468 367 508 q 211 456 246 456 q 68 551 110 456 q 57 615 57 578 q 147 764 57 726 q 211 776 176 776 m 314 619 q 286 697 314 668 q 211 726 258 726 q 150 708 178 726 q 115 663 122 689 q 111 618 111 647 q 138 537 111 568 q 211 506 164 506 q 287 537 260 506 q 314 619 314 568 z "},"»":{"ha":682,"x_min":58,"x_max":597,"o":"m 99 536 l 328 332 q 364 279 364 303 q 328 225 364 257 l 99 21 l 58 67 l 297 279 l 58 492 l 99 536 m 332 536 l 561 332 q 597 279 597 300 q 561 225 597 257 l 332 21 l 292 67 l 531 279 l 292 492 l 332 536 z "},"¼":{"ha":790,"x_min":53,"x_max":703,"o":"m 86 696 q 197 736 136 696 l 203 732 l 203 414 l 150 414 l 150 663 q 92 647 104 647 q 53 656 76 647 l 64 699 l 79 696 l 86 696 m 264 0 l 197 0 l 442 725 l 506 725 l 264 0 m 703 0 l 653 0 l 653 104 l 488 104 l 517 311 l 567 311 l 544 153 l 653 153 l 653 311 l 703 311 l 703 0 z "},"½":{"ha":776,"x_min":53,"x_max":690,"o":"m 150 663 q 93 647 119 647 q 86 648 90 647 q 81 649 82 649 l 74 649 q 68 650 71 649 q 60 653 65 651 q 53 656 56 654 l 64 699 l 79 697 l 86 696 q 181 726 135 699 l 197 736 l 203 732 l 203 414 l 150 414 l 150 663 m 264 0 l 197 0 l 442 725 l 506 725 l 264 0 m 574 319 q 672 225 672 319 q 654 169 672 189 q 614 129 639 149 l 564 92 q 528 47 540 74 l 690 47 l 690 0 l 468 0 l 468 6 q 546 139 468 85 l 583 167 q 622 215 618 196 q 624 228 624 221 q 576 271 624 271 l 558 269 l 533 269 l 507 268 l 483 268 l 483 314 l 531 319 l 574 319 z "},"¾":{"ha":801,"x_min":54,"x_max":714,"o":"m 122 604 q 193 644 193 604 q 146 685 193 685 l 129 683 l 106 683 l 81 681 l 58 681 l 58 728 q 81 730 65 729 q 104 731 96 731 l 143 731 q 218 710 194 731 q 242 643 242 689 q 224 589 242 608 q 258 508 258 554 q 128 408 258 408 q 86 414 106 408 l 54 417 l 54 464 l 85 461 q 91 460 88 461 q 101 459 94 460 q 113 458 107 458 l 140 458 q 207 510 207 458 q 181 564 207 538 q 119 556 164 556 l 100 556 l 100 604 l 122 604 m 275 0 l 208 0 l 453 725 l 517 725 l 275 0 m 714 0 l 664 0 l 664 104 l 499 104 l 528 311 l 578 311 l 556 153 l 664 153 l 664 311 l 714 311 l 714 0 z "},"¿":{"ha":561,"x_min":50,"x_max":476,"o":"m 291 490 q 283 498 291 490 q 275 526 275 506 q 292 564 275 547 q 328 581 308 581 q 365 564 349 581 q 381 526 381 547 q 365 490 381 506 q 328 475 350 475 q 291 490 307 475 m 386 36 q 451 10 425 36 q 476 -57 476 -17 q 410 -158 476 -119 q 275 -196 356 -196 q 68 -64 135 -196 q 50 28 50 -26 q 119 188 50 122 q 183 235 151 217 l 196 242 q 222 258 201 244 q 235 266 226 261 q 247 272 244 271 q 299 316 282 294 q 315 374 315 338 q 310 419 315 381 l 368 431 q 375 374 375 399 q 353 293 375 329 q 305 240 331 257 q 238 198 279 222 q 178 161 196 174 q 108 26 108 107 q 214 -125 108 -79 q 275 -136 240 -136 q 404 -87 356 -136 q 418 -56 418 -71 q 385 -22 418 -22 q 378 -24 379 -22 l 363 35 l 376 36 l 386 36 z "},"À":{"ha":861,"x_min":17,"x_max":794,"o":"m 492 875 l 467 836 l 275 958 l 315 1014 l 492 875 m 81 92 q 117 61 90 61 q 150 83 142 61 l 443 763 l 464 763 l 794 0 l 724 0 l 618 253 l 290 253 l 208 56 q 117 -4 183 -4 q 51 21 81 -4 q 17 79 21 46 l 81 92 m 442 614 l 317 315 l 592 315 l 465 614 q 453 650 464 622 l 442 614 z "},"Á":{"ha":861,"x_min":17,"x_max":794,"o":"m 639 958 l 447 836 l 424 875 l 599 1014 l 639 958 m 81 92 q 117 61 90 61 q 150 83 142 61 l 443 763 l 464 763 l 794 0 l 724 0 l 618 253 l 290 253 l 208 56 q 117 -4 183 -4 q 51 21 81 -4 q 17 79 21 46 l 81 92 m 442 614 l 317 315 l 592 315 l 465 614 q 453 650 464 622 l 442 614 z "},"Â":{"ha":861,"x_min":17,"x_max":794,"o":"m 619 879 l 543 879 l 454 978 l 364 879 l 290 879 l 426 1036 l 481 1036 l 619 879 m 81 92 q 117 61 90 61 q 150 83 142 61 l 443 763 l 464 763 l 794 0 l 724 0 l 618 253 l 290 253 l 208 56 q 117 -4 183 -4 q 51 21 81 -4 q 17 79 21 46 l 81 92 m 442 614 l 317 315 l 592 315 l 465 614 q 453 650 464 622 l 442 614 z "},"Ã":{"ha":861,"x_min":17,"x_max":794,"o":"m 365 925 q 294 888 332 919 l 258 933 q 361 983 313 975 l 376 983 q 423 978 401 983 q 468 962 444 972 q 507 947 492 951 q 532 944 515 944 q 614 981 572 944 l 651 936 q 547 886 597 890 l 533 886 q 488 892 510 886 q 440 908 467 897 q 401 921 413 918 q 375 925 386 925 l 365 925 m 81 92 q 117 61 90 61 q 150 83 142 61 l 443 763 l 464 763 l 794 0 l 724 0 l 618 253 l 290 253 l 208 56 q 117 -4 183 -4 q 51 21 81 -4 q 17 79 21 46 l 81 92 m 442 614 l 317 315 l 592 315 l 465 614 q 453 650 464 622 l 442 614 z "},"Ä":{"ha":861,"x_min":17,"x_max":794,"o":"m 378 939 q 364 906 378 919 q 331 892 350 892 q 298 906 313 892 q 283 939 283 921 q 297 973 283 960 q 331 986 310 986 q 365 973 351 986 q 378 939 378 960 m 625 939 q 610 906 625 921 q 576 892 596 892 q 544 906 558 892 q 531 939 531 921 q 544 972 531 958 q 576 986 557 986 q 612 973 599 986 q 625 939 625 960 m 81 92 q 117 61 90 61 q 150 83 142 61 l 443 763 l 464 763 l 794 0 l 724 0 l 618 253 l 290 253 l 208 56 q 117 -4 183 -4 q 51 21 81 -4 q 17 79 21 46 l 81 92 m 592 315 l 465 614 q 453 650 464 622 l 442 614 l 317 315 l 592 315 z "},"Å":{"ha":861,"x_min":17,"x_max":794,"o":"m 342 926 q 372 1012 342 981 q 457 1043 403 1043 q 538 1012 508 1043 q 567 929 567 981 q 535 847 567 879 q 453 814 504 814 q 372 845 403 814 q 342 926 342 876 m 514 931 q 497 975 514 956 q 457 994 481 994 q 413 976 428 994 q 397 929 397 958 q 454 863 397 863 q 498 882 482 863 q 514 931 514 901 m 81 92 q 117 61 90 61 q 150 83 142 61 l 443 763 l 464 763 l 794 0 l 724 0 l 618 253 l 290 253 l 208 56 q 117 -4 183 -4 q 51 21 81 -4 q 17 79 21 46 l 81 92 m 442 614 l 317 315 l 592 315 l 465 614 q 453 650 464 622 l 442 614 z "},"Æ":{"ha":1039,"x_min":17,"x_max":961,"o":"m 939 697 l 508 697 l 508 433 l 861 433 l 861 369 l 508 369 l 508 64 l 961 64 l 961 0 l 442 0 l 442 253 l 228 253 l 97 0 l 17 0 l 415 760 l 939 760 l 939 697 m 442 692 l 429 653 q 403 590 421 625 l 260 315 l 442 315 l 442 692 z "},"Ç":{"ha":822,"x_min":44,"x_max":744,"o":"m 431 36 q 585 74 515 36 q 694 172 654 113 l 744 138 q 688 69 711 90 q 613 19 664 47 q 446 -25 542 -21 l 435 -78 q 492 -109 471 -82 q 514 -175 514 -136 q 483 -258 514 -225 q 401 -292 451 -292 l 401 -233 q 454 -171 454 -233 q 401 -129 454 -129 l 367 -129 l 378 -22 l 392 -22 q 156 93 256 -10 q 44 374 44 207 q 161 665 44 539 q 440 789 279 789 q 672 694 604 789 q 694 622 694 661 q 667 549 694 578 q 597 519 640 519 q 536 540 565 519 l 574 588 q 597 579 586 579 q 624 592 613 579 q 635 622 635 606 q 568 701 635 669 q 442 728 504 728 q 250 665 332 728 q 131 510 168 601 q 104 375 104 447 q 199 136 104 240 q 431 36 293 36 z "},"È":{"ha":719,"x_min":15,"x_max":642,"o":"m 425 872 l 400 835 l 208 957 l 249 1011 l 425 872 m 131 697 q 93 681 108 697 q 78 643 78 665 l 15 643 q 49 726 15 693 q 131 760 82 760 l 642 760 l 642 697 l 213 697 l 213 433 l 508 433 l 508 369 l 213 369 l 213 64 l 642 64 l 642 0 l 144 0 l 144 697 l 131 697 z "},"É":{"ha":719,"x_min":15,"x_max":642,"o":"m 572 957 l 381 835 l 357 872 l 532 1011 l 572 957 m 131 697 q 93 681 108 697 q 78 643 78 665 l 15 643 q 49 726 15 693 q 131 760 82 760 l 642 760 l 642 697 l 213 697 l 213 433 l 508 433 l 508 369 l 213 369 l 213 64 l 642 64 l 642 0 l 144 0 l 144 697 l 131 697 z "},"Ê":{"ha":719,"x_min":15,"x_max":642,"o":"m 553 876 l 476 876 l 388 975 l 297 876 l 224 876 l 360 1035 l 414 1035 l 553 876 m 131 697 q 93 681 108 697 q 78 643 78 665 l 15 643 q 49 726 15 693 q 131 760 82 760 l 642 760 l 642 697 l 213 697 l 213 433 l 508 433 l 508 369 l 213 369 l 213 64 l 642 64 l 642 0 l 144 0 l 144 697 l 131 697 z "},"Ë":{"ha":719,"x_min":15,"x_max":642,"o":"m 311 936 q 297 903 311 917 q 264 890 283 890 q 231 904 244 890 q 217 936 217 918 q 231 971 217 957 q 264 985 244 985 q 298 971 285 985 q 311 936 311 957 m 558 936 q 544 903 558 917 q 510 890 529 890 q 478 903 492 890 q 464 936 464 917 q 477 970 464 956 q 510 985 490 985 q 544 971 531 985 q 558 936 558 957 m 131 697 q 93 681 108 697 q 78 643 78 665 l 15 643 q 49 726 15 693 q 131 760 82 760 l 642 760 l 642 697 l 213 697 l 213 433 l 508 433 l 508 369 l 213 369 l 213 64 l 642 64 l 642 0 l 144 0 l 144 697 l 131 697 z "},"Ì":{"ha":226,"x_min":-82,"x_max":133,"o":"m 133 872 l 108 835 l -82 957 l -42 1011 l 133 872 m 128 0 l 60 0 l 60 760 l 128 760 l 128 0 z "},"Í":{"ha":226,"x_min":60,"x_max":281,"o":"m 281 957 l 90 835 l 65 872 l 242 1011 l 281 957 m 128 0 l 60 0 l 60 760 l 128 760 l 128 0 z "},"Î":{"ha":226,"x_min":-68,"x_max":261,"o":"m 261 876 l 186 876 l 97 975 l 7 876 l -68 876 l 69 1035 l 124 1035 l 261 876 m 128 0 l 60 0 l 60 760 l 128 760 l 128 0 z "},"Ï":{"ha":226,"x_min":-75,"x_max":267,"o":"m -75 936 q -60 970 -75 956 q -28 985 -46 985 q 6 972 -7 985 q 19 936 19 958 q 6 903 19 917 q -28 890 -8 890 q -60 904 -46 890 q -75 936 -75 918 m 172 936 q 186 971 172 957 q 219 985 200 985 q 253 971 240 985 q 267 936 267 957 q 253 903 267 917 q 219 890 239 890 q 186 904 200 890 q 172 936 172 918 m 60 760 l 128 760 l 128 0 l 60 0 l 60 760 z "},"Ð":{"ha":894,"x_min":15,"x_max":815,"o":"m 126 704 q 78 650 78 694 l 15 650 q 50 732 15 704 q 125 765 83 765 l 464 765 q 721 644 625 753 q 815 381 815 536 q 711 103 815 210 q 507 -4 619 11 q 371 -11 456 -11 l 340 -11 q 331 -10 338 -11 q 319 -8 324 -8 l 290 -8 q 247 -8 276 -8 q 207 -6 218 -7 l 176 -3 l 154 0 l 154 342 l 60 342 l 60 404 l 154 404 l 154 704 l 126 704 m 306 53 q 324 52 311 53 q 347 51 336 51 q 369 51 354 51 q 394 50 385 50 q 558 69 501 50 q 664 143 614 89 q 749 381 749 232 q 575 676 749 596 q 453 704 524 700 l 222 704 l 222 404 l 390 404 l 390 342 l 222 342 l 222 56 q 290 53 253 53 l 306 53 z "},"Ñ":{"ha":867,"x_min":15,"x_max":775,"o":"m 378 922 q 307 886 342 917 l 269 931 q 374 981 324 972 l 389 981 q 434 975 413 981 q 481 960 456 969 q 519 946 506 950 q 544 942 532 942 q 625 979 582 942 l 664 933 q 560 885 611 889 l 553 885 l 546 883 q 501 890 524 883 q 452 906 478 896 q 414 919 426 915 q 386 922 404 922 l 378 922 m 89 69 q 94 64 89 69 q 115 58 100 58 q 142 69 131 58 q 154 94 153 79 l 154 760 l 197 760 q 357 576 274 675 q 541 356 440 478 q 697 168 642 233 l 710 143 l 710 758 l 775 758 l 775 0 l 756 0 l 232 625 l 221 649 l 221 94 q 188 25 221 51 q 115 -4 158 -4 q 44 25 76 -4 q 15 96 15 56 l 78 96 q 89 69 78 81 z "},"Ò":{"ha":899,"x_min":44,"x_max":821,"o":"m 468 872 l 443 835 l 253 957 l 292 1011 l 468 872 m 44 367 l 44 388 q 153 661 44 543 q 432 785 267 785 q 708 664 593 785 q 821 388 821 551 l 821 367 q 714 92 821 211 q 436 -31 607 -31 q 160 88 278 -31 q 44 367 44 203 m 758 367 l 758 388 q 754 458 758 436 q 733 518 750 481 q 560 697 679 646 q 431 724 503 724 q 203 625 301 724 q 107 388 107 529 l 107 367 q 203 131 107 232 q 431 31 303 31 q 664 131 564 31 q 758 367 758 231 z "},"Ó":{"ha":899,"x_min":44,"x_max":821,"o":"m 615 957 l 425 835 l 400 872 l 575 1011 l 615 957 m 44 367 l 44 388 q 153 661 44 543 q 432 785 267 785 q 708 664 593 785 q 821 388 821 551 l 821 367 q 714 92 821 211 q 436 -31 607 -31 q 160 88 278 -31 q 44 367 44 203 m 758 367 l 758 388 q 754 458 758 436 q 733 518 750 481 q 560 697 679 646 q 431 724 503 724 q 203 625 301 724 q 107 388 107 529 l 107 367 q 203 131 107 232 q 431 31 303 31 q 664 131 564 31 q 758 367 758 231 z "},"Ô":{"ha":899,"x_min":44,"x_max":821,"o":"m 596 876 l 519 876 l 431 975 l 342 876 l 267 876 l 403 1035 l 458 1035 l 596 876 m 44 367 l 44 388 q 153 661 44 543 q 432 785 267 785 q 708 664 593 785 q 821 388 821 551 l 821 367 q 714 92 821 211 q 436 -31 607 -31 q 160 88 278 -31 q 44 367 44 203 m 758 367 l 758 388 q 754 458 758 436 q 733 518 750 481 q 560 697 679 646 q 431 724 503 724 q 203 625 301 724 q 107 388 107 529 l 107 367 q 203 131 107 232 q 431 31 303 31 q 664 131 564 31 q 758 367 758 231 z "},"Õ":{"ha":899,"x_min":44,"x_max":821,"o":"m 342 922 q 271 886 306 917 l 235 931 q 338 981 289 972 l 353 981 q 398 975 376 981 q 445 960 419 969 q 483 946 471 950 q 508 942 496 942 q 590 979 547 942 l 628 933 q 525 885 575 889 l 517 885 l 510 883 q 465 890 488 883 q 416 906 442 896 q 378 919 390 915 q 351 922 368 922 l 342 922 m 44 367 l 44 388 q 153 661 44 543 q 432 785 267 785 q 708 664 593 785 q 821 388 821 551 l 821 367 q 714 92 821 211 q 436 -31 607 -31 q 160 88 278 -31 q 44 367 44 203 m 758 367 l 758 388 q 754 458 758 436 q 733 518 750 481 q 560 697 679 646 q 431 724 503 724 q 203 625 301 724 q 107 388 107 529 l 107 367 q 203 131 107 232 q 431 31 303 31 q 664 131 564 31 q 758 367 758 231 z "},"Ö":{"ha":899,"x_min":44,"x_max":821,"o":"m 354 936 q 340 903 354 917 q 307 890 326 890 q 274 904 288 890 q 260 936 260 918 q 274 971 260 957 q 307 985 288 985 q 341 971 328 985 q 354 936 354 957 m 601 936 q 587 904 601 918 q 553 890 572 890 q 520 903 533 890 q 507 936 507 917 q 520 971 507 957 q 553 985 533 985 q 587 970 572 985 q 601 936 601 956 m 44 367 l 44 388 q 153 661 44 543 q 432 785 267 785 q 708 664 593 785 q 821 388 821 551 l 821 367 q 714 92 821 211 q 436 -31 607 -31 q 160 88 278 -31 q 44 367 44 203 m 758 367 l 758 388 q 754 458 758 436 q 733 518 750 481 q 560 697 679 646 q 431 724 503 724 q 203 625 301 724 q 107 388 107 529 l 107 367 q 203 131 107 232 q 431 31 303 31 q 664 131 564 31 q 758 367 758 231 z "},"×":{"ha":572,"x_min":58,"x_max":482,"o":"m 475 456 l 317 297 l 482 132 l 435 85 l 269 250 l 103 83 l 58 129 l 224 294 l 65 453 l 114 501 l 271 342 l 429 501 l 475 456 z "},"Ø":{"ha":899,"x_min":44,"x_max":821,"o":"m 436 -31 q 331 -15 386 -31 q 242 24 276 0 l 197 -49 l 129 -28 l 186 64 q 172 76 183 67 q 160 88 161 86 q 44 367 44 203 l 44 388 q 153 661 44 543 q 432 785 267 785 q 586 753 514 785 l 610 740 l 629 771 l 696 751 l 667 703 q 821 388 821 571 l 821 367 q 714 92 821 211 q 436 -31 607 -31 m 107 388 l 107 367 q 203 131 107 232 l 218 114 l 576 689 l 560 697 q 431 724 503 724 q 203 625 301 724 q 107 388 107 529 m 274 75 q 431 31 344 31 q 664 131 564 31 q 758 367 758 231 l 758 388 q 754 458 758 436 q 733 518 750 481 q 633 651 696 610 l 274 75 z "},"Ù":{"ha":829,"x_min":15,"x_max":742,"o":"m 481 872 l 456 835 l 264 957 l 304 1011 l 481 872 m 15 722 q 107 769 46 769 q 184 740 154 769 q 214 661 214 710 l 214 297 q 278 118 214 182 q 442 51 340 51 q 610 118 543 51 q 674 297 674 182 l 674 761 l 742 761 l 742 297 q 693 119 742 194 q 565 13 644 43 q 444 -10 507 -10 q 269 40 339 -10 q 168 174 200 89 q 147 297 147 232 l 147 661 l 146 674 q 133 694 146 686 q 106 703 121 703 q 71 685 83 703 l 15 722 z "},"Ú":{"ha":829,"x_min":15,"x_max":742,"o":"m 628 957 l 436 835 l 413 872 l 588 1011 l 628 957 m 15 722 q 107 769 46 769 q 184 740 154 769 q 214 661 214 710 l 214 297 q 278 118 214 182 q 442 51 340 51 q 610 118 543 51 q 674 297 674 182 l 674 761 l 742 761 l 742 297 q 693 119 742 194 q 565 13 644 43 q 444 -10 507 -10 q 269 40 339 -10 q 168 174 200 89 q 147 297 147 232 l 147 661 l 146 674 q 133 694 146 686 q 106 703 121 703 q 71 685 83 703 l 15 722 z "},"Û":{"ha":829,"x_min":15,"x_max":742,"o":"m 608 876 l 532 876 l 443 975 l 353 876 l 279 876 l 415 1035 l 469 1035 l 608 876 m 15 722 q 107 769 46 769 q 184 740 154 769 q 214 661 214 710 l 214 297 q 278 118 214 182 q 442 51 340 51 q 610 118 543 51 q 674 297 674 182 l 674 761 l 742 761 l 742 297 q 693 119 742 194 q 565 13 644 43 q 444 -10 507 -10 q 269 40 339 -10 q 168 174 200 89 q 147 297 147 232 l 147 661 l 146 674 q 133 694 146 686 q 106 703 121 703 q 71 685 83 703 l 15 722 z "},"Ü":{"ha":829,"x_min":15,"x_max":742,"o":"m 367 936 q 353 903 367 917 q 319 890 339 890 q 286 904 300 890 q 272 936 272 918 q 286 971 272 957 q 319 985 300 985 q 353 971 340 985 q 367 936 367 957 m 614 936 q 599 903 614 917 q 565 890 585 890 q 533 903 547 890 q 519 936 519 917 q 533 970 519 956 q 565 985 546 985 q 600 971 586 985 q 614 936 614 957 m 15 722 q 107 769 46 769 q 184 740 154 769 q 214 661 214 710 l 214 297 q 278 118 214 182 q 442 51 340 51 q 610 118 543 51 q 674 297 674 182 l 674 761 l 742 761 l 742 297 q 693 119 742 194 q 565 13 644 43 q 444 -10 507 -10 q 269 40 339 -10 q 168 174 200 89 q 147 297 147 232 l 147 661 l 146 674 q 133 694 146 686 q 106 703 121 703 q 71 685 83 703 l 15 722 z "},"Ý":{"ha":701,"x_min":15,"x_max":653,"o":"m 558 957 l 368 835 l 343 872 l 519 1011 l 558 957 m 118 706 q 94 696 104 706 q 81 672 83 686 l 15 679 q 49 744 19 717 q 118 771 78 771 q 208 718 178 771 l 379 407 l 575 761 l 653 761 l 415 332 l 415 0 l 342 0 l 346 331 l 150 686 q 118 706 138 706 z "},"Þ":{"ha":594,"x_min":58,"x_max":514,"o":"m 447 397 q 403 521 447 476 q 279 565 358 565 l 126 565 l 126 0 l 58 0 l 58 760 l 126 760 l 126 625 l 300 625 q 425 585 374 622 q 497 486 476 547 q 514 397 514 436 q 450 225 514 294 q 282 154 385 154 l 235 154 q 183 157 203 154 l 183 218 l 235 215 l 279 215 q 436 324 393 215 q 447 397 447 356 z "},"ß":{"ha":575,"x_min":58,"x_max":494,"o":"m 233 815 q 353 778 310 815 q 396 669 396 740 q 385 619 396 643 q 366 585 375 596 q 333 553 357 574 q 304 526 310 532 q 288 486 288 511 q 300 431 288 450 q 342 390 313 411 q 392 358 354 381 q 494 172 494 307 q 436 40 494 85 q 281 -11 375 -11 q 189 -8 214 -11 l 125 -3 l 119 -3 l 119 -278 l 58 -278 l 58 549 q 233 815 58 815 m 233 758 q 160 726 186 758 q 126 653 133 693 q 119 553 119 613 l 119 56 q 172 50 135 53 q 289 47 199 47 q 392 80 354 47 q 431 172 431 113 q 408 253 431 222 q 337 314 385 285 q 275 356 289 343 q 219 486 219 401 q 238 549 219 529 q 275 590 263 579 q 314 625 294 604 q 332 669 332 642 q 306 735 332 713 q 233 758 279 758 z "},"à":{"ha":681,"x_min":46,"x_max":632,"o":"m 342 676 l 317 639 l 125 761 l 165 815 l 342 676 m 511 89 q 524 63 511 75 q 550 50 536 50 q 582 68 569 50 l 632 33 q 550 -11 604 -11 q 483 15 511 -11 q 451 75 456 40 q 282 -11 401 -11 q 108 72 172 -11 q 46 275 46 149 q 88 441 46 371 q 197 542 129 511 q 304 564 250 564 q 450 554 393 564 l 511 554 l 511 89 m 282 47 q 403 91 356 47 q 450 208 450 135 l 450 497 q 392 503 439 497 q 306 507 357 507 q 164 443 218 507 q 108 278 108 383 q 135 149 108 207 q 207 67 161 92 q 282 47 236 47 z "},"á":{"ha":681,"x_min":46,"x_max":632,"o":"m 489 761 l 297 639 l 274 676 l 449 815 l 489 761 m 511 89 q 524 63 511 75 q 550 50 536 50 q 582 68 569 50 l 632 33 q 550 -11 604 -11 q 483 15 511 -11 q 451 75 456 40 q 282 -11 401 -11 q 108 72 172 -11 q 46 275 46 149 q 88 441 46 371 q 197 542 129 511 q 304 564 250 564 q 450 554 393 564 l 511 554 l 511 89 m 282 47 q 403 91 356 47 q 450 208 450 135 l 450 497 q 392 503 439 497 q 306 507 357 507 q 164 443 218 507 q 108 278 108 383 q 135 149 108 207 q 207 67 161 92 q 282 47 236 47 z "},"â":{"ha":681,"x_min":46,"x_max":632,"o":"m 469 681 l 393 681 l 304 781 l 214 681 l 140 681 l 276 839 l 331 839 l 469 681 m 511 89 q 524 63 511 75 q 550 50 536 50 q 582 68 569 50 l 632 33 q 550 -11 604 -11 q 483 15 511 -11 q 451 75 456 40 q 282 -11 401 -11 q 108 72 172 -11 q 46 275 46 149 q 88 441 46 371 q 197 542 129 511 q 304 564 250 564 q 450 554 393 564 l 511 554 l 511 89 m 282 47 q 403 91 356 47 q 450 208 450 135 l 450 497 q 392 503 439 497 q 306 507 357 507 q 164 443 218 507 q 108 278 108 383 q 135 149 108 207 q 207 67 161 92 q 282 47 236 47 z "},"ã":{"ha":681,"x_min":46,"x_max":632,"o":"m 215 726 q 144 690 179 721 l 108 736 q 211 786 163 778 l 226 786 q 305 767 258 786 q 382 747 351 747 q 464 783 424 747 l 501 738 q 397 689 449 693 l 390 689 l 383 688 q 338 694 361 688 q 290 710 315 700 q 251 724 264 719 q 225 726 242 726 l 215 726 m 511 89 q 524 63 511 75 q 550 50 536 50 q 582 68 569 50 l 632 33 q 550 -11 604 -11 q 483 15 511 -11 q 451 75 456 40 q 282 -11 401 -11 q 108 72 172 -11 q 46 275 46 149 q 88 441 46 371 q 197 542 129 511 q 304 564 250 564 q 450 554 393 564 l 511 554 l 511 89 m 282 47 q 403 91 356 47 q 450 208 450 135 l 450 497 q 392 503 439 497 q 306 507 357 507 q 164 443 218 507 q 108 278 108 383 q 135 149 108 207 q 207 67 161 92 q 282 47 236 47 z "},"ä":{"ha":681,"x_min":46,"x_max":632,"o":"m 214 775 q 221 768 214 775 q 228 742 228 761 q 214 708 228 722 q 181 694 200 694 q 147 708 161 694 q 133 742 133 722 q 147 775 133 761 q 181 789 161 789 q 214 775 200 789 m 460 775 q 468 768 460 775 q 475 742 475 761 q 460 708 475 722 q 426 694 446 694 q 394 708 407 694 q 381 742 381 722 q 394 776 381 763 q 426 789 407 789 q 460 775 446 789 m 511 89 q 524 63 511 75 q 550 50 536 50 q 582 68 569 50 l 632 33 q 550 -11 604 -11 q 483 15 511 -11 q 451 75 456 40 q 282 -11 401 -11 q 108 72 172 -11 q 46 275 46 149 q 88 441 46 371 q 197 542 129 511 q 304 564 250 564 q 450 554 393 564 l 511 554 l 511 89 m 282 47 q 403 91 356 47 q 450 208 450 135 l 450 497 q 392 503 439 497 q 306 507 357 507 q 164 443 218 507 q 108 278 108 383 q 135 149 108 207 q 207 67 161 92 q 282 47 236 47 z "},"å":{"ha":681,"x_min":46,"x_max":632,"o":"m 192 729 q 222 815 192 783 q 307 846 253 846 q 387 814 357 846 q 417 731 417 782 q 385 649 417 681 q 303 617 353 617 q 222 648 253 617 q 192 729 192 679 m 364 733 q 347 778 364 758 q 307 797 331 797 q 247 731 247 797 q 304 664 247 664 q 348 684 332 664 q 364 733 364 704 m 511 89 q 524 63 511 75 q 550 50 536 50 q 582 68 569 50 l 632 33 q 550 -11 604 -11 q 483 15 511 -11 q 451 75 456 40 q 282 -11 401 -11 q 108 72 172 -11 q 46 275 46 149 q 88 441 46 371 q 197 542 129 511 q 304 564 250 564 q 450 554 393 564 l 511 554 l 511 89 m 282 47 q 403 91 356 47 q 450 208 450 135 l 450 497 q 392 503 439 497 q 306 507 357 507 q 164 443 218 507 q 108 278 108 383 q 135 149 108 207 q 207 67 161 92 q 282 47 236 47 z "},"æ":{"ha":917,"x_min":44,"x_max":840,"o":"m 271 507 q 107 447 197 507 l 76 493 q 271 564 156 564 q 436 444 408 564 q 625 564 501 564 q 811 467 760 564 q 826 396 826 432 q 758 263 826 304 q 582 222 690 222 l 451 222 q 638 47 474 47 q 811 100 715 47 l 840 53 q 638 -11 753 -11 q 418 126 468 -11 q 403 81 415 110 q 386 53 394 61 q 222 -11 322 -11 q 94 31 143 -11 q 44 147 44 72 q 119 275 44 232 q 279 311 179 311 l 386 311 l 386 374 q 359 474 386 442 q 271 507 332 507 m 582 281 q 764 396 764 281 q 757 445 764 432 q 725 481 750 458 q 625 510 688 510 q 497 438 551 510 q 447 281 447 369 l 582 281 m 386 254 l 279 254 q 154 231 200 254 q 108 147 108 208 q 113 96 108 110 q 138 69 118 82 q 222 47 171 47 q 339 86 286 47 q 375 132 365 110 q 386 197 386 158 l 386 254 z "},"ç":{"ha":578,"x_min":46,"x_max":501,"o":"m 299 51 q 472 104 376 51 l 501 58 q 321 -6 419 -1 l 311 -54 q 369 -86 347 -58 q 390 -153 390 -114 q 358 -236 390 -203 q 278 -269 326 -269 l 278 -210 q 331 -147 331 -210 q 278 -106 331 -106 l 243 -106 l 254 -4 q 46 279 46 24 q 111 481 46 397 q 286 569 182 569 q 471 471 424 569 q 488 400 488 440 l 425 400 q 386 484 425 454 q 286 514 347 514 q 119 353 164 514 q 108 263 108 314 q 157 108 108 164 q 299 51 206 51 z "},"è":{"ha":579,"x_min":46,"x_max":501,"o":"m 324 676 l 299 639 l 108 761 l 147 815 l 324 676 m 299 47 q 472 100 376 47 l 501 53 q 299 -11 414 -11 q 46 275 46 -11 q 113 476 46 389 q 286 564 178 564 q 472 467 421 564 q 488 396 488 432 q 419 263 488 304 q 243 222 351 222 l 113 222 q 299 47 135 47 m 243 281 q 425 396 425 281 q 417 445 425 431 q 386 481 410 460 q 286 510 349 510 q 158 438 213 510 q 108 281 108 369 l 243 281 z "},"é":{"ha":579,"x_min":46,"x_max":501,"o":"m 471 761 l 281 639 l 256 676 l 431 815 l 471 761 m 299 47 q 472 100 376 47 l 501 53 q 299 -11 414 -11 q 46 275 46 -11 q 113 476 46 389 q 286 564 178 564 q 472 467 421 564 q 488 396 488 432 q 419 263 488 304 q 243 222 351 222 l 113 222 q 299 47 135 47 m 243 281 q 425 396 425 281 q 417 445 425 431 q 386 481 410 460 q 286 510 349 510 q 158 438 213 510 q 108 281 108 369 l 243 281 z "},"ê":{"ha":579,"x_min":46,"x_max":501,"o":"m 451 681 l 375 681 l 286 781 l 197 681 l 122 681 l 258 839 l 314 839 l 451 681 m 299 47 q 472 100 376 47 l 501 53 q 299 -11 414 -11 q 46 275 46 -11 q 113 476 46 389 q 286 564 178 564 q 472 467 421 564 q 488 396 488 432 q 419 263 488 304 q 243 222 351 222 l 113 222 q 299 47 135 47 m 243 281 q 425 396 425 281 q 417 445 425 431 q 386 481 410 460 q 286 510 349 510 q 158 438 213 510 q 108 281 108 369 l 243 281 z "},"ë":{"ha":579,"x_min":46,"x_max":501,"o":"m 196 775 q 203 768 196 775 q 210 742 210 761 q 196 708 210 722 q 163 694 182 694 q 129 708 143 694 q 115 742 115 722 q 129 775 115 761 q 163 789 143 789 q 196 775 182 789 m 442 775 q 450 768 442 775 q 457 742 457 761 q 442 708 457 722 q 408 694 428 694 q 376 708 389 694 q 363 742 363 722 q 376 776 363 763 q 408 789 389 789 q 442 775 428 789 m 299 47 q 472 100 376 47 l 501 53 q 299 -11 414 -11 q 46 275 46 -11 q 113 476 46 389 q 286 564 178 564 q 472 467 421 564 q 488 396 488 432 q 419 263 488 304 q 243 222 351 222 l 113 222 q 299 47 135 47 m 243 281 q 425 396 425 281 q 417 445 425 431 q 386 481 410 460 q 286 510 349 510 q 158 438 213 510 q 108 281 108 369 l 243 281 z "},"ì":{"ha":263,"x_min":-100,"x_max":231,"o":"m 115 668 l 92 631 l -100 753 l -60 807 l 115 668 m 147 -11 q 76 18 106 -11 q 47 89 47 47 l 47 556 l 108 556 l 108 89 q 120 61 108 72 q 147 50 132 50 q 179 67 167 50 l 231 33 q 147 -11 199 -11 z "},"í":{"ha":263,"x_min":47,"x_max":264,"o":"m 264 753 l 72 631 l 47 668 l 224 807 l 264 753 m 147 -11 q 76 18 106 -11 q 47 89 47 47 l 47 556 l 108 556 l 108 89 q 120 61 108 72 q 147 50 132 50 q 179 67 167 50 l 231 33 q 147 -11 199 -11 z "},"î":{"ha":263,"x_min":-86,"x_max":243,"o":"m 243 672 l 168 672 l 79 771 l -11 672 l -86 672 l 51 831 l 106 831 l 243 672 m 147 -11 q 76 18 106 -11 q 47 89 47 47 l 47 556 l 108 556 l 108 89 q 120 61 108 72 q 147 50 132 50 q 179 67 167 50 l 231 33 q 147 -11 199 -11 z "},"ï":{"ha":263,"x_min":-92,"x_max":249,"o":"m -92 732 q -78 766 -92 751 q -46 781 -65 781 q -11 767 -25 781 q 3 732 3 753 q -12 699 3 713 q -46 686 -26 686 q -78 700 -64 686 q -92 732 -92 714 m 154 732 q 169 766 154 751 q 201 781 183 781 q 235 767 222 781 q 249 732 249 754 q 235 699 249 713 q 201 686 221 686 q 169 700 183 686 q 154 732 154 714 m 147 -11 q 76 18 106 -11 q 47 89 47 47 l 47 556 l 108 556 l 108 89 q 120 61 108 72 q 147 50 132 50 q 179 67 167 50 l 231 33 q 147 -11 199 -11 z "},"ð":{"ha":675,"x_min":46,"x_max":579,"o":"m 453 715 l 563 749 l 579 688 l 475 654 l 539 464 q 575 269 575 356 q 425 8 575 69 q 322 -11 382 -11 q 65 160 133 -11 q 46 275 46 208 q 122 481 46 404 q 322 564 201 564 q 440 553 376 564 l 413 635 l 307 601 l 290 663 l 392 696 l 347 811 l 411 831 l 453 715 m 322 47 q 461 106 413 47 q 510 261 510 165 q 475 450 510 356 l 461 490 l 426 497 l 386 503 l 350 507 l 322 507 q 168 443 232 507 q 108 278 108 383 q 142 144 108 199 q 235 64 176 90 q 322 47 272 47 z "},"ñ":{"ha":676,"x_min":33,"x_max":628,"o":"m 231 726 q 160 690 194 721 l 124 736 q 226 786 178 778 l 242 786 q 320 769 274 786 q 372 750 367 751 q 397 747 381 747 q 479 783 439 747 l 517 738 q 414 689 464 693 l 406 689 l 399 688 q 353 694 376 688 q 305 710 331 700 q 267 724 279 719 q 240 726 257 726 l 231 726 m 446 374 q 319 507 446 507 q 219 476 263 507 q 139 394 174 444 l 139 0 l 78 0 l 78 392 q 33 525 78 481 l 71 561 q 132 458 122 524 q 319 564 204 564 q 507 403 499 564 l 507 86 q 519 60 507 72 q 546 47 531 47 q 578 64 565 47 l 628 31 q 546 -14 599 -14 q 474 15 503 -14 q 446 86 446 43 l 446 374 z "},"ò":{"ha":676,"x_min":46,"x_max":597,"o":"m 358 676 l 335 639 l 143 761 l 183 815 l 358 676 m 322 564 q 483 516 415 564 q 578 392 550 468 q 597 278 597 343 q 553 110 597 179 q 435 10 510 40 q 322 -11 385 -11 q 122 69 193 -11 q 46 275 46 150 q 122 481 46 404 q 322 564 201 564 m 322 507 q 168 443 232 507 q 108 278 108 383 q 235 64 108 119 q 322 47 272 47 q 447 85 397 47 q 519 185 497 122 q 535 281 535 228 q 478 445 535 383 q 322 507 421 507 z "},"ó":{"ha":676,"x_min":46,"x_max":597,"o":"m 507 761 l 315 639 l 292 676 l 467 815 l 507 761 m 322 564 q 483 516 415 564 q 578 392 550 468 q 597 278 597 343 q 553 110 597 179 q 435 10 510 40 q 322 -11 385 -11 q 122 69 193 -11 q 46 275 46 150 q 122 481 46 404 q 322 564 201 564 m 322 507 q 168 443 232 507 q 108 278 108 383 q 235 64 108 119 q 322 47 272 47 q 447 85 397 47 q 519 185 497 122 q 535 281 535 228 q 478 445 535 383 q 322 507 421 507 z "},"ô":{"ha":676,"x_min":46,"x_max":597,"o":"m 486 681 l 411 681 l 322 781 l 232 681 l 158 681 l 294 839 l 349 839 l 486 681 m 322 564 q 483 516 415 564 q 578 392 550 468 q 597 278 597 343 q 553 110 597 179 q 435 10 510 40 q 322 -11 385 -11 q 122 69 193 -11 q 46 275 46 150 q 122 481 46 404 q 322 564 201 564 m 322 507 q 168 443 232 507 q 108 278 108 383 q 235 64 108 119 q 322 47 272 47 q 447 85 397 47 q 519 185 497 122 q 535 281 535 228 q 478 445 535 383 q 322 507 421 507 z "},"õ":{"ha":676,"x_min":46,"x_max":597,"o":"m 233 726 q 163 690 197 721 l 125 736 q 229 786 179 778 l 244 786 q 323 767 276 786 q 400 747 369 747 q 481 783 440 747 l 519 738 q 415 689 467 693 l 408 689 l 401 688 q 356 694 379 688 q 308 710 333 700 q 269 724 282 719 q 242 726 260 726 l 233 726 m 322 564 q 483 516 415 564 q 578 392 550 468 q 597 278 597 343 q 553 110 597 179 q 435 10 510 40 q 322 -11 385 -11 q 122 69 193 -11 q 46 275 46 150 q 122 481 46 404 q 322 564 201 564 m 322 507 q 168 443 232 507 q 108 278 108 383 q 235 64 108 119 q 322 47 272 47 q 447 85 397 47 q 519 185 497 122 q 535 281 535 228 q 478 445 535 383 q 322 507 421 507 z "},"ö":{"ha":676,"x_min":46,"x_max":597,"o":"m 231 775 q 239 768 231 775 q 246 742 246 761 q 231 708 246 722 q 197 694 217 694 q 165 708 178 694 q 151 742 151 722 q 165 776 151 763 q 197 789 178 789 q 231 775 217 789 m 478 775 q 485 768 478 775 q 492 742 492 761 q 478 708 492 722 q 444 694 464 694 q 411 708 425 694 q 397 742 397 722 q 411 775 397 761 q 444 789 425 789 q 478 775 464 789 m 322 564 q 483 516 417 564 q 578 392 550 468 q 597 278 597 343 q 553 110 597 179 q 435 10 510 40 q 322 -11 385 -11 q 122 69 193 -11 q 46 275 46 150 q 122 481 46 404 q 322 564 201 564 m 410 64 q 535 281 535 125 q 478 445 535 383 q 322 507 421 507 q 168 443 232 507 q 108 278 108 383 q 235 64 108 119 q 322 47 272 47 q 410 64 371 47 z "},"÷":{"ha":544,"x_min":49,"x_max":463,"o":"m 203 492 q 218 528 203 513 q 254 543 233 543 q 292 528 278 543 q 307 492 307 514 q 291 456 307 471 q 254 440 275 440 q 219 456 235 440 q 203 492 203 472 m 463 297 l 49 297 l 49 354 l 463 354 l 463 297 m 203 158 q 218 195 203 179 q 254 211 233 211 q 292 197 278 211 q 307 158 307 182 q 291 123 307 138 q 254 108 275 108 q 219 124 235 108 q 203 158 203 139 z "},"ø":{"ha":676,"x_min":46,"x_max":597,"o":"m 322 564 q 453 535 400 564 l 478 576 l 532 543 l 503 501 q 597 278 597 424 q 553 111 597 181 q 435 11 510 42 q 322 -11 383 -11 q 190 19 246 -11 l 165 -24 l 111 10 l 140 51 q 46 275 46 128 q 122 481 46 404 q 322 564 201 564 m 169 101 l 419 488 q 322 507 368 507 q 168 443 232 507 q 108 278 108 383 q 169 101 108 163 m 474 453 l 224 65 q 322 47 268 47 q 476 113 415 47 q 535 281 535 171 q 474 453 535 396 z "},"ù":{"ha":693,"x_min":33,"x_max":644,"o":"m 331 668 l 307 631 l 115 753 l 156 807 l 331 668 m 94 432 q 74 477 94 453 q 33 514 53 501 l 67 564 q 147 475 125 524 q 156 432 156 454 l 156 182 q 185 81 156 114 q 281 49 215 49 q 382 78 340 49 q 463 160 425 111 l 463 556 l 522 556 l 522 88 q 535 61 522 74 q 561 49 547 49 q 593 65 581 49 l 644 31 q 561 -12 611 -12 q 492 17 521 -12 q 461 86 464 46 q 281 -8 392 -8 q 94 153 103 -8 l 94 432 z "},"ú":{"ha":693,"x_min":33,"x_max":644,"o":"m 479 753 l 288 631 l 264 668 l 439 807 l 479 753 m 94 432 q 74 477 94 453 q 33 514 53 501 l 67 564 q 147 475 125 524 q 156 432 156 454 l 156 182 q 185 81 156 114 q 281 49 215 49 q 382 78 340 49 q 463 160 425 111 l 463 556 l 522 556 l 522 88 q 535 61 522 74 q 561 49 547 49 q 593 65 581 49 l 644 31 q 561 -12 611 -12 q 492 17 521 -12 q 461 86 464 46 q 281 -8 392 -8 q 94 153 103 -8 l 94 432 z "},"û":{"ha":693,"x_min":33,"x_max":644,"o":"m 458 672 l 383 672 l 294 771 l 204 672 l 131 672 l 267 831 l 321 831 l 458 672 m 94 432 q 74 477 94 453 q 33 514 53 501 l 67 564 q 147 475 125 524 q 156 432 156 454 l 156 182 q 185 81 156 114 q 281 49 215 49 q 382 78 340 49 q 463 160 425 111 l 463 556 l 522 556 l 522 88 q 535 61 522 74 q 561 49 547 49 q 593 65 581 49 l 644 31 q 561 -12 611 -12 q 492 17 521 -12 q 461 86 464 46 q 281 -8 392 -8 q 94 153 103 -8 l 94 432 z "},"ü":{"ha":693,"x_min":33,"x_max":644,"o":"m 218 732 q 203 699 218 713 q 169 686 189 686 q 137 700 150 686 q 124 732 124 714 q 137 766 124 751 q 169 781 150 781 q 204 767 190 781 q 218 732 218 753 m 464 732 q 450 699 464 713 q 417 686 436 686 q 384 700 399 686 q 369 732 369 714 q 384 766 369 751 q 417 781 399 781 q 451 767 438 781 q 464 732 464 754 m 522 88 q 535 61 522 74 q 561 49 547 49 q 593 65 581 49 l 644 31 q 561 -12 611 -12 q 492 17 521 -12 q 461 86 464 46 q 281 -8 392 -8 q 94 153 103 -8 l 94 432 q 74 477 94 453 q 33 514 53 501 l 67 564 q 147 475 125 524 q 156 432 156 454 l 156 182 q 185 81 156 114 q 281 49 215 49 q 382 78 340 49 q 463 160 425 111 l 463 556 l 522 556 l 522 88 z "},"ý":{"ha":615,"x_min":33,"x_max":522,"o":"m 492 753 l 301 631 l 276 668 l 453 807 l 492 753 m 67 564 q 156 432 156 500 l 156 182 q 185 81 156 114 q 281 49 215 49 q 372 74 335 49 q 446 140 411 97 l 456 161 q 463 190 461 176 l 463 556 l 522 556 l 522 -131 q 477 -267 522 -218 q 350 -317 432 -317 q 204 -207 249 -317 q 193 -143 193 -181 q 249 -8 193 -49 q 94 153 94 7 l 94 432 q 74 477 94 453 q 33 514 53 501 l 67 564 m 350 -258 q 434 -224 404 -258 q 464 -135 464 -190 l 464 65 l 451 54 q 392 13 428 31 l 336 -17 q 274 -66 294 -39 q 253 -142 253 -93 q 278 -225 253 -192 q 350 -258 304 -258 z "},"þ":{"ha":601,"x_min":58,"x_max":524,"o":"m 264 -10 q 119 0 176 -10 l 119 -276 l 58 -276 l 58 807 l 119 807 l 119 619 q 114 475 114 514 q 286 565 172 565 q 462 485 400 565 q 524 281 524 406 q 482 114 524 183 q 371 13 440 44 q 264 -10 318 -10 m 119 58 l 178 51 q 264 47 215 47 q 406 111 351 47 q 460 276 460 169 q 363 488 460 428 q 286 508 331 508 q 199 485 239 508 q 140 428 160 463 q 119 365 124 400 l 119 58 z "},"ÿ":{"ha":615,"x_min":33,"x_max":522,"o":"m 231 732 q 217 699 231 713 q 183 686 203 686 q 151 700 165 686 q 136 732 136 714 q 151 766 136 751 q 183 781 165 781 q 217 767 204 781 q 231 732 231 754 m 478 732 q 464 699 478 713 q 431 686 450 686 q 397 700 411 686 q 383 732 383 714 q 397 767 383 753 q 431 781 411 781 q 465 767 451 781 q 478 732 478 753 m 156 182 q 185 81 156 114 q 281 49 215 49 q 372 74 335 49 q 446 140 411 97 l 457 161 q 463 190 460 168 l 463 556 l 522 556 l 522 -131 q 477 -267 522 -218 q 350 -317 432 -317 q 204 -207 249 -317 q 193 -143 193 -181 q 249 -8 193 -49 q 94 153 94 7 l 94 432 q 74 477 94 453 q 33 514 53 501 l 67 564 q 147 475 125 524 q 156 432 156 454 l 156 182 m 350 -258 q 434 -224 404 -258 q 464 -135 464 -190 l 464 65 l 451 54 q 392 13 428 31 l 336 -17 q 274 -66 294 -39 q 253 -142 253 -93 q 278 -225 253 -192 q 350 -258 304 -258 z "},"ʼ":{"ha":233,"x_min":40,"x_max":156,"o":"m 85 669 l 85 736 q 94 763 85 751 q 119 772 104 772 q 146 763 136 772 q 156 736 156 751 l 156 669 q 138 576 156 618 q 78 500 118 528 l 40 536 q 85 669 85 581 z "},"ऀ":{"ha":0,"x_min":-404,"x_max":-46,"o":"m -225 708 l -286 769 l -225 829 l -164 769 l -225 708 m -107 760 q -142 831 -107 803 q -225 858 -176 858 q -308 831 -274 858 q -343 760 -343 803 l -404 760 q -349 870 -404 826 q -225 914 -294 914 q -101 870 -156 914 q -46 760 -46 826 l -107 760 z "},"ँ":{"ha":0,"x_min":-403,"x_max":-43,"o":"m -104 858 l -43 858 q -98 748 -43 792 q -222 704 -153 704 q -348 748 -293 704 q -403 858 -403 792 l -342 858 q -306 788 -342 815 q -222 760 -271 760 q -140 788 -175 760 q -104 858 -104 815 m -222 793 l -283 854 l -222 914 l -162 854 l -222 793 z "},"ं":{"ha":0,"x_min":-260,"x_max":-140,"o":"m -200 790 l -260 851 l -200 911 l -140 851 l -200 790 z "},"ः":{"ha":219,"x_min":50,"x_max":169,"o":"m 110 396 l 50 457 l 110 517 l 169 457 l 110 396 m 110 128 l 50 189 l 110 249 l 169 189 l 110 128 z "},"ऄ":{"ha":900,"x_min":33,"x_max":924,"o":"m 521 253 q 465 130 521 178 q 329 82 408 82 q 151 144 232 82 q 33 294 71 207 l 89 319 q 185 196 119 249 q 329 143 251 143 q 421 174 382 143 q 460 253 460 204 q 444 317 460 292 q 399 352 429 342 q 340 366 368 363 q 268 369 311 369 l 257 369 l 257 429 l 268 429 q 366 458 335 429 q 397 525 397 486 q 366 590 397 564 q 292 615 335 615 q 164 546 213 615 l 114 579 q 189 649 142 621 q 292 676 236 676 q 408 633 358 676 q 458 525 458 589 q 413 418 458 464 q 464 381 439 406 q 564 340 507 340 q 685 403 638 340 l 685 582 l 558 582 l 558 643 l 685 643 q 669 705 685 690 q 603 719 653 719 l 482 719 q 376 755 413 719 q 339 858 339 790 l 400 858 q 417 797 400 811 q 482 782 433 782 l 603 782 q 709 747 672 782 q 746 643 746 711 l 924 643 l 924 582 l 746 582 l 746 92 q 757 65 746 76 q 783 53 768 53 q 815 69 806 53 l 867 36 q 783 -8 838 -8 q 713 22 742 -8 q 685 92 685 51 l 685 324 q 564 285 631 285 q 518 290 546 285 q 521 253 521 281 z "},"अ":{"ha":900,"x_min":33,"x_max":924,"o":"m 521 253 q 465 130 521 178 q 329 82 408 82 q 151 144 232 82 q 33 294 71 207 l 89 319 q 185 196 119 249 q 329 143 251 143 q 421 174 382 143 q 460 253 460 204 q 444 317 460 292 q 399 352 429 342 q 340 366 368 363 q 268 369 311 369 l 257 369 l 257 429 l 268 429 q 366 458 335 429 q 397 525 397 486 q 366 590 397 564 q 292 615 335 615 q 164 546 213 615 l 114 579 q 189 649 142 621 q 292 676 236 676 q 408 633 358 676 q 458 525 458 589 q 413 418 458 464 q 464 381 439 406 q 564 340 507 340 q 685 403 638 340 l 685 582 l 558 582 l 558 643 l 924 643 l 924 582 l 746 582 l 746 92 q 757 65 746 76 q 783 53 768 53 q 815 69 806 53 l 867 36 q 783 -8 838 -8 q 713 22 742 -8 q 685 92 685 51 l 685 324 q 564 285 631 285 q 518 290 546 285 q 521 253 521 281 z "},"आ":{"ha":1158,"x_min":33,"x_max":1181,"o":"m 1042 -8 q 972 22 1001 -8 q 942 92 942 51 l 942 582 l 924 582 l 826 582 l 746 582 l 746 92 q 757 65 746 76 q 783 53 768 53 q 815 69 806 53 l 867 36 q 783 -8 838 -8 q 713 22 742 -8 q 685 92 685 51 l 685 324 q 564 285 631 285 q 518 290 546 285 q 521 253 521 281 q 465 130 521 178 q 329 82 408 82 q 151 144 232 82 q 33 294 71 207 l 89 319 q 185 196 119 249 q 329 143 251 143 q 421 174 382 143 q 460 253 460 204 q 444 317 460 292 q 399 352 429 342 q 340 366 368 363 q 268 369 311 369 l 257 369 l 257 429 l 268 429 q 366 458 335 429 q 397 525 397 486 q 366 590 397 564 q 292 615 335 615 q 164 546 213 615 l 114 579 q 189 649 142 621 q 292 676 236 676 q 408 633 358 676 q 458 525 458 589 q 413 418 458 464 q 464 381 439 406 q 564 340 507 340 q 685 403 638 340 l 685 582 l 558 582 l 558 643 l 826 643 l 924 643 l 1181 643 l 1181 582 l 1003 582 l 1003 92 q 1015 65 1003 76 q 1042 53 1026 53 q 1074 69 1064 53 l 1125 36 q 1042 -8 1096 -8 z "},"इ":{"ha":594,"x_min":-17,"x_max":613,"o":"m 183 165 q 157 155 168 165 q 146 129 146 144 q 239 56 146 75 q 242 86 242 65 q 226 142 242 118 q 183 165 210 165 m -17 643 l 613 643 l 613 582 l 486 582 l 486 501 l 486 446 l 425 446 l 269 446 q 202 435 221 446 q 183 394 183 424 q 243 315 183 369 l 353 315 q 499 274 443 315 q 556 156 556 232 q 490 28 556 72 q 331 -17 424 -17 q 279 -14 296 -17 q 150 -147 240 -97 l 119 -94 q 217 -3 183 -58 q 85 129 85 33 q 114 198 85 169 q 183 226 143 226 q 270 185 238 226 q 303 86 303 144 q 299 46 303 67 q 331 44 308 44 q 435 67 392 44 q 492 132 479 89 q 494 156 494 140 q 400 251 494 236 q 346 254 383 254 l 225 254 q 202 272 221 258 q 173 296 183 286 q 149 322 163 306 q 128 358 135 339 q 121 397 121 376 q 269 501 121 501 l 425 501 l 425 582 l -17 582 l -17 643 z "},"ई":{"ha":594,"x_min":-17,"x_max":613,"o":"m 183 165 q 157 155 168 165 q 146 129 146 144 q 239 56 146 75 q 242 86 242 65 q 226 142 242 118 q 183 165 210 165 m 567 822 l 522 781 q 467 806 500 806 q 424 790 440 806 q 407 747 407 774 q 475 643 407 689 l 613 643 l 613 582 l 486 582 l 486 446 l 269 446 q 202 435 221 446 q 183 394 183 424 q 243 315 183 369 l 347 315 q 499 274 442 315 q 556 156 556 232 q 490 28 556 72 q 331 -17 424 -17 q 279 -14 296 -17 q 150 -147 240 -97 l 119 -94 q 217 -3 183 -58 q 85 129 85 33 q 114 198 85 169 q 183 226 143 226 q 270 185 238 226 q 303 86 303 144 q 299 46 303 67 q 331 44 308 44 q 435 67 392 44 q 492 132 479 89 q 494 156 494 140 q 400 251 494 236 q 346 254 383 254 l 225 254 q 202 272 221 258 q 173 296 183 286 q 149 322 163 306 q 128 358 135 339 q 121 397 121 376 q 269 501 121 501 l 426 501 l 426 582 l -17 582 l -17 643 l 386 643 q 346 747 346 690 q 381 833 346 799 q 467 867 415 867 q 567 822 525 867 z "},"उ":{"ha":550,"x_min":-17,"x_max":574,"o":"m -17 582 l -17 643 l 574 643 l 574 582 l 399 582 q 425 497 425 539 q 372 381 425 429 q 471 306 433 357 q 508 186 508 254 q 453 53 508 108 q 319 -3 399 -3 q 213 22 263 -3 q 131 87 164 46 q 76 168 97 128 q 39 253 54 208 l 97 269 q 183 117 126 181 q 319 53 240 53 q 410 91 372 53 q 447 186 447 129 q 400 298 447 254 q 283 342 353 342 l 231 342 l 231 397 l 281 397 q 340 431 315 404 q 364 497 364 458 q 319 582 364 553 l -17 582 z "},"ऊ":{"ha":810,"x_min":-17,"x_max":832,"o":"m 231 342 l 231 397 l 281 397 q 340 431 315 404 q 364 497 364 458 q 319 582 364 553 l -17 582 l -17 643 l 832 643 l 832 582 l 399 582 q 425 497 425 539 q 372 381 425 429 q 482 289 443 353 q 611 358 531 358 q 729 306 682 358 q 776 186 776 254 q 727 60 776 114 q 608 -3 678 7 l 599 -4 l 599 53 q 681 97 646 60 q 715 186 715 135 q 684 269 715 235 q 611 303 653 303 q 551 280 576 303 q 514 221 525 257 q 508 186 511 208 q 453 53 508 108 q 319 -3 399 -3 q 213 22 263 -3 q 131 87 164 46 q 76 168 97 128 q 39 253 54 208 l 97 269 q 183 117 126 181 q 319 53 240 53 q 410 91 372 53 q 447 186 447 129 q 400 298 447 254 q 283 342 353 342 l 231 342 z "},"ऋ":{"ha":811,"x_min":-17,"x_max":828,"o":"m 568 361 q 610 377 596 371 q 638 400 624 383 q 653 439 653 417 q 640 472 653 458 q 607 486 626 486 q 565 465 582 486 q 547 417 547 443 q 568 361 547 383 m 606 308 q 650 274 618 297 q 700 234 682 250 q 734 188 718 218 q 750 124 750 158 q 714 33 750 72 q 626 -8 678 -6 l 622 53 q 669 76 650 56 q 689 124 689 96 q 677 165 689 146 q 654 193 665 183 q 622 217 643 203 q 539 288 565 257 l 419 250 l 419 92 q 431 65 419 76 q 458 53 443 53 q 490 69 481 53 l 542 36 q 458 -8 513 -8 q 388 22 418 -8 q 358 92 358 51 l 358 232 l 119 164 l 103 224 l 304 281 q 281 322 296 299 q 234 377 265 346 q 171 419 203 408 q 72 429 139 429 l 72 490 q 189 476 144 490 q 277 422 236 463 q 333 353 318 381 q 358 301 347 326 l 358 582 l -17 582 l -17 643 l 828 643 l 828 582 l 419 582 l 419 314 l 507 342 q 486 417 486 375 q 521 508 486 469 q 607 547 556 547 q 683 515 651 547 q 714 439 714 483 q 683 357 714 390 q 606 308 653 324 z "},"ऌ":{"ha":786,"x_min":-17,"x_max":803,"o":"m -17 643 l 803 643 l 803 582 l 511 582 l 511 469 q 614 422 572 461 q 669 292 669 371 q 647 202 669 243 q 597 138 625 161 q 531 83 568 114 q 478 28 494 51 q 453 -43 453 -7 q 490 -122 453 -92 q 575 -151 526 -151 q 649 -127 618 -151 q 679 -64 679 -103 q 676 -42 679 -49 l 735 -25 q 740 -64 740 -50 q 692 -172 740 -131 q 575 -212 643 -212 q 447 -165 501 -212 q 392 -43 392 -117 q 488 125 392 44 q 513 146 493 129 q 542 169 533 163 q 566 193 550 176 q 589 222 582 210 q 602 253 596 235 q 608 292 608 272 q 571 376 608 342 q 482 411 533 411 q 386 372 425 411 q 347 276 347 333 l 286 276 q 315 383 286 338 q 236 417 282 417 q 142 372 178 417 q 106 265 106 328 q 138 149 106 208 q 279 8 185 63 l 249 -46 q 83 119 140 15 q 44 265 44 190 q 74 382 44 332 q 153 457 103 432 q 236 478 190 478 q 357 429 306 478 q 450 469 394 461 l 450 582 l -17 582 l -17 643 z "},"ऍ":{"ha":596,"x_min":-22,"x_max":619,"o":"m -22 643 l 619 643 l 619 582 l 508 582 l 508 358 q 479 288 508 317 q 408 258 450 258 l 408 319 q 435 332 422 319 q 447 358 447 344 l 447 582 l 175 582 l 175 367 q 176 338 175 351 q 181 312 178 324 q 187 291 185 300 q 197 272 189 282 q 208 256 204 261 q 222 240 211 250 q 235 226 232 229 q 252 211 239 224 q 269 196 265 199 l 439 42 q 468 -28 468 15 q 438 -98 468 -69 q 367 -126 408 -126 l 367 -65 q 406 -28 403 -65 q 396 0 406 -10 l 228 151 q 165 209 182 192 q 131 268 149 226 q 114 367 114 310 l 114 582 l -22 582 l -22 643 m 421 858 l 482 858 q 427 748 482 792 q 303 704 372 704 q 177 748 232 704 q 122 858 122 792 l 183 858 q 219 788 183 815 q 303 760 254 760 q 385 788 350 760 q 421 858 421 815 z "},"ऎ":{"ha":596,"x_min":-22,"x_max":619,"o":"m 164 858 q 181 797 164 811 q 246 782 199 782 l 365 782 q 474 746 438 782 q 508 643 508 711 l 619 643 l 619 582 l 508 582 l 508 358 q 479 288 508 317 q 408 258 450 258 l 408 319 q 435 332 422 319 q 447 358 447 344 l 447 582 l 175 582 l 175 367 q 176 338 175 351 q 181 312 178 324 q 187 291 185 300 q 197 272 189 282 q 208 256 204 261 q 222 240 211 250 q 235 226 232 229 q 252 211 239 224 q 269 196 265 199 l 439 42 q 468 -28 468 15 q 438 -98 468 -69 q 367 -126 408 -126 l 367 -65 q 406 -28 403 -65 q 396 0 406 -10 l 228 151 q 165 209 182 192 q 131 268 149 226 q 114 367 114 310 l 114 582 l -22 582 l -22 643 l 447 643 q 432 704 447 689 q 365 719 417 719 l 246 719 q 138 757 175 719 q 103 858 103 792 l 164 858 z "},"ए":{"ha":528,"x_min":-22,"x_max":550,"o":"m -22 643 l 550 643 l 550 582 l 460 582 l 460 358 q 431 288 460 317 q 360 258 401 258 l 360 319 q 387 332 375 319 q 399 358 399 344 l 399 582 l 126 582 l 126 367 q 128 340 126 353 q 131 317 129 326 q 137 297 132 307 q 144 280 142 286 q 153 264 146 274 q 163 250 160 254 q 176 236 165 246 q 189 224 186 226 q 204 210 192 221 q 219 196 217 199 l 390 42 q 419 -28 419 15 q 390 -98 419 -69 q 318 -126 360 -126 l 318 -65 q 357 -28 354 -65 q 347 0 357 -10 l 179 151 q 117 209 133 192 q 83 268 100 226 q 65 367 65 310 l 65 582 l -22 582 l -22 643 z "},"ऐ":{"ha":596,"x_min":-22,"x_max":619,"o":"m 438 643 l 283 911 l 336 942 l 508 643 l 619 643 l 619 582 l 508 582 l 508 358 q 479 288 508 317 q 408 258 450 258 l 408 319 q 435 332 422 319 q 447 358 447 344 l 447 582 l 175 582 l 175 367 q 176 338 175 351 q 181 312 178 324 q 187 291 185 300 q 197 272 189 282 q 208 256 204 261 q 222 240 211 250 q 235 226 232 229 q 252 211 239 224 q 269 196 265 199 l 439 42 q 468 -28 468 15 q 438 -98 468 -69 q 367 -126 408 -126 l 367 -65 q 406 -28 403 -65 q 396 0 406 -10 l 228 151 q 165 209 182 192 q 131 268 149 226 q 114 367 114 310 l 114 582 l -22 582 l -22 643 l 438 643 z "},"ऑ":{"ha":1158,"x_min":33,"x_max":1181,"o":"m 929 831 l 992 831 q 937 720 992 764 q 811 676 882 676 q 685 720 740 676 q 631 831 631 764 l 693 831 q 728 760 693 788 q 811 732 763 732 q 894 760 860 732 q 929 831 929 788 m 1042 -8 q 972 22 1001 -8 q 942 92 942 51 l 942 582 l 924 582 l 826 582 l 746 582 l 746 92 q 757 65 746 76 q 783 53 768 53 q 815 69 806 53 l 867 36 q 783 -8 838 -8 q 713 22 742 -8 q 685 92 685 51 l 685 324 q 564 285 631 285 q 518 290 546 285 q 521 253 521 281 q 465 130 521 178 q 329 82 408 82 q 151 144 232 82 q 33 294 71 207 l 89 319 q 185 196 119 249 q 329 143 251 143 q 421 174 382 143 q 460 253 460 204 q 444 317 460 292 q 399 352 429 342 q 340 366 368 363 q 268 369 311 369 l 257 369 l 257 429 l 268 429 q 366 458 335 429 q 397 525 397 486 q 366 590 397 564 q 292 615 335 615 q 164 546 213 615 l 114 579 q 189 649 142 621 q 292 676 236 676 q 408 633 358 676 q 458 525 458 589 q 413 418 458 464 q 464 381 439 406 q 564 340 507 340 q 685 403 638 340 l 685 582 l 558 582 l 558 643 l 826 643 l 924 643 l 1181 643 l 1181 582 l 1003 582 l 1003 92 q 1015 65 1003 76 q 1042 53 1026 53 q 1074 69 1064 53 l 1125 36 q 1042 -8 1096 -8 z "},"ऒ":{"ha":1158,"x_min":33,"x_max":1181,"o":"m 658 858 q 674 797 658 811 q 740 782 692 782 l 860 782 q 967 746 931 782 q 1003 643 1003 710 l 1181 643 l 1181 582 l 1003 582 l 1003 92 q 1015 65 1003 76 q 1042 53 1026 53 q 1074 69 1064 53 l 1125 36 q 1042 -8 1096 -8 q 972 22 1001 -8 q 942 92 942 51 l 942 582 l 924 582 l 826 582 l 746 582 l 746 92 q 757 65 746 76 q 783 53 768 53 q 815 69 806 53 l 867 36 q 783 -8 838 -8 q 713 22 742 -8 q 685 92 685 51 l 685 324 q 564 285 631 285 q 518 290 546 285 q 521 253 521 281 q 465 130 521 178 q 329 82 408 82 q 151 144 232 82 q 33 294 71 207 l 89 319 q 185 196 119 249 q 329 143 251 143 q 421 174 382 143 q 460 253 460 204 q 444 317 460 292 q 399 352 429 342 q 340 366 368 363 q 268 369 311 369 l 257 369 l 257 429 l 268 429 q 366 458 335 429 q 397 525 397 486 q 366 590 397 564 q 292 615 335 615 q 164 546 213 615 l 114 579 q 189 649 142 621 q 292 676 236 676 q 408 633 358 676 q 458 525 458 589 q 413 418 458 464 q 464 381 439 406 q 564 340 507 340 q 685 403 638 340 l 685 582 l 558 582 l 558 643 l 826 643 l 924 643 l 942 643 q 926 704 942 689 q 860 719 911 719 l 740 719 q 633 757 671 719 q 597 858 597 793 l 658 858 z "},"ओ":{"ha":1158,"x_min":33,"x_max":1181,"o":"m 1042 -8 q 972 22 1001 -8 q 942 92 942 51 l 942 582 l 924 582 l 826 582 l 746 582 l 746 92 q 757 65 746 76 q 783 53 768 53 q 815 69 806 53 l 867 36 q 783 -8 838 -8 q 713 22 742 -8 q 685 92 685 51 l 685 324 q 564 285 631 285 q 518 290 546 285 q 521 253 521 281 q 465 130 521 178 q 329 82 408 82 q 151 144 232 82 q 33 294 71 207 l 89 319 q 185 196 119 249 q 329 143 251 143 q 421 174 382 143 q 460 253 460 204 q 444 317 460 292 q 399 352 429 342 q 340 366 368 363 q 268 369 311 369 l 257 369 l 257 429 l 268 429 q 366 458 335 429 q 397 525 397 486 q 366 590 397 564 q 292 615 335 615 q 164 546 213 615 l 114 579 q 189 649 142 621 q 292 676 236 676 q 408 633 358 676 q 458 525 458 589 q 413 418 458 464 q 464 381 439 406 q 564 340 507 340 q 685 403 638 340 l 685 582 l 558 582 l 558 643 l 826 643 l 924 643 l 928 643 l 772 910 l 825 942 l 996 643 l 1181 643 l 1181 582 l 1003 582 l 1003 92 q 1015 65 1003 76 q 1042 53 1026 53 q 1074 69 1064 53 l 1125 36 q 1042 -8 1096 -8 z "},"औ":{"ha":1158,"x_min":33,"x_max":1181,"o":"m 1042 -8 q 972 22 1001 -8 q 942 92 942 51 l 942 582 l 924 582 l 826 582 l 746 582 l 746 92 q 757 65 746 76 q 783 53 768 53 q 815 69 806 53 l 867 36 q 783 -8 838 -8 q 713 22 742 -8 q 685 92 685 51 l 685 324 q 564 285 631 285 q 518 290 546 285 q 521 253 521 281 q 465 130 521 178 q 329 82 408 82 q 151 144 232 82 q 33 294 71 207 l 89 319 q 185 196 119 249 q 329 143 251 143 q 421 174 382 143 q 460 253 460 204 q 444 317 460 292 q 399 352 429 342 q 340 366 368 363 q 268 369 311 369 l 257 369 l 257 429 l 268 429 q 366 458 335 429 q 397 525 397 486 q 366 590 397 564 q 292 615 335 615 q 164 546 213 615 l 114 579 q 189 649 142 621 q 292 676 236 676 q 408 633 358 676 q 458 525 458 589 q 413 418 458 464 q 464 381 439 406 q 564 340 507 340 q 685 403 638 340 l 685 582 l 558 582 l 558 643 l 826 643 l 924 643 l 928 643 l 915 664 q 897 676 904 672 q 668 719 833 719 l 668 781 q 762 771 697 781 q 858 761 826 761 l 772 911 l 825 942 l 997 643 l 1181 643 l 1181 582 l 1003 582 l 1003 92 q 1015 65 1003 76 q 1042 53 1026 53 q 1074 69 1064 53 l 1125 36 q 1042 -8 1096 -8 z "},"क":{"ha":808,"x_min":-22,"x_max":831,"o":"m 339 369 q 310 299 339 329 q 240 269 281 269 q 157 314 186 269 l 208 347 q 240 331 219 331 q 267 342 256 331 q 278 369 278 354 q 259 409 278 394 q 214 424 240 424 q 136 388 171 424 q 101 307 101 351 q 135 230 101 263 q 215 197 169 197 q 327 254 281 197 q 392 374 374 311 l 392 582 l -22 582 l -22 643 l 831 643 l 831 582 l 453 582 l 453 424 q 592 485 519 485 q 717 431 665 485 q 769 303 769 378 q 724 184 769 232 q 607 136 679 136 l 607 197 q 681 227 653 197 q 708 303 708 257 q 674 388 708 351 q 593 424 640 424 q 453 338 515 424 l 453 92 q 465 65 453 76 q 492 53 476 53 q 524 69 514 53 l 575 36 q 492 -8 546 -8 q 422 22 451 -8 q 392 92 392 51 l 392 244 q 215 136 325 136 q 92 186 143 136 q 40 307 40 236 q 92 431 40 378 q 214 485 143 485 q 302 452 265 485 q 339 369 339 419 z "},"ख":{"ha":939,"x_min":-22,"x_max":961,"o":"m 821 53 q 853 69 842 53 l 904 36 q 821 -8 875 -8 q 752 21 781 -8 q 722 90 724 50 q 435 -1 586 -1 q 249 38 338 -1 q 108 153 161 78 q 53 335 53 233 q 64 392 53 369 l 122 375 q 114 347 114 363 q 129 316 114 329 q 164 303 144 303 q 209 324 193 303 q 225 378 225 344 l 225 582 l -22 582 l -22 643 l 961 643 l 961 582 l 783 582 l 783 92 q 795 65 783 76 q 821 53 807 53 m 129 247 q 249 108 163 156 q 432 60 336 60 q 722 165 592 60 l 722 243 q 546 136 657 136 q 422 186 474 136 q 369 307 369 236 q 422 431 369 378 q 544 485 474 485 q 625 458 593 485 q 658 414 643 443 q 669 369 669 392 q 640 299 669 328 q 569 269 611 269 q 486 314 515 269 l 538 347 q 569 331 547 331 q 597 342 586 331 q 608 369 608 353 q 603 390 608 376 q 588 408 600 399 q 544 424 567 424 q 466 388 501 424 q 431 307 431 351 q 465 230 431 263 q 546 197 500 197 q 658 254 611 197 q 722 374 704 311 l 722 582 l 286 582 l 286 392 q 255 283 286 325 q 164 242 224 242 q 129 247 151 242 z "},"ग":{"ha":740,"x_min":-22,"x_max":764,"o":"m 213 329 l 175 329 q 100 278 100 329 q 113 245 100 258 q 143 232 125 232 q 213 329 193 232 m -22 643 l 764 643 l 764 582 l 586 582 l 586 92 q 597 65 586 76 q 624 53 608 53 q 656 69 644 53 l 707 36 q 624 -8 678 -8 q 554 22 583 -8 q 525 92 525 51 l 525 582 l 278 582 l 278 390 q 254 258 278 315 q 143 171 221 171 q 69 203 99 171 q 39 278 39 235 q 79 363 39 335 q 176 390 119 390 l 217 390 l 217 582 l -22 582 l -22 643 z "},"घ":{"ha":667,"x_min":-22,"x_max":690,"o":"m 153 582 q 131 521 131 551 q 160 453 131 481 q 231 422 189 426 l 242 422 l 314 422 l 314 361 l 261 361 q 252 360 258 361 q 243 360 246 360 l 231 360 q 183 335 201 357 q 164 283 164 314 q 197 215 164 242 q 275 188 231 188 l 283 188 q 393 242 346 193 q 451 358 440 292 l 451 582 l 153 582 m 550 53 q 582 69 572 53 l 633 36 q 550 -8 604 -8 q 481 22 510 -8 q 451 92 451 51 l 451 214 q 288 128 385 133 q 282 127 286 128 q 275 126 278 126 q 153 171 204 126 q 103 283 103 215 q 110 325 103 301 q 149 386 124 363 q 69 521 69 433 q 82 582 69 556 l -22 582 l -22 643 l 690 643 l 690 582 l 513 582 l 513 361 l 513 92 q 524 65 513 76 q 550 53 536 53 z "},"ङ":{"ha":715,"x_min":-17,"x_max":738,"o":"m 364 42 q 456 74 417 42 q 494 156 494 107 q 400 251 494 236 q 346 254 383 254 l 225 254 l 190 286 q 176 299 188 289 q 158 317 165 310 q 141 338 150 325 q 127 365 132 350 q 122 394 122 379 q 135 452 122 429 q 173 485 149 475 q 219 498 197 494 q 269 501 240 501 l 426 501 l 426 582 l -17 582 l -17 643 l 738 643 l 738 582 l 488 582 l 486 446 l 269 446 q 202 435 221 446 q 183 394 183 424 q 184 386 183 390 q 187 378 185 382 q 190 371 189 374 q 196 363 192 368 q 202 356 200 358 q 209 348 204 353 q 216 341 214 343 q 224 333 218 339 q 233 325 231 328 l 244 315 l 353 315 q 501 274 446 315 q 556 156 556 232 q 499 31 556 81 q 364 -19 442 -19 q 214 24 290 -19 q 8 199 110 83 l 54 240 q 244 76 154 128 q 364 42 303 42 m 596 314 l 535 375 l 596 435 l 656 375 l 596 314 z "},"च":{"ha":714,"x_min":-17,"x_max":736,"o":"m 17 415 l 17 476 l 436 476 l 436 415 l 326 415 q 249 382 283 415 q 214 301 214 349 q 249 220 214 253 q 339 188 285 188 q 449 237 400 188 q 497 347 497 286 l 497 582 l -17 582 l -17 643 l 736 643 l 736 582 l 558 582 l 558 92 q 570 65 558 76 q 597 53 582 53 q 629 69 619 53 l 681 36 q 597 -8 651 -8 q 527 22 557 -8 q 497 92 497 51 l 497 217 q 432 152 478 178 q 333 126 386 126 q 204 178 251 126 q 157 303 157 231 q 197 415 157 367 l 17 415 z "},"छ":{"ha":739,"x_min":-22,"x_max":761,"o":"m 142 394 q 172 339 142 357 q 247 321 201 321 l 325 321 l 325 265 l 258 265 q 195 238 219 265 q 171 169 171 210 q 208 83 171 117 q 299 49 244 49 q 421 92 356 49 q 507 161 460 117 q 438 251 465 201 q 410 353 410 304 q 441 447 410 404 q 522 500 472 489 l 522 582 l -22 582 l -22 643 l 761 643 l 761 582 l 583 582 l 583 500 q 663 448 632 490 q 693 356 693 406 q 674 273 693 314 q 639 215 654 232 q 592 164 624 197 q 614 149 601 156 q 703 19 703 89 q 676 -43 703 -17 q 610 -69 649 -69 l 594 -69 l 606 -14 l 610 -14 q 642 19 642 -14 q 637 44 642 32 q 619 68 632 56 q 600 87 607 81 q 574 107 593 93 q 551 124 554 121 q 457 47 504 79 q 299 -7 374 -7 q 165 44 219 -7 q 110 169 110 94 q 158 282 110 233 q 103 324 125 294 q 81 394 81 353 q 117 485 81 447 q 210 522 154 522 q 308 475 269 522 l 260 442 q 210 467 239 467 q 162 447 182 467 q 142 394 142 426 m 547 203 q 588 248 575 232 q 617 295 601 264 q 632 356 632 326 q 608 422 632 396 q 553 447 585 447 q 496 420 521 447 q 471 353 471 393 q 547 203 471 282 z "},"ज":{"ha":768,"x_min":-22,"x_max":792,"o":"m 350 411 q 433 226 433 322 q 391 118 433 164 q 282 72 349 72 q 97 193 178 72 q 19 349 58 250 l 75 368 q 150 222 111 279 q 282 128 213 128 q 347 156 321 128 q 372 226 372 183 q 265 411 372 322 l 265 472 l 553 472 l 553 582 l -22 582 l -22 643 l 792 643 l 792 582 l 614 582 l 614 92 q 625 65 614 76 q 651 53 636 53 q 683 69 672 53 l 735 36 q 651 -8 706 -8 q 582 22 611 -8 q 553 92 553 51 l 553 411 l 350 411 z "},"झ":{"ha":868,"x_min":-17,"x_max":892,"o":"m 346 315 q 503 272 450 315 q 575 246 531 246 q 653 281 625 249 l 653 582 l 486 582 l 486 446 l 269 446 q 202 435 221 446 q 183 394 183 424 q 243 315 183 369 l 346 315 m 183 165 q 146 132 150 165 l 146 129 q 239 56 146 79 q 242 86 242 65 q 227 141 242 118 q 186 165 213 164 l 183 165 m 494 156 q 346 254 494 254 l 225 254 q 202 272 221 258 q 173 296 183 286 q 149 322 163 306 q 128 358 135 339 q 121 397 121 376 q 269 501 121 501 l 425 501 l 425 582 l -17 582 l -17 643 l 892 643 l 892 582 l 714 582 l 714 92 q 726 65 714 76 q 751 53 738 53 q 783 69 772 53 l 835 36 q 751 -8 806 -8 q 682 22 711 -8 q 653 92 653 51 l 653 204 q 572 183 614 183 q 553 185 560 183 q 556 156 556 175 q 490 28 556 74 q 331 -17 424 -17 q 279 -14 296 -17 q 150 -147 233 -101 l 119 -94 q 217 -3 182 -61 q 124 44 163 11 q 85 129 85 76 l 85 136 q 116 200 88 174 q 183 226 144 226 l 189 226 q 272 183 240 222 q 303 86 303 143 q 299 46 303 67 q 331 44 308 44 q 447 73 399 44 q 494 156 494 101 z "},"ञ":{"ha":907,"x_min":-22,"x_max":931,"o":"m 790 -8 q 721 22 750 -8 q 692 92 692 51 l 692 319 q 576 285 639 285 q 493 303 533 285 q 429 156 493 215 q 275 97 365 97 q 33 213 138 97 l 78 254 q 166 187 113 215 q 275 158 219 158 q 386 199 340 158 q 432 303 432 240 q 388 405 432 363 q 283 447 344 447 q 183 411 229 447 l 146 458 q 285 507 208 507 q 399 472 347 507 q 475 383 451 438 q 576 340 518 340 q 692 396 642 340 l 692 582 l -22 582 l -22 643 l 931 643 l 931 582 l 753 582 l 753 92 q 765 65 753 76 q 790 53 776 53 q 822 69 811 53 l 874 36 q 790 -8 844 -8 z "},"ट":{"ha":583,"x_min":-22,"x_max":607,"o":"m -22 643 l 607 643 l 607 582 l 419 582 l 419 411 l 250 411 q 118 308 118 411 q 181 181 118 242 q 313 119 243 121 q 426 154 372 119 q 518 236 481 189 l 561 192 q 451 97 517 136 q 313 58 386 58 q 134 134 211 58 q 57 308 57 210 q 110 431 57 390 q 250 472 163 472 l 358 472 l 358 582 l -22 582 l -22 643 z "},"ठ":{"ha":611,"x_min":-22,"x_max":633,"o":"m -22 643 l 633 643 l 633 582 l 383 582 l 383 411 l 322 411 l 258 411 q 126 308 126 411 q 190 181 126 242 q 322 119 253 119 q 453 172 399 119 q 507 299 507 224 q 482 372 507 342 q 419 408 457 403 l 447 464 q 534 406 500 450 q 568 299 568 361 q 496 128 568 197 q 321 58 424 58 q 142 134 219 58 q 65 308 65 210 q 118 431 65 390 q 258 472 171 472 l 322 472 l 322 582 l -22 582 l -22 643 z "},"ड":{"ha":594,"x_min":-17,"x_max":613,"o":"m -17 643 l 613 643 l 613 582 l 488 582 l 486 446 l 269 446 q 202 435 221 446 q 183 394 183 424 q 184 386 183 390 q 187 378 185 382 q 190 371 189 374 q 196 363 192 368 q 202 356 200 358 q 209 348 204 353 q 216 341 214 343 q 224 333 218 339 q 233 325 231 328 l 244 315 l 346 315 q 498 276 440 315 q 556 156 556 238 q 499 31 556 81 q 364 -19 442 -19 q 214 24 290 -19 q 8 199 110 83 l 54 240 q 244 76 154 128 q 364 42 303 42 q 456 74 417 42 q 494 156 494 107 q 400 251 494 236 q 346 254 383 254 l 225 254 l 190 286 q 176 299 188 289 q 158 317 165 310 q 141 338 150 325 q 127 365 132 350 q 122 394 122 379 q 135 452 122 429 q 173 485 149 475 q 219 498 197 494 q 269 501 240 501 l 426 501 l 426 582 l -17 582 l -17 643 z "},"ढ":{"ha":572,"x_min":-22,"x_max":590,"o":"m -22 643 l 590 643 l 590 582 l 465 582 l 465 411 l 286 411 q 118 299 118 411 q 191 152 118 218 q 346 86 264 86 q 434 118 399 86 q 469 203 469 150 q 438 281 469 249 q 367 314 407 314 q 324 299 342 314 q 306 263 306 285 q 317 235 306 246 q 340 224 328 224 q 357 229 347 224 l 375 175 q 340 168 357 168 q 272 197 300 168 q 244 263 244 225 q 282 340 244 310 q 367 369 319 369 q 483 319 436 369 q 531 203 531 269 q 477 79 531 128 q 346 31 424 31 q 147 113 238 31 q 57 299 57 194 q 124 427 57 388 q 286 467 192 467 l 404 467 l 404 582 l -22 582 l -22 643 z "},"ण":{"ha":783,"x_min":-22,"x_max":806,"o":"m 158 582 l 158 281 q 188 219 158 244 q 256 193 217 193 q 322 219 294 193 q 350 281 350 244 l 350 582 l 158 582 m 665 -8 q 596 22 625 -8 q 567 92 567 51 l 567 582 l 411 582 l 411 281 q 366 180 411 222 q 256 138 321 138 q 144 179 190 138 q 97 281 97 221 l 97 582 l -22 582 l -22 643 l 806 643 l 806 582 l 628 582 l 628 92 q 640 65 628 76 q 665 53 651 53 q 697 69 686 53 l 749 36 q 665 -8 719 -8 z "},"त":{"ha":667,"x_min":-22,"x_max":690,"o":"m 550 -8 q 481 22 510 -8 q 451 92 451 51 l 451 411 l 283 411 q 186 369 221 411 q 151 260 151 326 q 183 139 151 190 q 275 33 217 86 l 233 -11 q 163 60 188 32 q 115 142 139 88 q 90 260 90 197 q 144 411 90 349 q 283 474 199 474 l 451 474 l 451 582 l -22 582 l -22 643 l 690 643 l 690 582 l 513 582 l 513 92 q 524 65 513 76 q 550 53 536 53 q 582 69 572 53 l 633 36 q 550 -8 604 -8 z "},"थ":{"ha":735,"x_min":86,"x_max":758,"o":"m 758 643 l 758 582 l 581 582 l 581 92 q 592 65 581 76 q 618 53 603 53 q 650 69 639 53 l 701 36 q 618 -8 672 -8 q 549 22 578 -8 q 519 92 519 51 l 519 203 q 343 122 446 122 q 251 139 294 122 q 182 179 208 156 q 136 226 156 203 q 108 267 117 250 l 101 283 l 101 347 l 115 347 q 179 356 147 347 q 244 385 211 365 q 297 444 276 406 q 317 535 317 483 q 290 602 317 576 q 222 628 263 628 q 169 606 192 628 q 147 553 147 583 q 158 517 147 532 q 186 501 168 501 q 224 524 215 501 l 279 499 q 186 439 251 439 q 114 472 142 439 q 86 553 86 506 q 126 649 86 608 q 222 689 167 689 q 333 644 288 689 q 378 533 378 599 q 355 423 378 471 q 297 349 332 375 q 228 308 261 322 q 165 290 196 294 q 238 214 190 244 q 343 183 285 183 q 448 213 401 183 q 519 286 494 242 l 519 582 l 419 582 l 419 643 l 758 643 z "},"द":{"ha":567,"x_min":-22,"x_max":589,"o":"m 411 247 q 404 253 411 247 q 381 260 397 260 q 351 247 364 260 q 338 217 338 233 q 369 153 338 185 q 425 215 425 171 q 411 247 425 233 m 397 472 l 397 582 l -22 582 l -22 643 l 589 643 l 589 582 l 458 582 l 458 411 l 254 411 q 118 306 118 411 q 173 198 118 240 q 297 147 228 156 q 276 214 276 183 q 306 291 276 260 q 381 322 336 322 q 455 291 424 322 q 486 215 486 260 q 422 111 486 150 q 501 -26 501 44 q 467 -115 501 -75 q 386 -154 432 -154 l 386 -92 q 424 -70 408 -89 q 440 -26 440 -51 q 438 -7 440 -17 q 432 10 435 3 q 422 26 429 17 q 410 40 414 35 q 397 53 407 44 q 383 65 386 63 q 367 76 379 67 q 354 86 356 85 q 322 85 343 85 q 138 147 219 85 q 57 307 57 210 q 110 426 57 379 q 236 472 164 472 l 397 472 z "},"ध":{"ha":671,"x_min":89,"x_max":693,"o":"m 553 -8 q 483 22 513 -8 q 454 92 454 51 l 454 156 q 388 92 435 119 q 292 65 342 65 q 165 115 215 65 q 114 240 114 165 q 168 369 114 318 q 89 542 89 440 q 138 650 89 611 q 249 689 188 689 q 337 656 300 689 q 374 574 374 624 q 344 504 374 533 q 275 475 315 475 q 192 518 221 475 l 242 553 q 275 536 253 536 q 301 547 289 536 q 313 574 313 558 q 294 613 313 599 q 249 628 275 628 q 179 605 207 628 q 151 542 151 582 q 174 460 151 499 q 224 404 196 422 q 292 415 250 415 l 369 415 l 369 354 l 292 354 q 206 321 242 354 q 169 240 169 288 q 204 158 169 189 q 292 126 239 126 q 403 176 353 126 q 454 286 454 226 l 454 643 l 693 643 l 693 582 l 515 582 l 515 92 q 527 65 515 76 q 553 53 539 53 q 586 69 575 53 l 636 36 q 553 -8 607 -8 z "},"न":{"ha":692,"x_min":-22,"x_max":714,"o":"m 213 329 l 175 329 q 100 276 100 329 q 113 245 100 258 q 143 232 125 232 q 199 281 178 232 q 213 329 208 300 m 575 -8 q 505 22 535 -8 q 475 92 475 51 l 475 329 l 274 329 q 254 258 269 297 q 143 171 221 171 q 69 202 99 171 q 39 276 39 233 q 79 361 39 332 q 175 390 119 390 l 475 390 l 475 582 l -22 582 l -22 643 l 714 643 l 714 582 l 536 582 l 536 92 q 549 65 536 78 q 575 53 561 53 q 607 69 597 53 l 658 36 q 575 -8 629 -8 z "},"ऩ":{"ha":692,"x_min":-22,"x_max":714,"o":"m 160 -78 l 99 -17 l 160 43 l 219 -17 l 160 -78 m 213 329 l 175 329 q 100 276 100 329 q 113 245 100 258 q 143 232 125 232 q 199 281 178 232 q 213 329 208 300 m 575 -8 q 505 22 535 -8 q 475 92 475 51 l 475 329 l 274 329 q 254 258 269 297 q 143 171 221 171 q 69 202 99 171 q 39 276 39 233 q 79 361 39 332 q 175 390 119 390 l 475 390 l 475 582 l -22 582 l -22 643 l 714 643 l 714 582 l 536 582 l 536 92 q 549 65 536 78 q 575 53 561 53 q 607 69 597 53 l 658 36 q 575 -8 629 -8 z "},"प":{"ha":657,"x_min":-22,"x_max":681,"o":"m 442 389 l 442 582 l 158 582 l 158 364 q 190 274 158 304 q 274 244 222 244 q 374 288 331 244 q 442 389 418 331 m 540 -8 q 471 22 500 -8 q 442 92 442 51 l 442 269 q 274 183 376 183 q 149 231 200 183 q 97 364 97 279 l 97 582 l -22 582 l -22 643 l 681 643 l 681 582 l 503 582 l 503 92 q 514 65 503 76 q 540 53 525 53 q 572 69 561 53 l 624 36 q 540 -8 594 -8 z "},"फ":{"ha":883,"x_min":-22,"x_max":907,"o":"m 451 389 l 451 582 l 169 582 l 169 364 q 201 274 169 303 q 283 244 232 244 q 385 288 342 244 q 451 389 428 331 m 550 -8 q 481 22 510 -8 q 451 92 451 51 l 451 269 q 283 183 386 183 q 159 231 210 183 q 108 364 108 279 l 108 582 l -22 582 l -22 643 l 907 643 l 907 582 l 513 582 l 513 424 q 651 485 576 485 q 777 431 725 485 q 829 303 829 378 q 783 184 829 232 q 665 136 738 136 l 665 197 q 740 227 711 197 q 768 303 768 257 q 734 388 768 351 q 653 424 700 424 q 513 338 575 424 l 513 92 q 524 65 513 76 q 550 53 536 53 q 582 69 572 53 l 633 36 q 550 -8 604 -8 z "},"ब":{"ha":647,"x_min":-17,"x_max":669,"o":"m 331 213 l 164 381 q 138 308 138 347 q 173 226 138 260 q 258 193 208 193 q 331 213 296 193 m 431 388 q 276 429 342 429 q 211 417 240 429 l 378 250 q 431 365 422 301 l 431 388 m 492 92 q 503 65 492 76 q 531 53 515 53 q 563 69 553 53 l 614 36 q 531 -8 585 -8 q 460 22 490 -8 q 431 92 431 51 l 431 218 q 258 132 360 132 q 131 183 185 132 q 76 308 76 233 q 135 439 76 388 q 276 490 193 490 q 431 456 349 490 l 431 582 l -17 582 l -17 643 l 669 643 l 669 582 l 492 582 l 492 92 z "},"भ":{"ha":760,"x_min":54,"x_max":760,"o":"m 156 501 q 192 524 183 501 l 247 499 q 154 439 219 439 q 82 472 110 439 q 54 553 54 506 q 95 649 54 608 q 192 689 136 689 q 302 644 257 689 q 347 533 347 599 l 346 357 l 543 357 l 543 582 l 399 582 l 399 643 l 760 643 l 760 582 l 604 582 l 604 92 q 615 65 604 76 q 642 53 626 53 q 675 69 664 53 l 725 36 q 642 -8 696 -8 q 572 22 601 -8 q 543 92 543 51 l 543 296 l 342 296 q 322 225 338 264 q 211 138 289 138 q 137 169 167 138 q 107 244 107 201 q 147 328 107 300 q 242 357 186 357 l 285 357 l 286 535 q 259 602 286 576 q 192 628 232 628 q 138 606 160 628 q 115 553 115 583 q 126 517 115 532 q 156 501 136 501 m 281 296 l 242 296 q 168 244 168 296 q 181 212 168 225 q 211 199 193 199 q 281 296 261 199 z "},"म":{"ha":681,"x_min":-22,"x_max":703,"o":"m 267 357 l 272 357 l 464 357 l 464 582 l 267 582 l 267 357 m 201 296 l 167 296 q 89 244 89 296 q 101 212 89 225 q 132 199 114 199 q 201 296 182 199 m 564 -8 q 494 22 524 -8 q 464 92 464 51 l 464 296 l 272 296 l 263 296 q 243 225 258 264 q 132 138 210 138 q 58 169 88 138 q 28 244 28 201 q 68 330 28 303 q 167 357 108 357 l 206 357 l 206 582 l -22 582 l -22 643 l 703 643 l 703 582 l 525 582 l 525 92 q 538 65 525 78 q 564 53 550 53 q 596 69 586 53 l 647 36 q 564 -8 618 -8 z "},"य":{"ha":701,"x_min":-22,"x_max":725,"o":"m 585 -8 q 515 22 544 -8 q 486 92 486 51 l 486 203 q 310 122 413 122 q 148 179 211 122 q 68 283 85 236 l 68 347 l 92 347 q 199 381 158 347 q 239 463 239 415 q 182 582 239 553 l -22 582 l -22 643 l 725 643 l 725 582 l 547 582 l 547 92 q 558 65 547 76 q 585 53 569 53 q 617 69 607 53 l 668 36 q 585 -8 639 -8 m 204 214 q 228 199 204 214 q 310 183 251 183 q 415 213 368 183 q 486 286 461 242 l 486 582 l 268 582 q 301 463 301 531 q 253 349 301 396 q 132 290 206 301 q 204 214 157 244 z "},"र":{"ha":453,"x_min":-22,"x_max":475,"o":"m 153 375 q 146 347 146 363 q 161 316 146 329 q 196 303 176 303 q 241 324 225 303 q 257 378 257 344 l 257 582 l -22 582 l -22 643 l 475 643 l 475 582 l 318 582 l 318 392 q 287 283 318 325 q 196 242 256 242 q 158 249 179 242 q 236 122 179 176 q 386 49 301 61 l 386 -8 q 192 85 276 4 q 85 331 85 185 q 96 392 85 365 l 153 375 z "},"ऱ":{"ha":472,"x_min":-22,"x_max":475,"o":"m 150 -79 l 89 -18 l 150 42 l 210 -18 l 150 -79 m 153 375 q 146 347 146 363 q 161 316 146 329 q 196 303 176 303 q 241 324 225 303 q 257 378 257 344 l 257 582 l -22 582 l -22 643 l 475 643 l 475 582 l 318 582 l 318 392 q 287 283 318 325 q 196 242 256 242 q 158 249 179 242 q 236 122 179 176 q 386 49 301 61 l 386 -8 q 192 85 276 4 q 85 331 85 185 q 96 392 85 365 l 153 375 z "},"ल":{"ha":739,"x_min":-22,"x_max":761,"o":"m 614 -8 q 544 22 574 -8 q 515 92 515 51 l 515 411 q 382 324 414 408 q 375 276 375 306 l 314 276 q 344 383 314 338 q 264 417 311 417 q 169 372 206 417 q 133 265 133 328 q 184 116 133 182 q 307 8 235 50 l 276 -46 q 132 83 192 3 q 72 265 72 163 q 126 416 72 354 q 264 478 179 478 q 386 428 336 478 q 515 472 436 471 l 515 582 l -22 582 l -22 643 l 761 643 l 761 582 l 576 582 l 576 92 q 588 65 576 76 q 614 53 599 53 q 647 69 636 53 l 697 36 q 614 -8 668 -8 z "},"ळ":{"ha":774,"x_min":-17,"x_max":792,"o":"m 371 328 l 369 326 q 225 422 304 422 q 140 380 174 422 q 107 276 107 338 q 142 166 107 210 q 229 122 176 122 q 333 208 301 122 q 353 270 342 228 q 371 328 365 313 m 404 225 q 546 122 475 122 q 630 167 596 122 q 664 275 664 213 q 631 381 664 340 q 542 422 597 422 q 477 401 500 422 q 439 339 454 381 l 404 225 m 396 389 q 517 475 436 464 l 517 582 l -17 582 l -17 643 l 792 643 l 792 582 l 578 582 l 578 475 q 686 406 647 463 q 725 275 725 349 q 678 131 725 196 q 546 67 631 67 q 378 161 457 67 q 229 67 325 67 q 96 130 144 67 q 47 276 47 193 q 94 417 47 356 q 225 478 142 478 q 396 389 321 478 z "},"ऴ":{"ha":774,"x_min":-17,"x_max":792,"o":"m 383 -79 l 322 -18 l 383 42 l 443 -18 l 383 -79 m 371 328 l 369 326 q 225 422 304 422 q 140 380 174 422 q 107 276 107 338 q 142 166 107 210 q 229 122 176 122 q 333 208 301 122 q 353 270 342 228 q 371 328 365 313 m 404 225 q 546 122 475 122 q 630 167 596 122 q 664 275 664 213 q 631 381 664 340 q 542 422 597 422 q 477 401 500 422 q 439 339 454 381 l 404 225 m 396 389 q 517 475 436 464 l 517 582 l -17 582 l -17 643 l 792 643 l 792 582 l 578 582 l 578 475 q 686 406 647 463 q 725 275 725 349 q 678 131 725 196 q 546 67 631 67 q 378 161 457 67 q 229 67 325 67 q 96 130 144 67 q 47 276 47 193 q 94 417 47 356 q 225 478 142 478 q 396 389 321 478 z "},"व":{"ha":619,"x_min":-22,"x_max":642,"o":"m 350 369 q 321 299 350 329 q 251 269 292 269 q 168 314 197 269 l 219 347 q 251 331 231 331 q 278 342 267 331 q 289 369 289 354 q 270 409 289 394 q 225 424 251 424 q 147 388 182 424 q 113 307 113 351 q 147 230 113 263 q 226 197 181 197 q 338 254 292 197 q 403 374 385 311 l 403 582 l -22 582 l -22 643 l 642 643 l 642 582 l 464 582 l 464 92 q 476 65 464 76 q 503 53 488 53 q 535 69 525 53 l 586 36 q 503 -8 557 -8 q 433 22 463 -8 q 403 92 403 51 l 403 243 q 226 136 338 136 q 103 186 154 136 q 51 307 51 236 q 103 431 51 378 q 225 485 154 485 q 313 452 276 485 q 350 369 350 419 z "},"श":{"ha":813,"x_min":64,"x_max":836,"o":"m 597 92 l 597 582 l 511 582 l 511 643 l 836 643 l 836 582 l 658 582 l 658 92 q 669 65 658 76 q 696 53 681 53 q 728 69 717 53 l 779 36 q 696 -8 750 -8 q 626 22 656 -8 q 597 92 597 51 m 64 256 l 104 297 l 163 250 q 231 232 194 232 q 343 284 294 232 q 392 421 392 336 q 347 565 392 503 q 222 628 303 628 q 169 606 192 628 q 147 553 147 583 q 158 517 147 532 q 186 501 168 501 q 224 524 215 501 l 279 499 q 186 439 251 439 q 114 472 142 439 q 86 553 86 506 q 126 649 86 608 q 222 689 167 689 q 390 606 328 689 q 453 421 453 524 q 398 251 453 326 q 254 176 343 176 l 253 176 l 469 0 l 431 -42 l 64 256 z "},"ष":{"ha":619,"x_min":-22,"x_max":642,"o":"m 361 315 l 119 507 l 119 364 q 152 274 119 304 q 236 244 185 244 q 361 315 307 244 m 393 368 q 398 379 394 372 q 403 389 401 386 l 403 582 l 122 582 l 393 368 m 503 -8 q 433 22 463 -8 q 403 92 403 51 l 403 269 q 236 183 338 183 q 111 231 163 183 q 60 364 60 279 l 60 582 l -22 582 l -22 643 l 642 643 l 642 582 l 464 582 l 464 92 q 476 65 464 76 q 503 53 488 53 q 535 69 525 53 l 586 36 q 503 -8 557 -8 z "},"स":{"ha":679,"x_min":-17,"x_max":703,"o":"m 464 356 l 464 582 l 243 582 l 243 390 q 242 356 243 367 l 464 356 m 563 -8 q 493 22 522 -8 q 464 92 464 51 l 464 294 l 219 294 q 121 242 188 242 q 83 247 100 242 q 160 121 106 174 q 311 47 225 60 l 311 -8 q 117 83 200 4 q 10 331 10 183 q 19 392 10 369 l 78 374 q 71 346 71 361 q 86 315 71 328 q 121 303 101 303 q 166 324 150 303 q 182 376 182 344 l 182 582 l -17 582 l -17 643 l 703 643 l 703 582 l 525 582 l 525 92 q 537 65 525 76 q 563 53 549 53 q 594 69 583 53 l 646 36 q 563 -8 617 -8 z "},"ह":{"ha":561,"x_min":-22,"x_max":585,"o":"m 389 153 q 415 165 404 153 q 426 192 426 176 q 384 263 426 239 q 283 286 342 286 q 167 255 214 286 q 118 167 119 224 q 216 44 124 85 q 433 0 308 3 l 431 -61 q 254 -37 336 -60 q 114 40 172 -14 q 56 168 56 93 q 135 307 56 253 q 89 394 89 350 q 102 452 89 429 q 140 485 115 475 q 185 498 164 494 q 236 501 207 501 l 393 501 l 393 582 l -22 582 l -22 643 l 585 643 l 585 582 l 454 582 l 453 446 l 236 446 q 169 435 188 446 q 150 394 150 424 q 192 333 150 372 q 283 347 238 347 q 427 305 367 347 q 488 192 488 263 q 458 122 488 151 q 389 92 429 92 q 306 136 335 92 l 357 169 q 389 153 367 153 z "},"ऺ":{"ha":0,"x_min":-210,"x_max":-149,"o":"m -210 890 l -149 890 l -149 582 l -210 582 l -210 890 z "},"ऻ":{"ha":372,"x_min":-22,"x_max":394,"o":"m 254 -8 q 185 22 214 -8 q 156 92 156 51 l 156 582 l -22 582 l -22 643 l 156 643 l 156 760 l 217 760 l 217 643 l 394 643 l 394 582 l 217 582 l 217 92 q 228 65 217 76 q 254 53 239 53 q 286 69 275 53 l 338 36 q 254 -8 308 -8 z "},"़":{"ha":0,"x_min":-303,"x_max":-182,"o":"m -242 -183 l -303 -122 l -242 -62 l -182 -122 l -242 -183 z "},"ऽ":{"ha":494,"x_min":58,"x_max":456,"o":"m 119 143 q 160 72 119 100 q 258 43 200 43 q 354 81 314 43 q 394 175 394 119 q 335 289 394 242 q 253 334 314 304 q 164 386 192 364 q 88 514 88 446 q 137 611 88 579 q 264 643 186 643 l 425 643 l 425 582 l 269 582 q 149 514 149 582 q 219 417 149 464 q 291 378 238 404 q 374 331 344 353 q 456 175 456 268 q 398 42 456 97 q 258 -12 340 -12 q 115 31 172 -12 q 58 143 58 74 q 88 215 58 185 q 158 244 117 244 q 199 236 178 244 l 174 179 q 158 183 167 183 q 131 172 143 183 q 119 143 119 160 z "},"ा":{"ha":350,"x_min":-22,"x_max":372,"o":"m 372 643 l 372 582 l 194 582 l 194 92 q 206 65 194 76 q 232 53 217 53 q 264 69 253 53 l 315 36 q 232 -8 286 -8 q 163 22 192 -8 q 133 92 133 51 l 133 582 l -22 582 l -22 643 l 372 643 z "},"ि":{"ha":369,"x_min":-22,"x_max":843,"o":"m 254 -8 q 185 22 214 -8 q 156 92 156 51 l 156 582 l -22 582 l -22 643 l 136 643 q 119 708 119 676 q 187 838 119 790 q 339 886 254 886 q 500 851 411 886 q 843 635 650 790 l 803 592 q 475 800 608 747 q 339 831 403 831 q 227 797 274 831 q 181 708 181 763 q 207 643 181 669 l 392 643 l 392 582 l 217 582 l 217 92 q 228 65 217 76 q 254 53 239 53 q 286 69 275 53 l 338 36 q 254 -8 308 -8 z "},"ी":{"ha":350,"x_min":-258,"x_max":372,"o":"m 254 -8 q 185 22 214 -8 q 156 92 156 51 l 156 426 l 156 582 l -22 582 l -22 643 l 153 643 q 114 744 144 706 q -61 831 44 831 q -147 810 -111 831 q -193 753 -182 789 q -197 721 -197 739 q -178 665 -197 688 q -133 635 -160 642 l -147 585 q -227 632 -196 596 q -258 721 -258 668 q -251 768 -258 749 q -181 853 -232 821 q -61 886 -129 886 q 163 778 75 886 q 214 643 206 725 l 372 643 l 372 582 l 217 582 l 217 426 l 217 92 q 228 65 217 76 q 254 53 240 53 q 286 69 275 53 l 338 36 q 254 -8 308 -8 z "},"ु":{"ha":0,"x_min":-456,"x_max":-18,"o":"m -186 -272 q -110 -246 -140 -272 q -79 -181 -79 -219 q -101 -128 -79 -150 q -154 -106 -124 -106 q -207 -125 -187 -106 l -251 -83 q -154 -44 -208 -44 q -58 -85 -101 -44 q -18 -178 -18 -125 q -68 -290 -18 -249 q -183 -333 -117 -333 q -249 -322 -219 -333 q -312 -290 -289 -306 q -376 -239 -344 -269 q -456 -157 -410 -208 l -411 -117 q -335 -194 -375 -160 q -254 -253 -290 -235 q -186 -272 -218 -272 z "},"ू":{"ha":0,"x_min":-275,"x_max":253,"o":"m -110 -44 q 114 -164 3 -44 l 253 -325 l 207 -364 l 69 -206 q -108 -106 -26 -106 q -183 -132 -153 -106 q -214 -197 -214 -158 q -192 -250 -214 -228 q -139 -272 -169 -272 q -86 -253 -106 -272 l -42 -294 q -139 -333 -85 -333 q -236 -293 -193 -333 q -275 -200 -275 -254 q -225 -87 -275 -129 q -110 -44 -176 -44 z "},"ृ":{"ha":0,"x_min":-276,"x_max":-42,"o":"m -42 -44 l -42 -106 l -108 -106 q -183 -132 -150 -106 q -215 -197 -215 -158 q -194 -250 -215 -228 q -140 -272 -172 -272 q -87 -253 -107 -272 l -43 -294 q -140 -333 -86 -333 q -235 -294 -194 -333 q -276 -200 -276 -254 q -228 -89 -276 -133 q -111 -44 -179 -44 l -42 -44 z "},"ॄ":{"ha":0,"x_min":-264,"x_max":7,"o":"m -103 -151 l -83 -204 q -125 -210 -101 -210 q -186 -197 -157 -210 q -203 -226 -203 -208 q -182 -265 -203 -250 q -131 -279 -161 -279 q -33 -242 -79 -279 l 7 -285 q -131 -335 -54 -335 q -222 -306 -181 -335 q -264 -226 -264 -278 q -231 -158 -264 -187 q -242 -117 -242 -139 q -208 -61 -242 -78 q -136 -44 -175 -44 l -115 -44 l -58 -44 l -58 -100 l -115 -100 l -136 -100 q -181 -117 -181 -100 q -165 -144 -181 -133 q -125 -154 -149 -154 q -103 -151 -111 -154 z "},"ॅ":{"ha":0,"x_min":-403,"x_max":-43,"o":"m -104 858 l -43 858 q -98 748 -43 792 q -222 704 -153 704 q -348 748 -293 704 q -403 858 -403 792 l -342 858 q -306 788 -342 815 q -222 760 -271 760 q -140 788 -175 760 q -104 858 -104 815 z "},"ॆ":{"ha":0,"x_min":-557,"x_max":-150,"o":"m -211 643 q -227 705 -211 690 q -293 719 -243 719 l -414 719 q -520 755 -483 719 q -557 858 -557 790 l -496 858 q -479 797 -496 811 q -414 782 -462 782 l -293 782 q -187 747 -224 782 q -150 643 -150 711 l -150 626 l -211 626 l -211 643 z "},"े":{"ha":0,"x_min":-379,"x_max":-153,"o":"m -153 643 l -207 614 l -379 911 l -325 942 l -153 643 z "},"ै":{"ha":0,"x_min":-482,"x_max":-153,"o":"m -153 643 l -206 614 l -235 664 q -482 719 -308 719 l -482 781 q -292 761 -356 781 l -378 911 l -325 942 l -153 643 z "},"ॉ":{"ha":361,"x_min":-22,"x_max":382,"o":"m 254 53 q 286 69 275 53 l 338 36 q 254 -8 308 -8 q 185 22 214 -8 q 156 92 156 51 l 156 582 l -22 582 l -22 643 l 382 643 l 382 582 l 217 582 l 217 92 q 228 65 217 76 q 254 53 239 53 m 299 858 l 360 858 q 305 748 360 792 q 181 704 250 704 q 56 748 110 704 q 1 858 1 792 l 63 858 q 97 788 63 815 q 181 760 132 760 q 263 788 228 760 q 299 858 299 815 z "},"ॊ":{"ha":360,"x_min":-190,"x_max":382,"o":"m 254 53 q 286 69 275 53 l 338 36 q 254 -8 308 -8 q 185 22 214 -8 q 156 92 156 51 l 156 582 l -22 582 l -22 643 l 156 643 q 140 705 156 690 q 74 719 124 719 l -47 719 q -153 755 -117 719 q -190 858 -190 790 l -129 858 q -112 797 -129 811 q -47 782 -96 782 l 74 782 q 180 747 143 782 q 217 643 217 711 l 382 643 l 382 582 l 217 582 l 217 92 q 228 65 217 76 q 254 53 239 53 z "},"ो":{"ha":360,"x_min":-22,"x_max":382,"o":"m 254 53 q 286 69 275 53 l 338 36 q 254 -8 308 -8 q 185 22 214 -8 q 156 92 156 51 l 156 582 l -22 582 l -22 643 l 149 643 l 6 890 l 58 919 l 219 643 l 382 643 l 382 582 l 217 582 l 217 92 q 228 65 217 76 q 254 53 239 53 z "},"ौ":{"ha":360,"x_min":-99,"x_max":382,"o":"m 254 53 q 286 69 275 53 l 338 36 q 254 -8 308 -8 q 185 22 214 -8 q 156 92 156 51 l 156 582 l -22 582 l -22 643 l 149 643 q 131 656 135 654 q -99 699 67 699 l -99 760 q -5 750 -69 760 q 92 740 60 740 l 6 890 l 58 919 l 219 643 l 382 643 l 382 582 l 217 582 l 217 92 q 228 65 217 76 q 254 53 239 53 z "},"्":{"ha":0,"x_min":-350,"x_max":-10,"o":"m -301 -196 l -350 -162 l -257 -47 l -233 -58 q -134 -121 -178 -85 q -68 -190 -90 -157 q -31 -253 -46 -222 q -13 -300 -17 -285 q -10 -319 -10 -315 l -71 -326 q -74 -312 -72 -321 q -87 -277 -76 -303 q -115 -227 -99 -251 q -165 -172 -132 -203 q -239 -119 -197 -142 l -301 -196 z "},"ॎ":{"ha":372,"x_min":156,"x_max":394,"o":"m 254 -8 q 185 22 214 -8 q 156 92 156 51 l 156 643 l 394 643 l 394 582 l 217 582 l 217 92 q 228 65 217 76 q 254 53 240 53 q 286 69 275 53 l 338 36 q 254 -8 308 -8 z "},"ॏ":{"ha":360,"x_min":-186,"x_max":382,"o":"m -64 933 l -3 933 l -3 903 l 17 903 q 206 829 131 903 q 282 643 282 756 l 382 643 l 382 582 l 217 582 l 217 92 q 228 65 217 76 q 254 53 239 53 q 286 69 275 53 l 338 36 q 254 -8 308 -8 q 185 22 214 -8 q 156 92 156 51 l 156 582 l -22 582 l -22 643 l 99 643 q 83 705 99 690 q 17 719 67 719 l -42 719 q -149 756 -111 719 q -186 858 -186 792 l -125 858 q -108 797 -125 811 q -42 782 -90 782 l 17 782 q 123 747 86 782 q 160 643 160 711 l 221 643 q 163 791 221 735 q 17 847 104 847 l -33 847 q -54 855 -44 847 q -64 874 -64 863 l -64 933 z "},"ॐ":{"ha":978,"x_min":25,"x_max":933,"o":"m 510 286 q 514 253 514 269 q 457 130 514 178 q 321 82 400 82 q 143 144 224 82 q 25 294 63 207 l 81 319 q 177 196 111 249 q 321 143 243 143 q 414 174 375 143 q 453 253 453 204 q 422 331 453 304 q 356 364 392 358 q 260 369 319 369 l 249 369 l 249 429 l 260 429 q 358 458 326 429 q 389 525 389 486 q 358 590 389 564 q 283 615 326 615 q 157 546 206 615 l 106 579 q 181 649 133 621 q 283 676 228 676 q 400 633 350 676 q 450 525 450 589 q 404 418 450 464 q 469 372 436 403 q 529 342 503 342 q 567 351 549 342 q 597 370 586 361 q 629 400 607 379 q 721 463 683 451 q 764 469 742 469 q 901 383 853 469 q 933 267 933 324 q 885 138 933 193 q 760 82 836 82 q 660 119 703 82 q 618 213 618 157 q 643 285 618 254 q 706 326 668 315 l 724 274 q 679 213 679 260 q 703 159 679 181 q 760 138 726 138 q 839 175 806 138 q 872 267 872 213 q 847 357 872 314 q 764 414 814 414 q 674 363 728 414 l 661 350 q 644 335 649 338 q 628 322 640 332 q 607 307 615 311 q 585 297 599 303 q 558 288 572 290 q 529 286 544 286 l 510 286 m 807 738 l 868 738 q 813 627 868 671 q 689 583 758 583 q 563 627 618 583 q 508 738 508 671 l 569 738 q 605 667 569 694 q 689 639 640 639 q 772 667 736 639 q 807 738 807 694 m 689 672 l 628 733 l 689 793 l 749 733 l 689 672 z "},"॑":{"ha":0,"x_min":-168,"x_max":-107,"o":"m -168 704 l -168 889 l -107 889 l -107 704 l -168 704 z "},"॒":{"ha":0,"x_min":-556,"x_max":0,"o":"m 0 -67 l 0 -126 l -556 -126 l -556 -67 l 0 -67 z "},"॓":{"ha":0,"x_min":-279,"x_max":-100,"o":"m -100 726 l -139 688 l -279 826 l -231 875 l -100 726 z "},"॔":{"ha":0,"x_min":-201,"x_max":-22,"o":"m -201 726 l -69 875 l -22 826 l -161 688 l -201 726 z "},"ॕ":{"ha":0,"x_min":-364,"x_max":-4,"o":"m -358 725 l -10 725 l -10 675 l -358 675 l -358 725 m -65 889 l -4 889 q -58 784 -4 822 q -185 746 -112 746 q -310 784 -257 746 q -364 889 -364 822 l -303 889 q -269 824 -303 847 q -185 801 -235 801 q -100 824 -135 801 q -65 889 -65 847 z "},"ॖ":{"ha":0,"x_min":-326,"x_max":38,"o":"m -326 -67 l -265 -67 q -233 -105 -265 -85 q -144 -125 -201 -125 q -56 -105 -87 -125 q -24 -67 -24 -85 l 38 -67 q -16 -149 38 -117 q -144 -181 -69 -181 q -273 -149 -219 -181 q -326 -67 -326 -117 z "},"ॗ":{"ha":0,"x_min":-326,"x_max":38,"o":"m -326 -178 l -265 -178 q -233 -216 -265 -196 q -144 -236 -201 -236 q -56 -216 -87 -236 q -24 -178 -24 -196 l 38 -178 q -16 -260 38 -228 q -144 -292 -69 -292 q -273 -260 -219 -292 q -326 -178 -326 -228 m -326 -67 l -265 -67 q -233 -105 -265 -85 q -144 -125 -201 -125 q -56 -105 -87 -125 q -24 -67 -24 -85 l 38 -67 q -16 -149 38 -117 q -144 -181 -69 -181 q -273 -149 -219 -181 q -326 -67 -326 -117 z "},"क़":{"ha":808,"x_min":-22,"x_max":831,"o":"m 210 -79 l 149 -18 l 210 42 l 269 -18 l 210 -79 m 339 369 q 310 299 339 329 q 240 269 281 269 q 157 314 186 269 l 208 347 q 240 331 219 331 q 267 342 256 331 q 278 369 278 354 q 259 409 278 394 q 214 424 240 424 q 136 388 171 424 q 101 307 101 351 q 135 230 101 263 q 215 197 169 197 q 327 254 281 197 q 392 374 374 311 l 392 582 l -22 582 l -22 643 l 831 643 l 831 582 l 453 582 l 453 424 q 592 485 519 485 q 717 431 665 485 q 769 303 769 378 q 724 184 769 232 q 607 136 679 136 l 607 197 q 681 227 653 197 q 708 303 708 257 q 674 388 708 351 q 593 424 640 424 q 453 338 515 424 l 453 92 q 465 65 453 76 q 492 53 476 53 q 524 69 514 53 l 575 36 q 492 -8 546 -8 q 422 22 451 -8 q 392 92 392 51 l 392 244 q 215 136 325 136 q 92 186 143 136 q 40 307 40 236 q 92 431 40 378 q 214 485 143 485 q 302 452 265 485 q 339 369 339 419 z "},"ख़":{"ha":939,"x_min":-22,"x_max":961,"o":"m 132 -78 l 71 -17 l 132 43 l 192 -17 l 132 -78 m 821 53 q 853 69 842 53 l 904 36 q 821 -8 875 -8 q 752 21 781 -8 q 722 90 724 50 q 435 -1 586 -1 q 249 38 338 -1 q 108 153 161 78 q 53 335 53 233 q 64 392 53 369 l 122 375 q 114 347 114 363 q 129 316 114 329 q 164 303 144 303 q 209 324 193 303 q 225 378 225 344 l 225 582 l -22 582 l -22 643 l 961 643 l 961 582 l 783 582 l 783 92 q 795 65 783 76 q 821 53 807 53 m 129 247 q 249 108 163 156 q 432 60 336 60 q 722 165 592 60 l 722 243 q 546 136 657 136 q 422 186 474 136 q 369 307 369 236 q 422 431 369 378 q 544 485 474 485 q 625 458 593 485 q 658 414 643 443 q 669 369 669 392 q 640 299 669 328 q 569 269 611 269 q 486 314 515 269 l 538 347 q 569 331 547 331 q 597 342 586 331 q 608 369 608 353 q 603 390 608 376 q 588 408 600 399 q 544 424 567 424 q 466 388 501 424 q 431 307 431 351 q 465 230 431 263 q 546 197 500 197 q 658 254 611 197 q 722 374 704 311 l 722 582 l 286 582 l 286 392 q 255 283 286 325 q 164 242 224 242 q 129 247 151 242 z "},"ग़":{"ha":740,"x_min":-22,"x_max":764,"o":"m 154 -79 l 93 -18 l 154 42 l 214 -18 l 154 -79 m 213 329 l 175 329 q 100 278 100 329 q 113 245 100 258 q 143 232 125 232 q 213 329 193 232 m -22 643 l 764 643 l 764 582 l 586 582 l 586 92 q 597 65 586 76 q 624 53 608 53 q 656 69 644 53 l 707 36 q 624 -8 678 -8 q 554 22 583 -8 q 525 92 525 51 l 525 582 l 278 582 l 278 390 q 254 258 278 315 q 143 171 221 171 q 69 203 99 171 q 39 278 39 235 q 79 363 39 335 q 176 390 119 390 l 217 390 l 217 582 l -22 582 l -22 643 z "},"ज़":{"ha":768,"x_min":-22,"x_max":792,"o":"m 94 -79 l 33 -18 l 94 42 l 154 -18 l 94 -79 m 350 411 q 433 226 433 322 q 391 118 433 164 q 282 72 349 72 q 97 193 178 72 q 19 349 58 250 l 75 368 q 150 222 111 279 q 282 128 213 128 q 347 156 321 128 q 372 226 372 183 q 265 411 372 322 l 265 472 l 553 472 l 553 582 l -22 582 l -22 643 l 792 643 l 792 582 l 614 582 l 614 92 q 625 65 614 76 q 651 53 636 53 q 683 69 672 53 l 735 36 q 651 -8 706 -8 q 582 22 611 -8 q 553 92 553 51 l 553 411 l 350 411 z "},"ड़":{"ha":594,"x_min":-17,"x_max":613,"o":"m 354 -183 l 293 -122 l 354 -62 l 414 -122 l 354 -183 m -17 643 l 613 643 l 613 582 l 488 582 l 486 446 l 269 446 q 202 435 221 446 q 183 394 183 424 q 184 386 183 390 q 187 378 185 382 q 190 371 189 374 q 196 363 192 368 q 202 356 200 358 q 209 348 204 353 q 216 341 214 343 q 224 333 218 339 q 233 325 231 328 l 244 315 l 346 315 q 498 276 440 315 q 556 156 556 238 q 499 31 556 81 q 364 -19 442 -19 q 214 24 290 -19 q 8 199 110 83 l 54 240 q 244 76 154 128 q 364 42 303 42 q 456 74 417 42 q 494 156 494 107 q 400 251 494 236 q 346 254 383 254 l 225 254 l 190 286 q 176 299 188 289 q 158 317 165 310 q 141 338 150 325 q 127 365 132 350 q 122 394 122 379 q 135 452 122 429 q 173 485 149 475 q 219 498 197 494 q 269 501 240 501 l 426 501 l 426 582 l -17 582 l -17 643 z "},"ढ़":{"ha":572,"x_min":-22,"x_max":590,"o":"m 332 -183 l 271 -122 l 332 -62 l 392 -122 l 332 -183 m -22 643 l 590 643 l 590 582 l 465 582 l 465 411 l 286 411 q 118 299 118 411 q 191 152 118 218 q 346 86 264 86 q 434 118 399 86 q 469 203 469 150 q 438 281 469 249 q 367 314 407 314 q 324 299 342 314 q 306 263 306 285 q 317 235 306 246 q 340 224 328 224 q 357 229 347 224 l 375 175 q 340 168 357 168 q 272 197 300 168 q 244 263 244 225 q 282 340 244 310 q 367 369 319 369 q 483 319 436 369 q 531 203 531 269 q 477 79 531 128 q 346 31 424 31 q 147 113 238 31 q 57 299 57 194 q 124 427 57 388 q 286 467 192 467 l 404 467 l 404 582 l -22 582 l -22 643 z "},"फ़":{"ha":883,"x_min":-22,"x_max":907,"o":"m 164 -79 l 103 -18 l 164 42 l 224 -18 l 164 -79 m 451 389 l 451 582 l 169 582 l 169 364 q 201 274 169 303 q 283 244 232 244 q 385 288 342 244 q 451 389 428 331 m 550 -8 q 481 22 510 -8 q 451 92 451 51 l 451 269 q 283 183 386 183 q 159 231 210 183 q 108 364 108 279 l 108 582 l -22 582 l -22 643 l 907 643 l 907 582 l 513 582 l 513 424 q 651 485 576 485 q 777 431 725 485 q 829 303 829 378 q 783 184 829 232 q 665 136 738 136 l 665 197 q 740 227 711 197 q 768 303 768 257 q 734 388 768 351 q 653 424 700 424 q 513 338 575 424 l 513 92 q 524 65 513 76 q 550 53 536 53 q 582 69 572 53 l 633 36 q 550 -8 604 -8 z "},"य़":{"ha":701,"x_min":-22,"x_max":725,"o":"m 207 -79 l 146 -18 l 207 42 l 267 -18 l 207 -79 m 585 -8 q 515 22 544 -8 q 486 92 486 51 l 486 203 q 310 122 413 122 q 148 179 211 122 q 68 283 85 236 l 68 347 l 92 347 q 199 381 158 347 q 239 463 239 415 q 182 582 239 553 l -22 582 l -22 643 l 725 643 l 725 582 l 547 582 l 547 92 q 558 65 547 76 q 585 53 569 53 q 617 69 607 53 l 668 36 q 585 -8 639 -8 m 204 214 q 228 199 204 214 q 310 183 251 183 q 415 213 368 183 q 486 286 461 242 l 486 582 l 268 582 q 301 463 301 531 q 253 349 301 396 q 132 290 206 301 q 204 214 157 244 z "},"ॠ":{"ha":838,"x_min":-17,"x_max":854,"o":"m 568 361 q 608 376 593 369 q 638 400 624 383 q 653 439 653 417 q 640 472 653 458 q 608 486 626 485 q 565 465 583 486 q 547 417 547 444 q 568 361 547 383 m 763 125 l 811 93 q 676 29 760 29 q 570 69 614 29 q 526 169 526 110 q 565 264 526 225 l 547 290 l 419 250 l 419 92 q 431 65 419 76 q 458 53 443 53 q 490 69 481 53 l 542 36 q 458 -8 513 -8 q 388 22 418 -8 q 358 92 358 51 l 358 232 l 119 164 l 103 224 l 304 281 q 281 322 296 299 q 234 377 265 346 q 171 419 203 408 q 72 429 139 429 l 72 490 q 189 476 144 490 q 277 422 236 463 q 333 353 318 381 q 358 301 347 326 l 358 582 l -17 582 l -17 643 l 854 643 l 854 582 l 419 582 l 419 314 l 507 342 q 486 417 486 375 q 521 508 486 469 q 607 547 556 547 q 683 515 651 547 q 714 439 714 483 q 608 310 714 350 l 621 292 l 653 253 l 631 242 q 588 169 588 219 q 613 108 588 131 q 676 85 638 85 q 763 125 731 85 z "},"ॡ":{"ha":786,"x_min":-17,"x_max":803,"o":"m -17 643 l 803 643 l 803 582 l 511 582 l 511 469 q 623 410 576 460 q 669 292 669 360 q 647 202 669 243 q 597 138 625 161 q 531 83 568 114 q 478 28 494 51 q 453 -43 453 -7 q 490 -122 453 -92 q 575 -151 526 -151 q 631 -137 603 -151 l 660 -192 q 575 -212 622 -212 q 518 -217 522 -215 q 489 -258 489 -226 q 514 -308 489 -289 q 575 -328 539 -328 q 636 -308 607 -328 q 682 -261 665 -287 l 719 -307 q 658 -361 697 -339 q 575 -383 619 -383 q 472 -349 517 -383 q 428 -258 428 -315 q 467 -181 428 -208 q 392 -43 392 -132 q 488 125 392 44 q 513 146 493 129 q 542 169 533 163 q 566 193 550 176 q 589 222 582 210 q 602 253 596 235 q 608 292 608 272 q 571 376 608 342 q 482 411 533 411 q 386 372 425 411 q 347 276 347 333 l 286 276 q 315 383 286 338 q 236 417 282 417 q 142 372 178 417 q 106 265 106 328 q 158 118 106 188 q 279 8 210 49 l 249 -46 q 106 85 167 0 q 44 265 44 169 q 101 415 44 353 q 236 478 157 478 q 357 429 306 478 q 450 469 394 461 l 450 582 l -17 582 l -17 643 z "},"ॢ":{"ha":0,"x_min":-474,"x_max":-6,"o":"m -287 -183 l -347 -192 q -349 -174 -349 -186 q -336 -117 -349 -142 q -367 -94 -343 -94 q -399 -112 -385 -94 q -412 -161 -412 -131 q -343 -296 -412 -237 l -386 -336 q -474 -161 -474 -260 q -446 -77 -474 -115 q -367 -39 -418 -39 q -297 -69 -325 -39 q -219 -44 -262 -44 q -129 -82 -165 -44 q -93 -169 -93 -119 q -110 -237 -93 -206 q -149 -291 -128 -268 q -172 -326 -169 -314 q -175 -340 -175 -335 q -119 -386 -175 -386 q -47 -358 -79 -386 l -6 -399 q -119 -442 -58 -442 q -201 -414 -167 -442 q -236 -340 -236 -386 q -232 -312 -236 -325 q -188 -236 -222 -276 q -154 -169 -154 -196 q -174 -120 -154 -140 q -219 -100 -193 -100 q -267 -121 -247 -100 q -287 -174 -287 -142 l -287 -183 z "},"ॣ":{"ha":0,"x_min":-457,"x_max":0,"o":"m -81 -264 l -58 -314 q -97 -321 -79 -321 q -157 -303 -131 -321 q -178 -336 -178 -311 q -158 -374 -178 -360 q -108 -389 -139 -389 q -29 -365 -72 -389 l 0 -414 q -108 -444 -54 -444 q -199 -416 -158 -444 q -239 -336 -239 -387 q -187 -256 -239 -279 q -188 -251 -187 -254 q -189 -246 -189 -247 q -168 -183 -189 -211 q -147 -153 -147 -156 q -166 -117 -147 -132 q -210 -103 -185 -103 q -256 -124 -236 -103 q -275 -178 -275 -144 q -274 -182 -275 -179 q -274 -186 -274 -185 l -335 -192 q -335 -185 -335 -189 q -336 -178 -336 -181 q -321 -117 -336 -147 q -350 -97 -329 -97 q -382 -115 -368 -97 q -396 -162 -396 -132 q -326 -297 -396 -239 l -369 -337 q -457 -162 -457 -261 q -429 -79 -457 -117 q -350 -42 -401 -42 q -281 -69 -308 -42 q -210 -47 -250 -47 q -124 -77 -162 -47 q -86 -153 -86 -107 q -107 -215 -86 -187 q -128 -246 -128 -242 q -97 -265 -128 -265 q -81 -264 -83 -265 z "},"।":{"ha":332,"x_min":136,"x_max":197,"o":"m 136 -61 l 136 643 l 197 643 l 197 -61 l 136 -61 z "},"॥":{"ha":589,"x_min":136,"x_max":453,"o":"m 136 643 l 197 643 l 197 -61 l 136 -61 l 136 643 m 392 -61 l 392 643 l 453 643 l 453 -61 l 392 -61 z "},"०":{"ha":556,"x_min":38,"x_max":518,"o":"m 153 435 q 126 406 153 435 q 100 294 100 378 q 153 154 100 211 q 278 97 206 97 q 403 154 350 97 q 456 294 456 211 q 403 435 456 378 q 278 492 350 492 q 153 435 206 492 m 107 117 q 72 154 107 117 q 38 294 38 192 q 107 472 38 397 q 278 547 176 547 q 449 472 379 547 q 518 294 518 397 q 449 117 518 192 q 278 42 379 42 q 107 117 176 42 z "},"१":{"ha":556,"x_min":113,"x_max":443,"o":"m 229 306 q 113 493 113 394 q 160 602 113 557 q 275 647 208 647 q 394 601 344 647 q 443 490 443 556 q 422 412 443 450 q 383 355 401 374 q 332 311 364 336 l 203 214 q 281 138 254 164 q 340 25 340 82 q 292 -60 340 -29 l 258 -14 q 279 25 279 -3 q 236 100 279 57 l 117 219 l 229 306 m 278 342 q 327 382 308 365 q 364 429 346 399 q 382 490 382 460 q 350 563 382 533 q 275 592 318 592 q 204 563 235 592 q 174 493 174 535 q 278 342 174 415 z "},"२":{"ha":556,"x_min":49,"x_max":507,"o":"m 222 164 q 115 197 161 164 q 69 289 69 229 q 98 358 69 329 q 169 386 126 386 q 269 339 222 386 q 338 254 301 310 q 444 424 444 319 q 408 524 444 481 q 258 588 354 588 q 93 522 163 588 l 49 563 q 258 643 136 643 q 456 557 383 643 q 507 424 507 496 q 469 299 507 356 q 371 208 431 243 q 493 3 435 118 l 440 -21 q 315 182 390 75 q 222 164 267 164 m 129 289 q 155 238 129 257 q 222 219 181 219 q 282 231 251 219 q 225 301 233 293 q 169 331 196 331 q 141 319 153 331 q 129 289 129 308 z "},"३":{"ha":556,"x_min":78,"x_max":478,"o":"m 478 214 q 353 19 478 96 l 411 -67 l 358 -94 q 297 -6 318 -35 q 214 -22 254 -22 q 119 8 161 -22 q 78 89 78 38 q 104 152 78 125 q 169 179 131 179 q 267 131 222 179 q 319 67 294 103 q 418 214 418 125 q 372 313 418 275 q 258 350 326 350 l 211 350 l 211 406 l 258 406 q 352 431 315 406 q 389 500 389 456 q 351 570 389 542 q 267 599 314 599 q 160 561 206 599 l 119 603 q 267 654 185 654 q 394 612 336 654 q 451 500 451 569 q 375 378 451 422 q 478 214 478 324 m 263 44 q 218 97 242 74 q 167 125 193 125 q 136 92 136 125 q 157 51 136 65 q 211 36 178 36 q 258 43 231 36 l 260 44 q 263 44 261 44 z "},"४":{"ha":556,"x_min":67,"x_max":489,"o":"m 97 183 q 224 383 97 299 q 115 491 163 421 q 67 643 67 561 l 128 643 q 173 510 128 574 q 278 417 218 447 q 383 510 338 447 q 428 643 428 574 l 489 643 q 441 491 489 561 q 332 383 393 421 q 458 183 458 299 q 447 122 458 153 q 383 38 429 72 q 276 3 338 3 q 148 55 199 3 q 97 183 97 107 m 192 93 q 208 76 192 93 q 276 58 225 58 q 363 94 328 58 q 397 183 397 129 q 377 258 397 224 q 335 309 357 292 q 278 350 314 326 q 199 288 228 318 q 161 215 171 258 q 158 183 158 206 q 192 93 158 128 z "},"५":{"ha":556,"x_min":15,"x_max":540,"o":"m 492 -75 l 460 -25 q 481 8 481 -12 q 456 67 481 32 q 421 122 450 75 q 374 192 392 169 q 296 179 336 179 q 98 260 181 179 q 15 453 15 342 q 103 647 15 567 l 144 607 q 75 453 75 542 q 141 299 75 364 q 296 235 207 235 q 333 239 313 235 q 292 343 292 292 q 319 415 292 383 q 392 446 347 446 q 465 413 438 446 q 493 338 493 381 q 426 219 493 269 q 508 96 449 190 q 540 8 540 46 q 492 -75 540 -50 m 392 264 q 433 338 433 293 q 420 375 433 360 q 392 390 407 390 q 365 377 376 390 q 353 343 353 364 q 392 264 353 313 z "},"६":{"ha":556,"x_min":58,"x_max":497,"o":"m 397 57 q 436 121 436 82 q 428 147 436 138 q 408 157 419 157 q 390 145 400 157 q 381 114 381 133 q 397 57 381 88 m 278 350 q 165 314 211 350 q 119 219 119 278 q 183 91 119 149 q 321 33 247 33 q 342 36 328 33 q 319 114 319 78 q 344 181 319 150 q 408 213 368 213 q 473 185 449 213 q 497 121 497 157 q 429 8 497 51 q 455 -29 438 -3 q 483 -69 472 -56 l 432 -99 q 374 -15 403 -60 q 321 -22 346 -22 q 139 49 219 -22 q 58 219 58 121 q 161 378 58 322 q 86 500 86 421 q 143 612 86 569 q 269 654 200 654 q 415 603 350 654 l 375 561 q 269 599 329 599 q 185 570 222 599 q 147 500 147 542 q 184 431 147 456 q 278 406 221 406 l 322 406 l 322 350 l 278 350 z "},"७":{"ha":556,"x_min":18,"x_max":538,"o":"m 367 481 q 491 418 444 481 q 538 269 538 356 q 493 114 538 186 q 292 -4 419 -4 q 153 40 215 -4 q 53 172 88 86 q 18 357 18 257 q 85 643 18 493 l 140 622 q 78 357 78 485 q 109 195 78 269 q 192 85 140 121 q 292 51 240 51 q 410 102 361 51 q 474 222 460 153 q 382 194 432 194 q 272 237 317 194 q 226 342 226 279 q 267 440 226 399 q 367 481 308 481 m 474 314 q 437 392 465 360 q 367 425 408 425 q 310 401 335 425 q 286 342 286 378 q 315 276 286 303 q 382 250 343 250 q 438 268 413 250 q 474 314 463 286 z "},"८":{"ha":556,"x_min":60,"x_max":496,"o":"m 314 647 l 363 614 q 197 403 235 458 q 122 204 122 292 q 163 93 122 138 q 263 49 204 49 q 374 95 329 49 q 436 207 419 142 l 496 194 q 415 53 476 113 q 263 -7 353 -7 q 117 56 175 -7 q 60 204 60 119 q 147 431 60 303 q 314 647 188 489 z "},"९":{"ha":556,"x_min":86,"x_max":469,"o":"m 422 -58 l 389 -12 q 408 25 408 0 q 367 103 408 56 q 153 347 181 314 q 86 493 86 428 q 135 603 86 557 q 251 649 183 649 q 367 603 318 649 q 415 494 415 558 q 364 369 415 435 q 278 292 331 328 q 414 138 371 188 q 423 127 415 136 q 434 114 431 118 q 444 100 438 110 q 453 83 450 90 q 461 67 457 76 q 467 47 465 57 q 469 25 469 36 q 422 -58 469 -32 m 240 335 q 315 403 282 363 q 356 494 356 450 q 324 565 356 538 q 251 593 293 593 q 178 565 210 593 q 147 493 147 536 q 203 381 147 444 q 221 358 208 374 q 240 335 233 343 z "},"॰":{"ha":424,"x_min":44,"x_max":381,"o":"m 136 398 q 120 382 136 398 q 104 319 104 367 q 137 240 104 272 q 213 208 169 208 q 288 240 256 208 q 319 319 319 272 q 288 398 319 367 q 213 429 256 429 q 136 398 168 429 m 93 202 q 69 227 93 202 q 44 319 44 251 q 93 436 44 388 q 213 485 142 485 q 332 436 283 485 q 381 319 381 388 q 332 202 381 251 q 213 153 283 153 q 93 202 142 153 z "},"ॱ":{"ha":372,"x_min":142,"x_max":231,"o":"m 142 704 l 142 793 l 231 793 l 231 704 l 142 704 z "},"ॲ":{"ha":900,"x_min":33,"x_max":924,"o":"m 826 858 l 888 858 q 833 748 888 792 q 708 704 778 704 q 583 748 638 704 q 528 858 528 792 l 589 858 q 624 788 589 815 q 708 760 660 760 q 791 788 756 760 q 826 858 826 815 m 521 253 q 465 130 521 178 q 329 82 408 82 q 151 144 232 82 q 33 294 71 207 l 89 319 q 185 196 119 249 q 329 143 251 143 q 421 174 382 143 q 460 253 460 204 q 444 317 460 292 q 399 352 429 342 q 340 366 368 363 q 268 369 311 369 l 257 369 l 257 429 l 268 429 q 366 458 335 429 q 397 525 397 486 q 366 590 397 564 q 292 615 335 615 q 164 546 213 615 l 114 579 q 189 649 142 621 q 292 676 236 676 q 408 633 358 676 q 458 525 458 589 q 413 418 458 464 q 464 381 439 406 q 564 340 507 340 q 685 403 638 340 l 685 582 l 558 582 l 558 643 l 924 643 l 924 582 l 746 582 l 746 92 q 757 65 746 76 q 783 53 768 53 q 815 69 806 53 l 867 36 q 783 -8 838 -8 q 713 22 742 -8 q 685 92 685 51 l 685 324 q 564 285 631 285 q 518 290 546 285 q 521 253 521 281 z "},"ॳ":{"ha":900,"x_min":33,"x_max":924,"o":"m 521 253 q 465 130 521 178 q 329 82 408 82 q 151 144 232 82 q 33 294 71 207 l 89 319 q 185 196 119 249 q 329 143 251 143 q 421 174 382 143 q 460 253 460 204 q 444 317 460 292 q 399 352 429 342 q 340 366 368 363 q 268 369 311 369 l 257 369 l 257 429 l 268 429 q 366 458 335 429 q 397 525 397 486 q 366 590 397 564 q 292 615 335 615 q 164 546 213 615 l 114 579 q 189 649 142 621 q 292 676 236 676 q 408 633 358 676 q 458 525 458 589 q 413 418 458 464 q 464 381 439 406 q 564 340 507 340 q 685 403 638 340 l 685 582 l 558 582 l 558 643 l 685 643 l 685 760 l 746 760 l 746 643 l 924 643 l 924 582 l 746 582 l 746 92 q 757 65 746 76 q 783 53 768 53 q 815 69 806 53 l 867 36 q 783 -8 838 -8 q 713 22 742 -8 q 685 92 685 51 l 685 324 q 564 285 631 285 q 518 290 546 285 q 521 253 521 281 z "},"ॴ":{"ha":1158,"x_min":33,"x_max":1181,"o":"m 521 253 q 465 130 521 178 q 329 82 408 82 q 151 144 232 82 q 33 294 71 207 l 89 319 q 185 196 119 249 q 329 143 251 143 q 421 174 382 143 q 460 253 460 204 q 444 317 460 292 q 399 352 429 342 q 340 366 368 363 q 268 369 311 369 l 257 369 l 257 429 l 268 429 q 366 458 335 429 q 397 525 397 486 q 366 590 397 564 q 292 615 335 615 q 164 546 213 615 l 114 579 q 189 649 142 621 q 292 676 236 676 q 408 633 358 676 q 458 525 458 589 q 413 418 458 464 q 464 381 439 406 q 564 340 507 340 q 685 403 638 340 l 685 582 l 558 582 l 558 643 l 942 643 l 942 760 l 1003 760 l 1003 643 l 1181 643 l 1181 582 l 1003 582 l 1003 92 q 1015 65 1003 76 q 1042 53 1026 53 q 1074 69 1064 53 l 1125 36 q 1042 -8 1096 -8 q 971 22 1000 -8 q 942 92 942 51 l 942 582 l 746 582 l 746 92 q 757 65 746 76 q 783 53 768 53 q 815 69 806 53 l 867 36 q 783 -8 838 -8 q 713 22 742 -8 q 685 92 685 51 l 685 324 q 564 285 631 285 q 518 290 546 285 q 521 253 521 281 z "},"ॵ":{"ha":1158,"x_min":33,"x_max":1181,"o":"m 719 933 l 781 933 l 781 903 l 799 903 q 988 829 913 903 q 1064 643 1064 756 l 1181 643 l 1181 582 l 1003 582 l 1003 92 q 1015 65 1003 76 q 1042 53 1026 53 q 1074 69 1064 53 l 1125 36 q 1042 -8 1096 -8 q 971 22 1000 -8 q 942 92 942 51 l 942 582 l 746 582 l 746 92 q 757 65 746 76 q 783 53 768 53 q 815 69 806 53 l 867 36 q 783 -8 838 -8 q 713 22 742 -8 q 685 92 685 51 l 685 324 q 564 285 631 285 q 518 290 546 285 q 521 253 521 281 q 465 130 521 178 q 329 82 408 82 q 151 144 232 82 q 33 294 71 207 l 89 319 q 185 196 119 249 q 329 143 251 143 q 421 174 382 143 q 460 253 460 204 q 444 317 460 292 q 399 352 429 342 q 340 366 368 363 q 268 369 311 369 l 257 369 l 257 429 l 268 429 q 366 458 335 429 q 397 525 397 486 q 366 590 397 564 q 292 615 335 615 q 164 546 213 615 l 114 579 q 189 649 142 621 q 292 676 236 676 q 408 633 358 676 q 458 525 458 589 q 413 418 458 464 q 464 381 439 406 q 564 340 507 340 q 685 403 638 340 l 685 582 l 558 582 l 558 643 l 881 643 q 865 705 881 690 q 799 719 849 719 l 740 719 q 634 755 671 719 q 597 858 597 790 l 658 858 q 675 797 658 811 q 740 782 692 782 l 799 782 q 905 747 868 782 q 942 643 942 711 l 1003 643 q 944 791 1003 735 q 799 847 886 847 l 749 847 q 728 854 738 847 q 719 874 719 861 l 719 933 z "},"ॶ":{"ha":900,"x_min":33,"x_max":924,"o":"m 556 -67 l 617 -67 q 649 -105 617 -85 q 738 -125 681 -125 q 826 -105 794 -125 q 858 -67 858 -85 l 919 -67 q 866 -149 919 -117 q 738 -181 813 -181 q 609 -149 663 -181 q 556 -67 556 -117 m 521 253 q 465 130 521 178 q 329 82 408 82 q 151 144 232 82 q 33 294 71 207 l 89 319 q 185 196 119 249 q 329 143 251 143 q 421 174 382 143 q 460 253 460 204 q 444 317 460 292 q 399 352 429 342 q 340 366 368 363 q 268 369 311 369 l 257 369 l 257 429 l 268 429 q 366 458 335 429 q 397 525 397 486 q 366 590 397 564 q 292 615 335 615 q 164 546 213 615 l 114 579 q 189 649 142 621 q 292 676 236 676 q 408 633 358 676 q 458 525 458 589 q 413 418 458 464 q 464 381 439 406 q 564 340 507 340 q 685 403 638 340 l 685 582 l 558 582 l 558 643 l 924 643 l 924 582 l 746 582 l 746 92 q 757 65 746 76 q 783 53 768 53 q 815 69 806 53 l 867 36 q 783 -8 838 -8 q 713 22 742 -8 q 685 92 685 51 l 685 324 q 564 285 631 285 q 518 290 546 285 q 521 253 521 281 z "},"ॷ":{"ha":900,"x_min":33,"x_max":924,"o":"m 550 -178 l 611 -178 q 643 -216 611 -196 q 732 -236 675 -236 q 821 -216 789 -236 q 853 -178 853 -196 l 914 -178 q 860 -260 914 -228 q 732 -292 807 -292 q 603 -260 657 -292 q 550 -178 550 -228 m 550 -67 l 611 -67 q 643 -105 611 -85 q 732 -125 675 -125 q 821 -105 789 -125 q 853 -67 853 -85 l 914 -67 q 860 -149 914 -117 q 732 -181 807 -181 q 603 -149 657 -181 q 550 -67 550 -117 m 521 253 q 465 130 521 178 q 329 82 408 82 q 151 144 232 82 q 33 294 71 207 l 89 319 q 185 196 119 249 q 329 143 251 143 q 421 174 382 143 q 460 253 460 204 q 444 317 460 292 q 399 352 429 342 q 340 366 368 363 q 268 369 311 369 l 257 369 l 257 429 l 268 429 q 366 458 335 429 q 397 525 397 486 q 366 590 397 564 q 292 615 335 615 q 164 546 213 615 l 114 579 q 189 649 142 621 q 292 676 236 676 q 408 633 358 676 q 458 525 458 589 q 413 418 458 464 q 464 381 439 406 q 564 340 507 340 q 685 403 638 340 l 685 582 l 558 582 l 558 643 l 924 643 l 924 582 l 746 582 l 746 92 q 757 65 746 76 q 783 53 768 53 q 815 69 806 53 l 867 36 q 783 -8 838 -8 q 713 22 742 -8 q 685 92 685 51 l 685 324 q 564 285 631 285 q 518 290 546 285 q 521 253 521 281 z "},"ॹ":{"ha":768,"x_min":-22,"x_max":792,"o":"m 118 -87 l 58 -26 l 118 33 l 178 -26 l 118 -87 m 257 -208 l 197 -147 l 257 -86 l 317 -147 l 257 -208 m 393 -87 l 333 -26 l 393 33 l 453 -26 l 393 -87 m 350 411 q 433 226 433 322 q 391 118 433 164 q 282 72 349 72 q 97 193 178 72 q 19 349 58 250 l 75 368 q 150 222 111 279 q 282 128 213 128 q 347 156 321 128 q 372 226 372 183 q 265 411 372 322 l 265 472 l 553 472 l 553 582 l -22 582 l -22 643 l 792 643 l 792 582 l 614 582 l 614 92 q 625 65 614 76 q 651 53 636 53 q 683 69 672 53 l 735 36 q 651 -8 706 -8 q 582 22 611 -8 q 553 92 553 51 l 553 411 l 350 411 z "},"ॺ":{"ha":744,"x_min":-17,"x_max":763,"o":"m 525 289 l 525 582 l 307 582 q 340 474 336 538 l 525 289 m 488 239 l 328 400 q 267 328 310 357 q 171 290 225 299 q 243 214 196 244 q 349 183 290 183 q 488 239 428 183 m 624 -8 q 554 22 583 -8 q 525 92 525 51 l 525 203 q 349 122 451 122 q 187 179 250 122 q 107 283 124 236 l 107 347 l 131 347 q 238 381 197 347 q 278 463 278 415 q 221 582 278 553 l -17 582 l -17 643 l 763 643 l 763 582 l 586 582 l 586 92 q 597 65 586 76 q 624 53 608 53 q 656 69 644 53 l 707 36 q 624 -8 678 -8 z "},"ॻ":{"ha":740,"x_min":-22,"x_max":764,"o":"m 143 232 q 211 329 192 232 l 175 329 q 100 278 100 329 q 113 245 100 258 q 143 232 125 232 m 586 39 q 556 -31 586 -1 q 486 -60 526 -60 l 76 -60 l 76 0 l 486 0 q 513 12 501 0 q 525 39 525 24 l 525 582 l 278 582 l 278 390 q 243 237 278 303 q 142 171 208 171 q 67 203 97 171 q 38 278 38 235 q 79 363 38 335 q 176 390 121 390 l 215 390 l 215 582 l -22 582 l -22 643 l 764 643 l 764 582 l 586 582 l 586 39 z "},"ॼ":{"ha":767,"x_min":-22,"x_max":789,"o":"m 347 411 q 431 226 431 322 q 389 118 431 164 q 281 72 347 72 q 187 99 231 72 q 110 172 143 125 q 58 258 78 218 q 17 349 38 297 l 74 368 q 281 128 171 128 q 344 156 319 128 q 369 226 369 183 q 264 411 369 324 l 264 472 l 550 472 l 550 582 l -22 582 l -22 643 l 789 643 l 789 582 l 611 582 l 611 39 q 582 -31 611 -1 q 513 -60 553 -60 l 33 -60 l 33 0 l 513 0 q 539 11 528 0 q 550 38 550 22 l 550 411 l 347 411 z "},"ॽ":{"ha":464,"x_min":28,"x_max":436,"o":"m 238 -8 q 168 22 197 -8 q 139 92 139 51 l 139 292 l 183 292 q 320 342 265 299 q 375 456 375 386 q 329 553 375 515 q 219 592 283 592 q 69 535 135 592 l 28 575 q 219 647 114 647 q 372 593 307 647 q 436 456 436 539 q 367 306 436 363 q 200 238 299 249 l 200 92 q 212 65 200 76 q 238 53 224 53 q 269 69 258 53 l 321 36 q 238 -8 292 -8 z "},"ॾ":{"ha":594,"x_min":-17,"x_max":613,"o":"m -17 643 l 613 643 l 613 582 l 488 582 l 486 446 l 269 446 q 202 435 221 446 q 183 394 183 424 q 184 386 183 390 q 187 378 185 382 q 190 371 189 374 q 196 363 192 368 q 202 356 200 358 q 209 348 204 353 q 216 341 214 343 q 224 333 218 339 q 233 325 231 328 l 243 315 l 333 315 q 533 172 533 315 q 474 59 533 94 q 338 24 415 24 q 125 103 231 24 q 14 201 64 147 l 54 246 q 156 153 107 189 q 338 85 251 85 q 439 108 400 85 q 478 172 478 131 q 333 256 478 256 l 229 256 l 190 286 q 122 394 122 340 q 135 452 122 429 q 173 485 149 475 q 219 498 197 494 q 269 501 240 501 l 426 501 l 426 582 l -17 582 l -17 643 m 574 0 l 574 -60 l 22 -60 l 22 0 l 574 0 z "},"ॿ":{"ha":585,"x_min":-17,"x_max":603,"o":"m 331 213 l 164 381 q 138 308 138 347 q 173 226 138 260 q 258 193 208 193 q 331 213 296 193 m 431 365 l 431 388 q 276 429 342 429 q 211 417 240 429 l 378 250 q 431 365 422 301 m 492 39 q 463 -31 492 -1 q 393 -60 433 -60 l 56 -60 l 56 0 l 393 0 q 419 12 408 0 q 431 39 431 24 l 431 218 q 258 132 360 132 q 131 183 185 132 q 76 308 76 233 q 79 333 76 317 q 144 447 90 403 q 276 490 199 490 q 431 456 349 490 l 431 582 l -17 582 l -17 643 l 603 643 l 603 582 l 492 582 l 492 39 z "},"‌":{"ha":0,"x_min":0,"x_max":61,"o":"m 0 -444 l 0 944 l 61 944 l 61 -444 l 0 -444 z "},"–":{"ha":706,"x_min":0,"x_max":704,"o":"m 704 260 l 0 260 l 0 322 l 704 322 l 704 260 z "},"—":{"ha":1389,"x_min":0,"x_max":1389,"o":"m 1389 260 l 0 260 l 0 322 l 1389 322 l 1389 260 z "},"‘":{"ha":289,"x_min":19,"x_max":235,"o":"m 235 668 l 210 631 l 19 753 l 58 807 l 235 668 z "},"’":{"ha":214,"x_min":50,"x_max":131,"o":"m 119 547 l 61 547 l 50 760 l 131 760 l 119 547 z "},"“":{"ha":349,"x_min":57,"x_max":258,"o":"m 125 547 l 68 547 l 57 760 l 136 760 l 125 547 m 247 547 l 190 547 l 179 760 l 258 760 l 247 547 z "},"”":{"ha":349,"x_min":57,"x_max":258,"o":"m 125 547 l 68 547 l 57 760 l 136 760 l 125 547 m 247 547 l 190 547 l 179 760 l 258 760 l 247 547 z "},"…":{"ha":686,"x_min":53,"x_max":606,"o":"m 525 9 q 518 16 525 9 q 511 42 511 22 q 525 76 511 61 q 557 90 539 90 q 591 76 576 90 q 606 42 606 61 q 591 10 606 24 q 557 -4 576 -4 q 525 9 539 -4 m 295 9 q 289 16 295 9 q 282 42 282 22 q 296 76 282 61 q 328 90 310 90 q 362 76 347 90 q 376 42 376 61 q 362 10 376 24 q 328 -4 347 -4 q 295 9 308 -4 m 67 9 q 60 16 67 9 q 53 42 53 22 q 67 76 53 61 q 99 90 81 90 q 133 76 118 90 q 147 42 147 61 q 133 10 147 24 q 99 -4 118 -4 q 67 9 81 -4 z "},"₹":{"ha":639,"x_min":67,"x_max":572,"o":"m 408 582 q 461 496 449 549 l 572 496 l 572 435 l 460 435 q 357 319 442 357 q 214 286 300 293 l 226 281 q 269 250 254 272 q 403 71 356 143 q 432 56 414 56 q 469 92 469 56 l 533 92 q 504 20 533 49 q 433 -8 475 -8 q 350 36 382 -8 l 236 192 q 172 257 204 235 q 86 283 140 279 l 86 339 l 101 339 q 122 338 108 339 q 142 338 135 338 q 397 435 360 338 l 67 435 l 67 496 l 397 496 q 269 582 376 564 l 67 582 l 67 643 l 572 643 l 572 582 l 408 582 z "},"−":{"ha":483,"x_min":60,"x_max":390,"o":"m 390 308 l 60 308 l 60 371 l 390 371 l 390 308 z "},"◌":{"ha":742,"x_min":44,"x_max":697,"o":"m 163 569 q 340 644 238 633 l 340 582 q 206 526 264 574 l 163 569 m 163 483 q 106 349 114 424 l 44 349 q 119 526 56 451 l 163 483 m 106 286 q 163 153 114 213 l 119 108 q 44 286 54 186 l 106 286 m 204 108 q 340 53 263 61 l 340 -8 q 161 64 235 3 l 204 108 m 403 53 q 538 108 479 61 l 581 64 q 403 -8 507 3 l 403 53 m 581 153 q 636 286 628 211 l 697 286 q 624 108 688 185 l 581 153 m 636 349 q 581 483 628 425 l 624 526 q 697 349 686 453 l 636 349 m 536 526 q 403 582 478 574 l 403 644 q 581 569 506 633 l 536 526 z "},"꣠":{"ha":0,"x_min":-314,"x_max":-96,"o":"m -282 744 q -298 759 -282 744 q -314 819 -314 775 q -282 896 -314 864 q -204 928 -250 928 q -127 896 -158 928 q -96 819 -96 864 q -127 744 -96 775 q -204 713 -158 713 q -282 744 -250 713 m -256 873 q -267 862 -256 873 q -278 819 -278 851 q -256 767 -278 788 q -204 746 -235 746 q -152 767 -174 746 q -131 819 -131 788 q -153 873 -131 851 q -204 894 -175 894 q -256 873 -233 894 z "},"꣡":{"ha":0,"x_min":-240,"x_max":-93,"o":"m -194 803 q -237 878 -237 840 q -217 925 -237 906 q -167 944 -196 944 q -115 924 -136 944 q -93 875 -93 903 q -95 858 -93 867 q -99 844 -97 850 q -107 831 -101 838 q -116 819 -112 824 q -127 809 -119 815 q -137 801 -135 803 q -149 793 -140 799 q -158 786 -157 788 q -172 775 -162 782 q -187 764 -182 768 q -160 739 -171 750 q -136 690 -136 715 q -157 651 -136 664 l -178 679 q -172 690 -172 685 q -186 715 -172 701 q -205 733 -190 719 q -228 756 -219 747 q -225 779 -240 768 q -210 791 -221 783 q -194 803 -200 799 m -167 824 q -131 875 -131 851 q -142 900 -131 889 q -167 911 -153 911 q -191 901 -181 911 q -201 878 -201 892 q -167 824 -201 849 z "},"꣢":{"ha":0,"x_min":-236,"x_max":-43,"o":"m -211 886 l -236 910 q -149 944 -199 944 q -74 919 -106 944 q -43 851 -43 893 q -96 763 -43 796 q -49 685 -67 718 l -82 671 q -128 747 -101 707 q -164 742 -150 742 q -210 756 -189 742 q -231 797 -231 771 q -218 828 -231 815 q -186 842 -206 842 q -140 821 -161 842 q -114 792 -135 817 q -81 851 -81 814 q -100 894 -81 878 q -149 911 -119 911 q -211 886 -183 911 m -149 776 q -167 797 -154 785 q -186 808 -178 808 q -194 797 -194 808 q -164 775 -194 775 q -149 776 -153 775 z "},"꣣":{"ha":0,"x_min":-274,"x_max":-97,"o":"m -203 700 q -231 722 -221 722 q -236 714 -236 722 q -212 699 -236 699 q -207 700 -211 700 l -203 700 m -258 918 q -190 944 -221 944 q -134 925 -160 944 q -108 875 -108 906 q -133 828 -108 847 q -97 761 -97 803 q -146 682 -97 714 l -122 647 l -156 629 l -181 665 q -211 660 -203 660 q -254 674 -235 660 q -274 711 -274 688 q -261 741 -274 728 q -229 754 -249 754 q -185 733 -206 754 q -167 713 -171 719 q -136 761 -136 733 q -152 795 -136 782 q -193 808 -168 808 l -219 808 l -219 844 l -193 844 q -147 875 -147 844 q -160 899 -147 889 q -190 908 -174 908 q -233 892 -212 908 l -258 918 z "},"꣤":{"ha":0,"x_min":-232,"x_max":-51,"o":"m -174 835 q -232 926 -232 875 q -231 944 -232 940 l -194 944 q -196 926 -196 942 q -142 856 -196 888 q -112 875 -121 868 q -96 895 -104 882 q -87 926 -87 908 q -89 944 -87 942 l -53 944 q -51 926 -51 940 q -108 836 -51 874 q -64 756 -64 804 q -86 701 -64 724 q -142 678 -108 678 q -197 701 -175 678 q -219 756 -219 724 q -174 835 -219 800 m -142 815 q -183 756 -183 789 q -171 724 -183 736 q -142 711 -158 711 q -112 724 -125 711 q -100 756 -100 736 q -142 815 -100 789 z "},"꣥":{"ha":0,"x_min":-276,"x_max":-54,"o":"m -76 647 l -96 676 q -92 686 -92 678 q -99 706 -92 694 q -131 753 -121 742 q -158 747 -147 747 q -242 783 -207 747 q -276 864 -276 818 q -240 944 -276 913 l -214 921 q -240 864 -240 897 q -216 806 -240 831 q -158 781 -192 781 q -156 781 -157 781 q -153 782 -154 782 q -165 819 -165 800 q -153 851 -165 838 q -119 865 -140 865 q -86 851 -99 865 q -74 818 -74 836 q -97 768 -74 789 q -81 744 -90 760 q -68 724 -71 729 q -54 686 -54 696 q -76 647 -54 658 m -119 796 q -110 818 -110 806 q -119 832 -110 832 q -129 819 -129 832 q -119 796 -129 807 z "},"꣦":{"ha":0,"x_min":-225,"x_max":-36,"o":"m -69 629 q -81 644 -71 631 q -96 664 -90 657 q -114 661 -112 661 q -191 692 -157 661 q -225 764 -225 722 q -189 828 -225 801 q -214 876 -214 846 q -189 926 -214 907 q -133 944 -164 944 q -65 919 -100 944 l -90 892 q -133 910 -114 910 q -162 900 -150 910 q -175 876 -175 890 q -131 844 -175 844 l -106 844 l -106 810 l -131 810 q -170 797 -154 810 q -186 764 -186 785 q -163 718 -186 739 q -114 696 -140 697 q -119 722 -119 713 q -108 753 -119 739 q -78 768 -97 768 q -47 755 -58 768 q -36 725 -36 742 q -61 679 -36 696 q -50 663 -57 674 q -39 647 -43 653 l -69 629 m -81 708 q -74 725 -74 715 q -78 733 -74 733 q -82 722 -82 729 q -81 708 -82 711 z "},"꣧":{"ha":0,"x_min":-314,"x_max":-92,"o":"m -135 769 q -161 764 -151 764 q -210 783 -189 764 q -231 829 -231 803 q -212 872 -231 854 q -168 890 -194 890 q -112 862 -132 890 q -92 799 -92 833 q -121 719 -92 754 q -197 685 -150 685 q -284 731 -254 685 q -314 835 -314 778 q -289 944 -314 888 l -254 932 q -276 835 -276 883 q -254 752 -276 786 q -197 718 -232 718 q -135 769 -151 718 m -131 818 q -168 857 -139 857 q -193 829 -193 857 q -183 806 -193 815 q -161 797 -174 797 q -137 808 -149 797 q -131 818 -133 813 z "},"꣨":{"ha":0,"x_min":-249,"x_max":-64,"o":"m -147 944 l -117 925 q -182 840 -169 860 q -212 764 -212 796 q -198 723 -212 739 q -162 707 -183 707 q -123 724 -140 707 q -99 765 -106 740 l -64 758 q -98 699 -72 725 q -162 674 -124 674 q -225 700 -201 674 q -249 764 -249 726 q -214 858 -249 808 q -147 944 -201 878 z "},"꣩":{"ha":0,"x_min":-242,"x_max":-75,"o":"m -97 876 q -150 796 -97 836 l -100 738 q -75 689 -75 713 q -97 651 -75 665 l -118 679 q -112 689 -112 682 q -128 717 -112 699 q -214 814 -168 758 q -242 876 -242 849 q -220 924 -242 904 q -169 944 -199 944 q -119 924 -140 944 q -97 876 -97 904 m -172 821 q -133 876 -133 853 q -144 901 -133 890 q -169 911 -156 911 q -194 901 -183 911 q -204 876 -204 890 q -172 821 -204 857 z "},"꣪":{"ha":0,"x_min":-531,"x_max":-176,"o":"m -499 910 q -419 958 -467 958 q -368 939 -390 958 q -346 890 -346 919 q -360 849 -346 865 q -349 841 -356 846 q -340 833 -343 836 q -331 828 -336 831 q -319 826 -325 826 q -286 836 -296 826 l -286 907 l -315 907 l -315 944 l -176 944 l -176 907 l -247 907 l -247 717 q -239 708 -247 708 q -229 718 -236 708 l -197 697 q -239 671 -215 671 q -272 684 -258 671 q -286 717 -286 697 l -286 797 q -319 790 -311 790 l -319 786 l -319 782 q -344 728 -319 750 q -403 707 -368 707 q -481 735 -447 707 q -531 801 -514 763 l -496 817 q -458 765 -483 786 q -403 744 -433 744 q -371 755 -383 744 q -358 782 -358 765 q -375 815 -358 807 q -428 822 -392 822 l -439 822 l -439 858 l -428 858 q -383 890 -383 858 q -394 911 -383 903 q -419 919 -404 919 q -467 890 -449 919 l -499 910 z "},"꣫":{"ha":0,"x_min":-249,"x_max":0,"o":"m -192 799 q -160 738 -185 764 q -108 711 -136 711 q -77 724 -90 711 q -64 758 -64 738 q -81 799 -64 783 q -122 814 -97 814 l -150 814 l -150 847 l -125 847 q -97 882 -97 853 q -111 910 -97 899 l -249 910 l -249 947 l 0 947 l 0 910 l -65 910 q -58 882 -58 896 q -76 838 -58 861 q -25 758 -25 811 q -49 701 -25 725 q -108 676 -74 676 q -229 789 -192 676 l -192 799 z "},"꣬":{"ha":0,"x_min":-360,"x_max":7,"o":"m -247 789 l -247 825 q -240 835 -240 825 q -258 850 -240 850 q -285 838 -274 850 q -297 810 -297 825 q -285 783 -297 794 q -258 772 -274 772 q -219 793 -236 772 q -193 838 -201 814 l -193 914 l -360 914 l -360 951 l 7 951 l 7 914 l -156 914 l -156 869 q -107 886 -128 886 q -52 863 -75 886 q -29 808 -29 840 q -49 757 -29 778 q -101 736 -69 736 l -108 736 l -108 772 l -101 772 q -67 808 -67 772 q -79 838 -67 825 q -107 850 -92 850 q -156 819 -131 850 l -156 724 q -147 714 -156 714 q -140 718 -142 714 l -136 725 l -106 703 l -108 697 q -147 678 -119 678 q -180 692 -167 678 q -193 724 -193 706 l -193 765 q -258 736 -222 736 q -312 758 -290 736 q -335 810 -335 779 q -312 864 -335 842 q -258 886 -289 886 q -219 872 -235 886 q -203 835 -203 857 q -216 802 -203 815 q -247 789 -229 789 z "},"꣭":{"ha":0,"x_min":-286,"x_max":0,"o":"m -62 672 q -94 686 -81 672 q -108 718 -108 700 l -108 831 l -176 831 q -178 823 -176 826 q -181 815 -179 819 q -185 807 -183 810 q -235 769 -200 769 q -269 783 -256 769 q -283 817 -283 797 q -265 855 -283 842 q -222 868 -246 868 l -108 868 l -108 908 l -286 908 l -286 944 l 0 944 l 0 908 l -71 908 l -71 718 q -62 708 -71 708 q -56 713 -58 708 l -53 719 l -19 697 l -24 692 q -62 672 -35 672 m -215 831 l -222 831 q -246 817 -246 831 q -235 804 -246 804 q -215 831 -224 804 z "},"꣮":{"ha":0,"x_min":-294,"x_max":0,"o":"m -62 672 q -94 686 -81 672 q -108 718 -108 700 l -108 772 q -169 747 -133 747 q -224 769 -201 747 q -247 826 -247 790 l -247 908 l -294 908 l -294 944 l 0 944 l 0 908 l -71 908 l -71 718 q -62 708 -71 708 q -56 713 -58 708 l -53 718 l -19 697 l -24 692 q -62 672 -35 672 m -108 838 l -108 908 l -208 908 l -208 826 q -169 785 -208 785 q -108 838 -129 785 z "},"꣯":{"ha":0,"x_min":-212,"x_max":0,"o":"m -161 847 l -129 826 q -132 819 -132 824 q -119 808 -132 808 q -101 831 -104 808 l -101 908 l -212 908 l -212 944 l 0 944 l 0 908 l -64 908 l -64 838 q -78 791 -64 810 q -119 772 -92 772 l -124 772 q -42 707 -101 715 l -36 706 l -36 671 l -43 672 q -125 710 -89 676 q -169 814 -169 750 q -161 847 -169 836 z "},"꣰":{"ha":0,"x_min":-419,"x_max":0,"o":"m -74 908 l -74 718 q -65 708 -74 708 q -58 713 -61 708 l -54 719 l -24 697 l -26 692 q -65 672 -37 672 q -97 686 -83 672 q -111 718 -111 700 l -111 760 q -175 731 -140 731 q -230 752 -207 731 q -253 804 -253 774 q -230 858 -253 835 q -175 881 -207 881 q -135 866 -151 881 q -119 829 -119 851 q -133 797 -119 811 q -165 783 -147 783 l -165 819 q -158 829 -158 819 q -175 844 -158 844 q -202 832 -190 844 q -214 804 -214 819 q -202 778 -214 789 q -175 767 -190 767 q -136 787 -153 767 q -111 832 -119 807 l -111 908 l -242 908 l -278 908 l -310 908 l -310 718 q -301 708 -310 708 q -294 713 -297 708 l -290 719 l -258 697 l -262 692 q -301 672 -274 672 q -333 686 -319 672 q -347 718 -347 700 l -347 908 l -419 908 l -419 944 l -357 944 q -361 969 -361 958 q -333 1022 -361 1004 q -264 1040 -304 1040 q -169 1011 -217 1040 q -94 944 -135 989 l 0 944 l 0 908 l -74 908 m -324 969 q -314 944 -324 957 l -278 944 l -242 944 l -147 944 q -192 981 -169 965 q -264 1003 -228 1003 q -324 969 -324 1003 z "},"꣱":{"ha":0,"x_min":-193,"x_max":-21,"o":"m -156 740 q -142 715 -156 725 q -107 706 -129 706 q -73 719 -87 706 q -58 753 -58 733 q -72 789 -58 776 q -112 812 -86 801 q -149 832 -137 822 q -181 888 -181 854 q -158 931 -181 917 q -104 946 -136 946 l -33 946 l -33 908 l -103 908 q -143 888 -143 908 q -118 853 -143 872 q -89 837 -111 849 q -55 817 -67 825 q -32 792 -43 810 q -21 753 -21 775 q -46 694 -21 718 q -107 671 -71 671 q -168 690 -143 671 q -193 739 -193 708 q -180 772 -193 758 q -147 786 -167 786 q -122 781 -136 786 l -136 746 q -147 749 -142 749 q -156 740 -156 749 z "},"ꣲ":{"ha":625,"x_min":133,"x_max":492,"o":"m 431 643 l 492 643 q 438 533 492 576 q 314 489 383 489 q 188 533 243 489 q 133 643 133 576 l 194 643 q 230 572 194 600 q 314 544 265 544 q 397 572 363 544 q 431 643 431 600 m 314 578 l 253 639 l 314 699 l 374 639 l 314 578 z "},"ꣳ":{"ha":625,"x_min":133,"x_max":542,"o":"m 251 236 l 203 268 l 294 382 l 318 372 q 417 309 374 346 q 483 240 461 272 q 520 176 506 208 q 538 129 535 144 q 542 110 542 114 l 481 103 q 478 117 481 106 q 465 153 475 129 q 438 203 454 178 q 388 259 421 229 q 314 311 356 289 l 251 236 m 431 643 l 492 643 q 438 533 492 576 q 314 489 383 489 q 188 533 243 489 q 133 643 133 576 l 194 643 q 230 572 194 600 q 314 544 265 544 q 397 572 363 544 q 431 643 431 600 m 314 578 l 253 639 l 314 699 l 374 639 l 314 578 z "},"ꣴ":{"ha":625,"x_min":133,"x_max":542,"o":"m 251 -69 l 203 -36 l 294 78 l 318 68 q 417 5 374 42 q 483 -64 461 -32 q 520 -128 506 -96 q 538 -175 535 -160 q 542 -194 542 -190 l 481 -201 q 478 -187 481 -199 q 465 -151 475 -175 q 438 -101 454 -126 q 388 -45 421 -75 q 314 7 356 -15 l 251 -69 m 431 339 l 492 339 q 438 228 492 272 q 314 185 383 185 q 188 228 243 185 q 133 339 133 272 l 194 339 q 230 268 194 296 q 314 240 265 240 q 397 268 363 240 q 431 339 431 296 m 314 274 l 253 335 l 314 394 l 374 335 l 314 274 m 431 643 l 492 643 q 438 533 492 576 q 314 489 383 489 q 188 533 243 489 q 133 643 133 576 l 194 643 q 230 572 194 600 q 314 544 265 544 q 397 572 363 544 q 431 643 431 600 m 314 578 l 253 639 l 314 699 l 374 639 l 314 578 z "},"ꣵ":{"ha":625,"x_min":133,"x_max":492,"o":"m 275 58 q 193 83 228 58 q 158 154 158 107 q 181 208 158 186 q 238 231 203 231 q 315 196 281 231 q 360 142 338 174 q 422 247 422 185 q 400 313 422 283 q 303 353 367 353 q 192 310 239 353 l 185 304 l 140 346 l 149 353 q 303 411 210 411 q 447 347 393 411 q 485 247 485 306 q 393 94 485 154 q 474 -42 431 40 l 481 -51 l 425 -75 l 419 -67 q 338 68 388 -1 q 275 58 310 58 m 219 154 q 275 115 219 115 q 303 118 286 115 q 271 156 288 139 q 238 174 253 174 q 219 154 219 174 m 431 643 l 492 643 q 438 533 492 576 q 314 489 383 489 q 188 533 243 489 q 133 643 133 576 l 194 643 q 230 572 194 600 q 314 544 265 544 q 397 572 363 544 q 431 643 431 600 m 314 578 l 253 639 l 314 699 l 374 639 l 314 578 z "},"ꣶ":{"ha":625,"x_min":133,"x_max":492,"o":"m 314 578 l 253 639 l 314 699 l 374 639 l 314 578 m 431 643 l 492 643 q 438 533 492 576 q 314 489 383 489 q 188 533 243 489 q 133 643 133 576 l 194 643 q 230 572 194 600 q 314 544 265 544 q 397 572 363 544 q 431 643 431 600 m 282 -19 q 261 4 265 0 q 232 22 244 22 q 219 8 219 22 q 263 -22 219 -22 q 282 -19 268 -22 m 460 93 q 375 -46 460 8 l 411 -97 l 417 -107 l 364 -135 l 358 -128 q 321 -72 335 -92 q 264 -81 296 -81 q 192 -58 224 -81 q 160 6 160 -35 q 181 56 160 35 q 235 78 203 78 q 308 42 276 78 q 342 3 329 21 q 397 93 397 40 q 369 156 397 132 q 297 179 342 179 l 254 179 l 254 236 l 297 236 q 357 251 335 236 q 379 293 379 267 q 356 335 379 318 q 303 353 333 353 q 233 329 264 353 l 226 324 l 186 367 l 193 374 q 303 411 239 411 q 397 379 354 411 q 440 293 440 347 q 396 208 440 240 q 460 93 460 165 z "},"ꣷ":{"ha":625,"x_min":133,"x_max":492,"o":"m 221 53 q 246 10 221 28 q 310 -8 271 -8 q 370 15 344 -8 q 396 74 396 39 q 357 146 396 117 q 301 176 344 156 q 236 214 257 196 q 181 311 181 257 q 219 387 181 363 q 314 411 257 411 l 436 411 l 436 349 l 318 349 q 242 311 242 349 q 288 251 242 285 q 337 226 299 243 q 396 192 375 208 q 457 74 457 144 q 414 -26 457 15 q 310 -67 371 -67 q 203 -34 247 -67 q 160 51 160 -1 q 183 108 160 85 q 239 132 206 132 q 271 125 254 132 l 281 121 l 254 64 l 246 69 l 240 69 q 221 53 221 69 m 314 578 l 253 639 l 314 699 l 374 639 l 314 578 m 431 643 l 492 643 q 438 533 492 576 q 314 489 383 489 q 188 533 243 489 q 133 643 133 576 l 194 643 q 230 572 194 600 q 314 544 265 544 q 397 572 363 544 q 431 643 431 600 z "},"꣸":{"ha":776,"x_min":85,"x_max":707,"o":"m 553 203 q 593 247 579 231 q 622 295 607 264 q 636 356 636 326 q 613 422 636 396 q 558 447 590 447 q 501 420 526 447 q 475 353 475 393 q 553 203 475 283 m 331 321 l 331 265 l 264 265 q 200 237 225 265 q 175 169 175 208 q 212 83 175 117 q 303 49 249 49 q 425 92 361 49 q 511 161 464 117 q 442 251 469 201 q 414 353 414 304 q 455 458 414 413 q 558 503 496 503 q 658 458 619 503 q 697 356 697 414 q 678 274 697 314 q 644 215 660 233 q 597 164 628 196 q 618 149 611 153 q 707 19 707 89 q 680 -43 707 -17 q 614 -69 653 -69 l 599 -69 l 610 -14 l 614 -14 q 646 19 646 -14 q 641 44 646 32 q 624 68 636 56 q 604 87 611 81 q 578 107 597 93 q 556 124 558 121 q 461 47 508 79 q 303 -7 378 -7 q 169 44 224 -7 q 114 169 114 94 q 163 282 114 233 q 92 356 111 301 q 85 394 85 376 q 122 485 85 447 q 214 522 158 522 q 314 475 275 522 l 264 442 q 214 467 243 467 q 166 447 186 467 q 146 394 146 426 q 149 372 146 379 q 251 321 167 321 l 331 321 z "},"꣹":{"ha":776,"x_min":114,"x_max":697,"o":"m 697 356 q 570 115 697 236 q 306 -7 443 -7 q 169 44 224 -7 q 114 169 114 96 q 150 270 114 219 q 251 321 186 321 l 308 321 l 308 265 l 264 265 q 200 237 225 265 q 175 169 175 208 q 212 83 175 117 q 307 49 249 49 q 529 158 422 49 q 636 356 636 267 q 613 422 636 396 q 558 447 590 447 q 501 420 526 447 q 475 353 475 393 q 504 261 475 307 l 461 222 q 414 353 414 294 q 455 458 414 413 q 558 503 496 503 q 658 458 619 503 q 697 356 697 414 z "},"꣺":{"ha":360,"x_min":39,"x_max":325,"o":"m 217 704 l 147 704 l 39 890 l 92 921 l 182 765 l 271 921 l 325 890 l 217 704 z "},"ꣻ":{"ha":696,"x_min":44,"x_max":653,"o":"m 653 882 l 44 882 l 44 943 l 653 943 l 653 882 z "},"﻿":{"ha":0,"x_min":0,"x_max":260,"o":"m 260 944 l 260 883 l 61 883 l 61 -444 l 0 -444 l 0 883 l 0 944 l 260 944 z "},"Ă":{"ha":861,"x_min":17,"x_max":794,"o":"m 453 925 q 520 947 500 925 q 543 1017 540 969 l 611 1017 q 567 904 608 944 q 453 864 526 864 q 340 906 381 864 q 296 1017 299 947 l 364 1017 q 453 925 368 925 m 81 92 q 117 61 90 61 q 150 83 142 61 l 443 763 l 464 763 l 794 0 l 724 0 l 618 253 l 290 253 l 208 56 q 117 -4 183 -4 q 51 21 81 -4 q 17 79 21 46 l 81 92 m 442 614 l 317 315 l 592 315 l 465 614 q 453 650 464 622 l 442 614 z "},"Ắ":{"ha":861,"x_min":17,"x_max":794,"o":"m 639 1181 l 447 1058 l 424 1097 l 599 1236 l 639 1181 m 453 925 q 520 947 500 925 q 543 1017 540 969 l 611 1017 q 567 904 608 944 q 453 864 526 864 q 340 906 381 864 q 296 1017 299 947 l 364 1017 q 453 925 368 925 m 81 92 q 117 61 90 61 q 150 83 142 61 l 443 763 l 464 763 l 794 0 l 724 0 l 618 253 l 290 253 l 208 56 q 117 -4 183 -4 q 51 21 81 -4 q 17 79 21 46 l 81 92 m 442 614 l 317 315 l 592 315 l 465 614 q 453 650 464 622 l 442 614 z "},"Ặ":{"ha":861,"x_min":17,"x_max":794,"o":"m 453 949 q 519 972 499 949 q 542 1042 539 994 l 610 1042 q 567 929 607 969 q 453 889 526 889 q 336 932 374 889 q 294 1042 297 975 l 363 1042 q 453 949 367 949 m 81 92 q 117 61 90 61 q 150 83 142 61 l 443 763 l 464 763 l 794 0 l 724 0 l 618 253 l 290 253 l 208 56 q 117 -4 183 -4 q 51 21 81 -4 q 17 79 21 46 l 81 92 m 442 614 l 317 315 l 592 315 l 465 614 q 453 650 464 622 l 442 614 m 407 -172 q 420 -138 407 -151 q 453 -125 433 -125 q 485 -138 472 -125 q 499 -172 499 -151 q 485 -205 499 -192 q 453 -218 472 -218 q 420 -205 433 -218 q 407 -172 407 -192 z "},"Ằ":{"ha":861,"x_min":17,"x_max":794,"o":"m 492 1064 l 467 1025 l 275 1147 l 315 1203 l 492 1064 m 453 925 q 520 947 500 925 q 543 1017 540 969 l 611 1017 q 567 904 608 944 q 453 864 526 864 q 340 906 381 864 q 296 1017 299 947 l 364 1017 q 453 925 368 925 m 81 92 q 117 61 90 61 q 150 83 142 61 l 443 763 l 464 763 l 794 0 l 724 0 l 618 253 l 290 253 l 208 56 q 117 -4 183 -4 q 51 21 81 -4 q 17 79 21 46 l 81 92 m 442 614 l 317 315 l 592 315 l 465 614 q 453 650 464 622 l 442 614 z "},"Ẵ":{"ha":861,"x_min":17,"x_max":794,"o":"m 365 1081 q 294 1043 332 1075 l 258 1089 q 361 1139 313 1131 l 376 1139 q 423 1133 401 1139 q 468 1117 444 1128 q 507 1103 492 1107 q 532 1100 515 1100 q 614 1136 572 1100 l 651 1092 q 547 1042 597 1046 l 533 1042 q 488 1047 510 1042 q 440 1063 467 1053 q 401 1076 413 1074 q 375 1081 386 1081 l 365 1081 m 453 925 q 520 947 500 925 q 543 1017 540 969 l 611 1017 q 568 905 608 946 q 453 864 528 864 q 339 905 379 864 q 296 1017 299 946 l 364 1017 q 453 925 368 925 m 81 92 q 117 61 90 61 q 150 83 142 61 l 443 763 l 464 763 l 794 0 l 724 0 l 618 253 l 290 253 l 208 56 q 117 -4 183 -4 q 51 21 81 -4 q 17 79 21 46 l 81 92 m 442 614 l 317 315 l 592 315 l 465 614 q 453 650 464 622 l 442 614 z "},"Ǎ":{"ha":861,"x_min":17,"x_max":794,"o":"m 481 868 l 426 868 l 290 1025 l 364 1025 l 454 926 l 543 1025 l 619 1025 l 481 868 m 81 92 q 117 61 90 61 q 150 83 142 61 l 443 763 l 464 763 l 794 0 l 724 0 l 618 253 l 290 253 l 208 56 q 117 -4 183 -4 q 51 21 81 -4 q 17 79 21 46 l 81 92 m 442 614 l 317 315 l 592 315 l 465 614 q 453 650 464 622 l 442 614 z "},"Ấ":{"ha":861,"x_min":17,"x_max":794,"o":"m 639 1203 l 447 1081 l 424 1119 l 599 1258 l 639 1203 m 619 879 l 543 879 l 454 978 l 364 879 l 290 879 l 426 1036 l 481 1036 l 619 879 m 81 92 q 117 61 90 61 q 150 83 142 61 l 443 763 l 464 763 l 794 0 l 724 0 l 618 253 l 290 253 l 208 56 q 117 -4 183 -4 q 51 21 81 -4 q 17 79 21 46 l 81 92 m 442 614 l 317 315 l 592 315 l 465 614 q 453 650 464 622 l 442 614 z "},"Ậ":{"ha":861,"x_min":17,"x_max":794,"o":"m 619 879 l 543 879 l 454 978 l 364 879 l 290 879 l 426 1036 l 481 1036 l 619 879 m 81 92 q 117 61 90 61 q 150 83 142 61 l 443 763 l 464 763 l 794 0 l 724 0 l 618 253 l 290 253 l 208 56 q 117 -4 183 -4 q 51 21 81 -4 q 17 79 21 46 l 81 92 m 442 614 l 317 315 l 592 315 l 465 614 q 453 650 464 622 l 442 614 m 407 -172 q 420 -138 407 -151 q 453 -125 433 -125 q 485 -138 472 -125 q 499 -172 499 -151 q 485 -205 499 -192 q 453 -218 472 -218 q 420 -205 433 -218 q 407 -172 407 -192 z "},"Ầ":{"ha":861,"x_min":17,"x_max":794,"o":"m 492 1097 l 467 1058 l 275 1181 l 315 1236 l 492 1097 m 619 879 l 543 879 l 454 978 l 364 879 l 290 879 l 426 1036 l 481 1036 l 619 879 m 81 92 q 117 61 90 61 q 150 83 142 61 l 443 763 l 464 763 l 794 0 l 724 0 l 618 253 l 290 253 l 208 56 q 117 -4 183 -4 q 51 21 81 -4 q 17 79 21 46 l 81 92 m 442 614 l 317 315 l 592 315 l 465 614 q 453 650 464 622 l 442 614 z "},"Ẫ":{"ha":861,"x_min":17,"x_max":794,"o":"m 365 1103 q 294 1065 332 1097 l 258 1111 q 361 1161 313 1153 l 376 1161 q 423 1156 401 1161 q 468 1140 444 1150 q 507 1125 492 1129 q 532 1122 515 1122 q 614 1158 572 1122 l 651 1114 q 547 1064 597 1068 l 533 1064 q 488 1069 510 1064 q 440 1085 467 1075 q 401 1099 413 1096 q 375 1103 386 1103 l 365 1103 m 619 879 l 543 879 l 454 978 l 364 879 l 290 879 l 426 1036 l 481 1036 l 619 879 m 81 92 q 117 61 90 61 q 150 83 142 61 l 443 763 l 464 763 l 794 0 l 724 0 l 618 253 l 290 253 l 208 56 q 117 -4 183 -4 q 51 21 81 -4 q 17 79 21 46 l 81 92 m 442 614 l 317 315 l 592 315 l 465 614 q 453 650 464 622 l 442 614 z "},"Ǟ":{"ha":861,"x_min":17,"x_max":794,"o":"m 636 1025 l 274 1025 l 274 1089 l 636 1089 l 636 1025 m 331 892 q 298 906 313 892 q 283 939 283 921 q 297 973 283 960 q 331 986 310 986 q 365 973 351 986 q 378 939 378 960 q 364 906 378 919 q 331 892 350 892 m 576 892 q 544 906 558 892 q 531 939 531 921 q 544 972 531 958 q 576 986 557 986 q 612 973 599 986 q 625 939 625 960 q 610 906 625 921 q 576 892 596 892 m 81 92 q 117 61 90 61 q 150 83 142 61 l 443 763 l 464 763 l 794 0 l 724 0 l 618 253 l 290 253 l 208 56 q 117 -4 183 -4 q 51 21 81 -4 q 17 79 21 46 l 81 92 m 592 315 l 465 614 q 453 650 464 622 l 442 614 l 317 315 l 592 315 z "},"Ȧ":{"ha":861,"x_min":17,"x_max":794,"o":"m 404 946 q 417 980 404 967 q 451 993 431 993 q 485 980 472 993 q 499 946 499 967 q 484 913 499 928 q 451 899 469 899 q 419 913 433 899 q 404 946 404 928 m 81 92 q 117 61 90 61 q 150 83 142 61 l 443 763 l 464 763 l 794 0 l 724 0 l 618 253 l 290 253 l 208 56 q 117 -4 183 -4 q 51 21 81 -4 q 17 79 21 46 l 81 92 m 442 614 l 317 315 l 592 315 l 465 614 q 453 650 464 622 l 442 614 z "},"Ạ":{"ha":861,"x_min":17,"x_max":794,"o":"m 81 92 q 117 61 90 61 q 150 83 142 61 l 443 763 l 464 763 l 794 0 l 724 0 l 618 253 l 290 253 l 208 56 q 117 -4 183 -4 q 51 21 81 -4 q 17 79 21 46 l 81 92 m 442 614 l 317 315 l 592 315 l 465 614 q 453 650 464 622 l 442 614 m 407 -172 q 420 -138 407 -151 q 453 -125 433 -125 q 485 -138 472 -125 q 499 -172 499 -151 q 485 -205 499 -192 q 453 -218 472 -218 q 420 -205 433 -218 q 407 -172 407 -192 z "},"Ǡ":{"ha":861,"x_min":17,"x_max":794,"o":"m 404 1068 q 417 1102 404 1089 q 451 1115 431 1115 q 485 1102 472 1115 q 499 1068 499 1089 q 484 1035 499 1050 q 451 1021 469 1021 q 419 1035 433 1021 q 404 1068 404 1050 m 636 903 l 274 903 l 274 967 l 636 967 l 636 903 m 81 92 q 117 61 90 61 q 150 83 142 61 l 443 763 l 464 763 l 794 0 l 724 0 l 618 253 l 290 253 l 208 56 q 117 -4 183 -4 q 51 21 81 -4 q 17 79 21 46 l 81 92 m 442 614 l 317 315 l 592 315 l 465 614 q 453 650 464 622 l 442 614 z "},"Ā":{"ha":861,"x_min":17,"x_max":794,"o":"m 636 903 l 274 903 l 274 967 l 636 967 l 636 903 m 81 92 q 117 61 90 61 q 150 83 142 61 l 443 763 l 464 763 l 794 0 l 724 0 l 618 253 l 290 253 l 208 56 q 117 -4 183 -4 q 51 21 81 -4 q 17 79 21 46 l 81 92 m 442 614 l 317 315 l 592 315 l 465 614 q 453 650 464 622 l 442 614 z "},"Ą":{"ha":861,"x_min":17,"x_max":838,"o":"m 706 -125 q 718 -158 706 -146 q 751 -169 731 -169 l 758 -169 q 761 -169 758 -169 l 764 -168 q 792 -157 783 -162 l 810 -146 l 838 -196 q 738 -228 797 -228 q 669 -200 697 -228 q 642 -131 642 -172 q 672 -53 642 -89 q 701 -21 683 -39 l 724 0 l 618 253 l 290 253 l 208 56 q 117 -4 183 -4 q 51 21 81 -4 q 17 79 21 46 l 81 92 q 117 61 90 61 q 150 83 142 61 l 443 763 l 464 763 l 794 0 l 793 0 l 764 -31 l 750 -46 q 736 -62 736 -61 q 706 -125 706 -93 m 592 315 l 465 614 q 453 650 464 622 l 442 614 l 317 315 l 592 315 z "},"Ǻ":{"ha":861,"x_min":17,"x_max":794,"o":"m 639 1214 l 447 1092 l 424 1131 l 599 1269 l 639 1214 m 342 926 q 372 1012 342 981 q 457 1043 403 1043 q 538 1012 508 1043 q 567 929 567 981 q 535 847 567 879 q 453 814 504 814 q 372 845 403 814 q 342 926 342 876 m 514 931 q 497 975 514 956 q 457 994 481 994 q 413 976 428 994 q 397 929 397 958 q 454 863 397 863 q 498 882 482 863 q 514 931 514 901 m 81 92 q 117 61 90 61 q 150 83 142 61 l 443 763 l 464 763 l 794 0 l 724 0 l 618 253 l 290 253 l 208 56 q 117 -4 183 -4 q 51 21 81 -4 q 17 79 21 46 l 81 92 m 442 614 l 317 315 l 592 315 l 465 614 q 453 650 464 622 l 442 614 z "},"Ǽ":{"ha":1039,"x_min":17,"x_max":961,"o":"m 693 954 l 503 832 l 478 869 l 653 1008 l 693 954 m 939 697 l 508 697 l 508 433 l 861 433 l 861 369 l 508 369 l 508 64 l 961 64 l 961 0 l 442 0 l 442 253 l 228 253 l 97 0 l 17 0 l 415 760 l 939 760 l 939 697 m 442 692 l 429 653 q 403 590 421 625 l 260 315 l 442 315 l 442 692 z "},"Ǣ":{"ha":1039,"x_min":17,"x_max":961,"o":"m 690 899 l 328 899 l 328 963 l 690 963 l 690 899 m 939 697 l 508 697 l 508 433 l 861 433 l 861 369 l 508 369 l 508 64 l 961 64 l 961 0 l 442 0 l 442 253 l 228 253 l 97 0 l 17 0 l 415 760 l 939 760 l 939 697 m 442 692 l 429 653 q 403 590 421 625 l 260 315 l 442 315 l 442 692 z "},"Ć":{"ha":822,"x_min":44,"x_max":744,"o":"m 597 989 l 406 867 l 381 904 l 557 1043 l 597 989 m 431 36 q 585 74 515 36 q 694 172 654 113 l 744 138 q 688 69 711 90 q 613 19 664 47 q 433 -25 533 -25 q 156 93 268 -25 q 44 374 44 207 q 161 665 44 539 q 440 789 279 789 q 672 694 604 789 q 694 622 694 661 q 667 549 694 578 q 597 519 640 519 q 536 540 565 519 l 574 588 q 597 579 586 579 q 624 592 613 579 q 635 622 635 606 q 568 701 635 669 q 442 728 504 728 q 250 665 332 728 q 131 510 168 601 q 104 375 104 447 q 199 136 104 240 q 431 36 293 36 z "},"Č":{"ha":822,"x_min":44,"x_max":744,"o":"m 439 897 l 385 897 l 247 1056 l 322 1056 l 413 957 l 501 1056 l 576 1056 l 439 897 m 431 36 q 585 74 515 36 q 694 172 654 113 l 744 138 q 688 69 711 90 q 613 19 664 47 q 433 -25 533 -25 q 156 93 268 -25 q 44 374 44 207 q 161 665 44 539 q 440 789 279 789 q 672 694 604 789 q 694 622 694 661 q 667 549 694 578 q 597 519 640 519 q 536 540 565 519 l 574 588 q 597 579 586 579 q 624 592 613 579 q 635 622 635 606 q 568 701 635 669 q 442 728 504 728 q 250 665 332 728 q 131 510 168 601 q 104 375 104 447 q 199 136 104 240 q 431 36 293 36 z "},"Ĉ":{"ha":822,"x_min":44,"x_max":744,"o":"m 576 908 l 501 908 l 413 1008 l 322 908 l 247 908 l 385 1067 l 439 1067 l 576 908 m 431 36 q 585 74 515 36 q 694 172 654 113 l 744 138 q 688 69 711 90 q 613 19 664 47 q 433 -25 533 -25 q 156 93 268 -25 q 44 374 44 207 q 161 665 44 539 q 440 789 279 789 q 672 694 604 789 q 694 622 694 661 q 667 549 694 578 q 597 519 640 519 q 536 540 565 519 l 574 588 q 597 579 586 579 q 624 592 613 579 q 635 622 635 606 q 568 701 635 669 q 442 728 504 728 q 250 665 332 728 q 131 510 168 601 q 104 375 104 447 q 199 136 104 240 q 431 36 293 36 z "},"Ċ":{"ha":822,"x_min":44,"x_max":744,"o":"m 376 942 q 369 949 376 942 q 363 975 363 956 q 376 1009 363 994 q 408 1024 390 1024 q 442 1009 428 1024 q 457 975 457 994 q 442 943 457 957 q 408 929 428 929 q 376 942 389 929 m 431 36 q 585 74 515 36 q 694 172 654 113 l 744 138 q 688 69 711 90 q 613 19 664 47 q 433 -25 533 -25 q 156 93 268 -25 q 44 374 44 207 q 161 665 44 539 q 440 789 279 789 q 672 694 604 789 q 694 622 694 661 q 667 549 694 578 q 597 519 640 519 q 536 540 565 519 l 574 588 q 597 579 586 579 q 624 592 613 579 q 635 622 635 606 q 568 701 635 669 q 442 728 504 728 q 250 665 332 728 q 131 510 168 601 q 104 375 104 447 q 199 136 104 240 q 431 36 293 36 z "},"Ǳ":{"ha":1538,"x_min":15,"x_max":1464,"o":"m 126 704 q 78 650 78 694 l 15 650 q 50 732 15 704 q 131 767 85 767 l 464 767 q 721 644 628 751 q 815 381 815 536 q 711 103 815 210 q 507 -4 619 11 q 371 -11 456 -11 l 340 -11 q 331 -10 338 -11 q 319 -8 324 -8 l 290 -8 q 247 -8 276 -8 q 207 -6 218 -7 l 176 -3 l 154 0 l 154 704 l 126 704 m 1292 -15 q 1132 16 1235 -15 q 1003 51 1029 47 l 964 -17 l 914 14 l 1322 697 l 975 697 l 975 757 l 1425 757 l 1033 100 l 1071 93 q 1113 83 1093 90 q 1165 68 1132 78 q 1210 56 1199 58 q 1292 43 1256 43 q 1421 101 1363 43 l 1464 60 l 1450 47 q 1292 -15 1369 -15 m 306 53 q 324 52 311 53 q 347 51 336 51 q 369 51 354 51 q 394 50 385 50 q 558 69 501 50 q 664 143 614 89 q 749 381 749 232 q 575 676 749 596 q 453 704 524 700 l 222 704 l 222 56 q 290 53 253 53 l 306 53 z "},"Ǆ":{"ha":1538,"x_min":15,"x_max":1464,"o":"m 1238 864 l 1183 864 l 1047 1022 l 1121 1022 l 1211 924 l 1300 1022 l 1375 1022 l 1238 864 m 126 704 q 78 650 78 694 l 15 650 q 50 732 15 704 q 131 767 85 767 l 464 767 q 721 644 628 751 q 815 381 815 536 q 711 103 815 210 q 507 -4 619 11 q 371 -11 456 -11 l 340 -11 q 331 -10 338 -11 q 319 -8 324 -8 l 290 -8 q 247 -8 276 -8 q 207 -6 218 -7 l 176 -3 l 154 0 l 154 704 l 126 704 m 1292 -15 q 1132 16 1235 -15 q 1003 51 1029 47 l 964 -17 l 914 14 l 1322 697 l 975 697 l 975 757 l 1425 757 l 1033 100 l 1071 93 q 1113 83 1093 90 q 1165 68 1132 78 q 1210 56 1199 58 q 1292 43 1256 43 q 1421 101 1363 43 l 1464 60 l 1450 47 q 1292 -15 1369 -15 m 306 53 q 324 52 311 53 q 347 51 336 51 q 369 51 354 51 q 394 50 385 50 q 558 69 501 50 q 664 143 614 89 q 749 381 749 232 q 575 676 749 596 q 453 704 524 700 l 222 704 l 222 56 q 290 53 253 53 l 306 53 z "},"Ď":{"ha":894,"x_min":15,"x_max":815,"o":"m 475 865 l 419 865 l 283 1024 l 358 1024 l 447 925 l 536 1024 l 613 1024 l 475 865 m 126 704 q 78 650 78 694 l 15 650 q 50 732 15 704 q 131 767 85 767 l 464 767 q 721 644 628 751 q 815 381 815 536 q 711 103 815 210 q 507 -4 619 11 q 371 -11 456 -11 l 340 -11 q 331 -10 338 -11 q 319 -8 324 -8 l 290 -8 q 247 -8 276 -8 q 207 -6 218 -7 l 176 -3 l 154 0 l 154 704 l 126 704 m 306 53 q 324 52 311 53 q 347 51 336 51 q 369 51 354 51 q 394 50 385 50 q 558 69 501 50 q 664 143 614 89 q 749 381 749 232 q 575 676 749 596 q 453 704 524 700 l 222 704 l 222 56 q 290 53 253 53 l 306 53 z "},"Đ":{"ha":894,"x_min":15,"x_max":815,"o":"m 629 901 l 267 901 l 267 964 l 629 964 l 629 901 m 126 704 q 78 650 78 694 l 15 650 q 50 732 15 704 q 131 767 85 767 l 464 767 q 721 644 628 751 q 815 381 815 536 q 711 103 815 210 q 507 -4 619 11 q 371 -11 456 -11 l 340 -11 q 331 -10 338 -11 q 319 -8 324 -8 l 290 -8 q 247 -8 276 -8 q 207 -6 218 -7 l 176 -3 l 154 0 l 154 704 l 126 704 m 306 53 q 324 52 311 53 q 347 51 336 51 q 369 51 354 51 q 394 50 385 50 q 558 69 501 50 q 664 143 614 89 q 749 381 749 232 q 575 676 749 596 q 453 704 524 700 l 222 704 l 222 56 q 290 53 253 53 l 306 53 z "},"ǲ":{"ha":1483,"x_min":15,"x_max":1408,"o":"m 126 704 q 78 650 78 694 l 15 650 q 50 732 15 704 q 131 767 85 767 l 464 767 q 721 644 628 751 q 815 381 815 536 q 711 103 815 210 q 507 -4 619 11 q 371 -11 456 -11 l 340 -11 q 331 -10 338 -11 q 319 -8 324 -8 l 290 -8 q 247 -8 276 -8 q 207 -6 218 -7 l 176 -3 l 154 0 l 154 704 l 126 704 m 306 53 q 324 52 311 53 q 347 51 336 51 q 369 51 354 51 q 394 50 385 50 q 558 69 501 50 q 664 143 614 89 q 749 381 749 232 q 575 676 749 596 q 453 704 524 700 l 222 704 l 222 56 q 290 53 253 53 l 306 53 m 1408 33 q 1394 23 1404 31 q 1382 14 1385 15 q 1372 7 1379 13 q 1361 1 1364 1 q 1351 -4 1358 0 q 1340 -8 1344 -8 q 1329 -10 1336 -8 q 1315 -12 1322 -12 q 1300 -13 1308 -12 q 1281 -14 1292 -14 q 1136 10 1203 -14 l 1026 46 l 981 -22 l 932 14 l 1260 496 l 975 496 l 975 553 l 1364 553 l 1364 539 l 1061 97 l 1150 65 q 1281 43 1211 43 q 1381 82 1325 43 l 1408 33 z "},"ǅ":{"ha":1483,"x_min":15,"x_max":1408,"o":"m 1217 658 l 1163 658 l 1025 815 l 1100 815 l 1190 717 l 1279 815 l 1354 815 l 1217 658 m 126 704 q 78 650 78 694 l 15 650 q 50 732 15 704 q 131 767 85 767 l 464 767 q 721 644 628 751 q 815 381 815 536 q 711 103 815 210 q 507 -4 619 11 q 371 -11 456 -11 l 340 -11 q 331 -10 338 -11 q 319 -8 324 -8 l 290 -8 q 247 -8 276 -8 q 207 -6 218 -7 l 176 -3 l 154 0 l 154 704 l 126 704 m 306 53 q 324 52 311 53 q 347 51 336 51 q 369 51 354 51 q 394 50 385 50 q 558 69 501 50 q 664 143 614 89 q 749 381 749 232 q 575 676 749 596 q 453 704 524 700 l 222 704 l 222 56 q 290 53 253 53 l 306 53 m 1408 33 q 1394 23 1404 31 q 1382 14 1385 15 q 1372 7 1379 13 q 1361 1 1364 1 q 1351 -4 1358 0 q 1340 -8 1344 -8 q 1329 -10 1336 -8 q 1315 -12 1322 -12 q 1300 -13 1308 -12 q 1281 -14 1292 -14 q 1136 10 1203 -14 l 1026 46 l 981 -22 l 932 14 l 1260 496 l 975 496 l 975 553 l 1364 553 l 1364 539 l 1061 97 l 1150 65 q 1281 43 1211 43 q 1381 82 1325 43 l 1408 33 z "},"Ĕ":{"ha":719,"x_min":15,"x_max":642,"o":"m 386 922 q 453 944 433 922 q 476 1014 474 967 l 544 1014 q 501 902 542 942 q 386 863 460 863 q 272 903 313 863 q 229 1014 232 943 l 297 1014 q 386 922 301 922 m 131 697 q 93 681 108 697 q 78 643 78 665 l 15 643 q 49 726 15 693 q 131 760 82 760 l 642 760 l 642 697 l 213 697 l 213 433 l 508 433 l 508 369 l 213 369 l 213 64 l 642 64 l 642 0 l 144 0 l 144 697 l 131 697 z "},"Ě":{"ha":719,"x_min":15,"x_max":642,"o":"m 414 865 l 360 865 l 224 1024 l 297 1024 l 388 925 l 476 1024 l 553 1024 l 414 865 m 131 697 q 93 681 108 697 q 78 643 78 665 l 15 643 q 49 726 15 693 q 131 760 82 760 l 642 760 l 642 697 l 213 697 l 213 433 l 508 433 l 508 369 l 213 369 l 213 64 l 642 64 l 642 0 l 144 0 l 144 697 l 131 697 z "},"Ȩ":{"ha":719,"x_min":15,"x_max":642,"o":"m 131 697 q 93 681 108 697 q 78 643 78 665 l 15 643 q 49 726 15 693 q 131 760 82 760 l 642 760 l 642 697 l 213 697 l 213 433 l 508 433 l 508 369 l 213 369 l 213 64 l 642 64 l 642 0 l 433 0 l 422 -54 q 480 -86 458 -58 q 501 -153 501 -114 q 469 -236 501 -203 q 389 -269 438 -269 l 389 -210 q 442 -147 442 -210 q 389 -106 442 -106 l 354 -106 l 365 0 l 144 0 l 144 697 l 131 697 z "},"Ế":{"ha":719,"x_min":15,"x_max":642,"o":"m 544 1201 l 353 1079 l 329 1117 l 504 1256 l 544 1201 m 525 876 l 449 876 l 360 975 l 269 876 l 196 876 l 332 1035 l 386 1035 l 525 876 m 131 697 q 93 681 108 697 q 78 643 78 665 l 15 643 q 49 726 15 693 q 131 760 82 760 l 642 760 l 642 697 l 213 697 l 213 433 l 508 433 l 508 369 l 213 369 l 213 64 l 642 64 l 642 0 l 144 0 l 144 697 l 131 697 z "},"Ệ":{"ha":719,"x_min":15,"x_max":642,"o":"m 553 876 l 476 876 l 388 975 l 297 876 l 224 876 l 360 1035 l 414 1035 l 553 876 m 131 697 q 93 681 108 697 q 78 643 78 665 l 15 643 q 49 726 15 693 q 131 760 82 760 l 642 760 l 642 697 l 213 697 l 213 433 l 508 433 l 508 369 l 213 369 l 213 64 l 642 64 l 642 0 l 144 0 l 144 697 l 131 697 m 366 -205 q 359 -198 366 -205 q 353 -172 353 -192 q 366 -139 353 -153 q 397 -125 379 -125 q 431 -139 417 -125 q 444 -172 444 -153 q 431 -205 444 -192 q 397 -218 417 -218 q 366 -205 379 -218 z "},"Ề":{"ha":719,"x_min":15,"x_max":642,"o":"m 397 1114 l 372 1075 l 181 1197 l 221 1253 l 397 1114 m 525 876 l 449 876 l 360 975 l 269 876 l 196 876 l 332 1035 l 386 1035 l 525 876 m 131 697 q 93 681 108 697 q 78 643 78 665 l 15 643 q 49 726 15 693 q 131 760 82 760 l 642 760 l 642 697 l 213 697 l 213 433 l 508 433 l 508 369 l 213 369 l 213 64 l 642 64 l 642 0 l 144 0 l 144 697 l 131 697 z "},"Ễ":{"ha":719,"x_min":15,"x_max":642,"o":"m 271 1100 q 200 1064 235 1094 l 164 1108 q 267 1158 218 1150 l 282 1158 q 327 1153 306 1158 q 374 1138 349 1147 q 413 1124 399 1128 q 438 1119 425 1119 q 519 1157 476 1119 l 557 1111 q 453 1063 504 1067 l 446 1063 l 439 1061 q 394 1067 417 1061 q 345 1083 371 1074 q 307 1097 319 1093 q 281 1100 297 1100 l 271 1100 m 525 876 l 449 876 l 360 975 l 269 876 l 196 876 l 332 1035 l 386 1035 l 525 876 m 131 697 q 93 681 108 697 q 78 643 78 665 l 15 643 q 49 726 15 693 q 131 760 82 760 l 642 760 l 642 697 l 213 697 l 213 433 l 508 433 l 508 369 l 213 369 l 213 64 l 642 64 l 642 0 l 144 0 l 144 697 l 131 697 z "},"Ė":{"ha":719,"x_min":15,"x_max":642,"o":"m 338 943 q 351 978 338 964 q 385 992 365 992 q 419 978 406 992 q 432 943 432 964 q 418 910 432 924 q 385 897 404 897 q 351 911 365 897 q 338 943 338 925 m 131 697 q 93 681 108 697 q 78 643 78 665 l 15 643 q 49 726 15 693 q 131 760 82 760 l 642 760 l 642 697 l 213 697 l 213 433 l 508 433 l 508 369 l 213 369 l 213 64 l 642 64 l 642 0 l 144 0 l 144 697 l 131 697 z "},"Ẹ":{"ha":719,"x_min":15,"x_max":642,"o":"m 131 697 q 93 681 108 697 q 78 643 78 665 l 15 643 q 49 726 15 693 q 131 760 82 760 l 642 760 l 642 697 l 213 697 l 213 433 l 508 433 l 508 369 l 213 369 l 213 64 l 642 64 l 642 0 l 144 0 l 144 697 l 131 697 m 366 -205 q 359 -198 366 -205 q 353 -172 353 -192 q 366 -139 353 -153 q 397 -125 379 -125 q 431 -139 417 -125 q 444 -172 444 -153 q 431 -205 444 -192 q 397 -218 417 -218 q 366 -205 379 -218 z "},"Ē":{"ha":719,"x_min":15,"x_max":642,"o":"m 569 901 l 207 901 l 207 964 l 569 964 l 569 901 m 131 697 q 93 681 108 697 q 78 643 78 665 l 15 643 q 49 726 15 693 q 131 760 82 760 l 642 760 l 642 697 l 213 697 l 213 433 l 508 433 l 508 369 l 213 369 l 213 64 l 642 64 l 642 0 l 144 0 l 144 697 l 131 697 z "},"Ę":{"ha":719,"x_min":15,"x_max":692,"o":"m 560 -114 q 573 -146 560 -133 q 606 -158 586 -158 l 611 -158 q 615 -158 613 -158 l 618 -157 q 646 -146 638 -151 l 664 -135 l 692 -185 q 592 -217 651 -217 q 524 -190 551 -217 q 497 -119 497 -162 q 526 -42 497 -76 q 556 -10 538 -28 l 567 0 l 144 0 l 144 697 l 131 697 q 93 681 108 697 q 78 643 78 665 l 15 643 q 49 726 15 693 q 131 760 82 760 l 642 760 l 642 697 l 213 697 l 213 433 l 508 433 l 508 369 l 213 369 l 213 64 l 642 64 l 642 13 l 647 11 l 642 6 l 642 0 l 636 0 l 619 -19 q 569 -82 588 -51 q 560 -114 560 -99 z "},"Ẽ":{"ha":719,"x_min":15,"x_max":642,"o":"m 299 922 q 228 886 263 917 l 192 931 q 294 981 246 972 l 310 981 q 355 975 333 981 q 401 960 376 969 q 440 946 426 950 q 465 942 453 942 q 547 979 504 942 l 585 933 q 481 885 532 889 l 474 885 l 467 883 q 422 890 444 883 q 373 906 399 896 q 335 919 347 915 q 308 922 325 922 l 299 922 m 131 697 q 93 681 108 697 q 78 643 78 665 l 15 643 q 49 726 15 693 q 131 760 82 760 l 642 760 l 642 697 l 213 697 l 213 433 l 508 433 l 508 369 l 213 369 l 213 64 l 642 64 l 642 0 l 144 0 l 144 697 l 131 697 z "},"Ǵ":{"ha":833,"x_min":44,"x_max":743,"o":"m 613 974 l 421 851 l 397 889 l 572 1028 l 613 974 m 640 -236 q 681 -197 675 -236 l 681 92 q 422 -35 589 -35 q 276 -1 347 -35 q 158 81 204 32 q 44 364 44 194 q 161 657 44 528 q 439 781 275 781 q 574 756 513 781 q 665 689 635 732 q 689 618 689 657 q 661 544 689 575 q 592 514 633 514 q 531 535 558 514 l 569 582 q 592 575 579 575 q 629 617 629 575 q 568 692 629 661 q 442 719 519 719 q 203 614 299 719 q 104 364 104 508 q 201 124 104 226 q 425 25 300 25 q 599 92 524 25 q 681 249 669 154 l 681 336 l 743 336 l 743 -197 q 714 -272 743 -242 q 640 -301 685 -301 q 556 -256 586 -301 l 608 -219 q 640 -236 621 -236 z "},"Ğ":{"ha":833,"x_min":44,"x_max":743,"o":"m 426 939 q 494 961 474 939 q 517 1031 514 983 l 585 1031 q 541 919 582 958 q 426 879 500 879 q 313 919 353 879 q 269 1031 272 960 l 336 1031 q 426 939 340 939 m 640 -236 q 681 -197 675 -236 l 681 92 q 422 -35 589 -35 q 276 -1 347 -35 q 158 81 204 32 q 44 364 44 194 q 161 657 44 528 q 439 781 275 781 q 574 756 513 781 q 665 689 635 732 q 689 618 689 657 q 661 544 689 575 q 592 514 633 514 q 531 535 558 514 l 569 582 q 592 575 579 575 q 629 617 629 575 q 568 692 629 661 q 442 719 519 719 q 203 614 299 719 q 104 364 104 508 q 201 124 104 226 q 425 25 300 25 q 599 92 524 25 q 681 249 669 154 l 681 336 l 743 336 l 743 -197 q 714 -272 743 -242 q 640 -301 685 -301 q 556 -256 586 -301 l 608 -219 q 640 -236 621 -236 z "},"Ǧ":{"ha":833,"x_min":44,"x_max":743,"o":"m 454 882 l 400 882 l 264 1040 l 338 1040 l 428 942 l 517 1040 l 592 1040 l 454 882 m 640 -236 q 681 -197 675 -236 l 681 92 q 422 -35 589 -35 q 276 -1 347 -35 q 158 81 204 32 q 44 364 44 194 q 161 657 44 528 q 439 781 275 781 q 574 756 513 781 q 665 689 635 732 q 689 618 689 657 q 661 544 689 575 q 592 514 633 514 q 531 535 558 514 l 569 582 q 592 575 579 575 q 629 617 629 575 q 568 692 629 661 q 442 719 519 719 q 203 614 299 719 q 104 364 104 508 q 201 124 104 226 q 425 25 300 25 q 599 92 524 25 q 681 249 669 154 l 681 336 l 743 336 l 743 -197 q 714 -272 743 -242 q 640 -301 685 -301 q 556 -256 586 -301 l 608 -219 q 640 -236 621 -236 z "},"Ĝ":{"ha":833,"x_min":44,"x_max":743,"o":"m 592 893 l 517 893 l 428 992 l 338 893 l 264 893 l 400 1051 l 454 1051 l 592 893 m 640 -236 q 681 -197 675 -236 l 681 92 q 422 -35 589 -35 q 276 -1 347 -35 q 158 81 204 32 q 44 364 44 194 q 161 657 44 528 q 439 781 275 781 q 574 756 513 781 q 665 689 635 732 q 689 618 689 657 q 661 544 689 575 q 592 514 633 514 q 531 535 558 514 l 569 582 q 592 575 579 575 q 629 617 629 575 q 568 692 629 661 q 442 719 519 719 q 203 614 299 719 q 104 364 104 508 q 201 124 104 226 q 425 25 300 25 q 599 92 524 25 q 681 249 669 154 l 681 336 l 743 336 l 743 -197 q 714 -272 743 -242 q 640 -301 685 -301 q 556 -256 586 -301 l 608 -219 q 640 -236 621 -236 z "},"Ģ":{"ha":833,"x_min":44,"x_max":743,"o":"m 640 -236 q 681 -197 675 -236 l 681 92 q 422 -35 589 -35 q 276 -1 347 -35 q 158 81 204 32 q 44 364 44 194 q 161 657 44 528 q 439 781 275 781 q 574 756 513 781 q 665 689 635 732 q 689 618 689 657 q 661 544 689 575 q 592 514 633 514 q 531 535 558 514 l 569 582 q 592 575 579 575 q 629 617 629 575 q 568 692 629 661 q 442 719 519 719 q 203 614 299 719 q 104 364 104 508 q 201 124 104 226 q 425 25 300 25 q 599 92 524 25 q 681 249 669 154 l 681 336 l 743 336 l 743 -197 q 714 -272 743 -242 q 640 -301 685 -301 q 556 -256 586 -301 l 608 -219 q 640 -236 621 -236 m 400 -347 l 340 -347 l 385 -118 l 456 -118 l 400 -347 z "},"Ġ":{"ha":833,"x_min":44,"x_max":743,"o":"m 392 927 q 385 934 392 927 q 378 960 378 940 q 392 994 378 979 q 425 1008 406 1008 q 458 994 444 1008 q 472 960 472 979 q 459 927 472 940 q 425 914 446 914 q 392 927 406 914 m 640 -236 q 681 -197 675 -236 l 681 92 q 422 -35 589 -35 q 276 -1 347 -35 q 158 81 204 32 q 44 364 44 194 q 161 657 44 528 q 439 781 275 781 q 574 756 513 781 q 665 689 635 732 q 689 618 689 657 q 661 544 689 575 q 592 514 633 514 q 531 535 558 514 l 569 582 q 592 575 579 575 q 629 617 629 575 q 568 692 629 661 q 442 719 519 719 q 203 614 299 719 q 104 364 104 508 q 201 124 104 226 q 425 25 300 25 q 599 92 524 25 q 681 249 669 154 l 681 336 l 743 336 l 743 -197 q 714 -272 743 -242 q 640 -301 685 -301 q 556 -256 586 -301 l 608 -219 q 640 -236 621 -236 z "},"Ħ":{"ha":778,"x_min":15,"x_max":700,"o":"m 136 663 q 126 687 136 676 q 103 697 117 697 q 74 681 86 697 l 15 719 q 101 765 47 765 q 197 701 171 765 q 206 663 206 683 l 206 614 l 615 614 l 615 760 l 683 760 l 683 614 l 700 614 l 700 557 l 683 557 l 683 0 l 615 0 l 615 364 l 206 364 l 206 0 l 136 0 l 136 557 l 114 557 l 114 614 l 136 614 l 136 663 m 615 557 l 206 557 l 206 426 l 615 426 l 615 557 z "},"Ȟ":{"ha":778,"x_min":15,"x_max":683,"o":"m 447 865 l 392 865 l 256 1024 l 331 1024 l 419 925 l 508 1024 l 585 1024 l 447 865 m 136 663 q 126 687 136 676 q 103 697 117 697 q 74 681 86 697 l 15 719 q 101 765 47 765 q 197 701 171 765 q 206 663 206 683 l 206 426 l 615 426 l 615 760 l 683 760 l 683 0 l 615 0 l 615 364 l 206 364 l 206 0 l 136 0 l 136 663 z "},"Ĥ":{"ha":778,"x_min":15,"x_max":683,"o":"m 585 876 l 508 876 l 419 975 l 331 876 l 256 876 l 392 1035 l 447 1035 l 585 876 m 136 663 q 126 687 136 676 q 103 697 117 697 q 74 681 86 697 l 15 719 q 101 765 47 765 q 197 701 171 765 q 206 663 206 683 l 206 426 l 615 426 l 615 760 l 683 760 l 683 0 l 615 0 l 615 364 l 206 364 l 206 0 l 136 0 l 136 663 z "},"Ĳ":{"ha":746,"x_min":60,"x_max":658,"o":"m 379 710 q 292 686 346 710 l 289 686 l 261 742 l 275 747 q 382 774 315 774 q 419 767 396 774 l 476 747 q 538 735 515 735 q 596 764 567 735 l 658 764 l 658 213 q 657 178 658 178 q 656 181 656 179 l 656 174 q 653 158 656 169 l 649 142 q 600 51 626 78 q 458 -4 547 -4 q 314 49 365 -4 q 258 199 263 103 l 296 197 q 322 193 314 197 l 324 176 q 325 172 325 175 l 325 164 q 328 144 325 154 q 335 127 332 133 q 347 110 339 121 q 357 94 354 99 q 458 58 396 58 q 575 126 547 58 q 593 194 588 158 l 594 215 l 594 686 q 535 671 567 671 q 467 682 500 671 q 453 689 464 683 q 436 694 443 694 l 406 706 q 379 710 388 710 m 128 0 l 60 0 l 60 760 l 128 760 l 128 0 z "},"Ĭ":{"ha":226,"x_min":-62,"x_max":253,"o":"m 96 922 q 163 945 142 922 q 186 1014 183 968 l 253 1014 q 210 902 250 942 q 96 863 171 863 q -19 903 22 863 q -62 1014 -60 944 l 6 1014 q 96 922 10 922 m 128 0 l 60 0 l 60 760 l 128 760 l 128 0 z "},"Ǐ":{"ha":226,"x_min":-68,"x_max":261,"o":"m 124 865 l 69 865 l -68 1024 l 7 1024 l 97 925 l 186 1024 l 261 1024 l 124 865 m 128 0 l 60 0 l 60 760 l 128 760 l 128 0 z "},"İ":{"ha":226,"x_min":47,"x_max":142,"o":"m 47 943 q 60 978 47 964 q 93 992 74 992 q 127 977 113 992 q 142 943 142 963 q 127 911 142 925 q 93 897 113 897 q 60 910 74 897 q 47 943 47 924 m 128 0 l 60 0 l 60 760 l 128 760 l 128 0 z "},"Ị":{"ha":226,"x_min":47,"x_max":139,"o":"m 128 0 l 60 0 l 60 760 l 128 760 l 128 0 m 60 -206 q 54 -200 60 -206 q 47 -174 47 -193 q 60 -140 47 -154 q 92 -126 74 -126 q 125 -140 111 -126 q 139 -174 139 -154 q 125 -206 139 -193 q 92 -219 111 -219 q 60 -206 74 -219 z "},"Ī":{"ha":226,"x_min":-85,"x_max":278,"o":"m 278 901 l -85 901 l -85 964 l 278 964 l 278 901 m 128 0 l 60 0 l 60 760 l 128 760 l 128 0 z "},"Į":{"ha":226,"x_min":-24,"x_max":172,"o":"m 40 -125 q 53 -158 40 -146 q 86 -169 65 -169 l 92 -169 q 94 -169 92 -169 l 97 -168 q 125 -157 117 -162 l 144 -146 l 172 -196 q 72 -228 132 -228 q 3 -201 31 -228 q -24 -131 -24 -174 q 7 -53 -24 -89 q 36 -21 18 -39 l 60 1 l 60 760 l 128 760 l 128 0 l 99 -31 q 49 -93 67 -62 q 40 -125 40 -107 z "},"Ĩ":{"ha":226,"x_min":-100,"x_max":293,"o":"m 8 922 q -64 886 -32 915 l -100 931 q 3 981 -46 972 l 19 981 q 65 974 43 981 q 110 959 86 968 q 149 946 133 950 q 175 942 161 942 q 256 979 213 942 l 293 933 q 190 885 240 889 l 182 885 l 175 883 q 130 890 153 883 q 81 906 107 896 q 43 919 56 915 q 17 922 33 922 l 8 922 m 128 0 l 60 0 l 60 760 l 128 760 l 128 0 z "},"Ĵ":{"ha":519,"x_min":32,"x_max":431,"o":"m 414 875 l 339 875 l 250 974 l 160 875 l 86 875 l 222 1032 l 276 1032 l 414 875 m 153 710 q 65 686 119 710 l 63 686 l 35 742 l 49 747 q 156 774 89 774 q 193 767 169 774 l 250 747 q 311 735 290 735 q 369 764 340 735 l 431 764 l 431 213 l 431 178 l 429 182 l 429 174 q 426 158 429 169 l 422 142 q 374 51 400 78 q 232 -4 321 -4 q 88 49 139 -4 q 32 199 36 103 l 69 197 q 92 194 78 197 l 93 194 l 96 193 l 97 176 l 97 172 l 97 164 q 99 159 97 163 q 101 153 100 156 q 131 94 108 129 q 232 58 169 58 q 349 126 321 58 q 367 194 361 158 l 368 215 l 368 686 q 308 671 340 671 q 240 682 274 671 q 226 689 238 683 q 208 694 214 694 l 179 706 q 153 710 160 710 z "},"Ǩ":{"ha":714,"x_min":60,"x_max":665,"o":"m 385 865 l 331 865 l 193 1024 l 268 1024 l 358 925 l 447 1024 l 522 1024 l 385 865 m 564 54 q 591 65 579 54 q 603 93 603 76 l 665 93 q 604 0 665 28 q 565 -8 586 -8 q 481 35 510 -8 l 251 360 q 158 347 208 347 l 131 347 l 131 1 l 60 1 l 60 760 l 128 760 l 128 414 l 175 414 q 299 469 260 418 q 375 588 325 501 q 460 760 393 621 l 543 760 q 496 671 518 719 q 371 453 432 540 q 311 386 347 417 l 533 71 q 564 54 546 54 z "},"Ķ":{"ha":714,"x_min":60,"x_max":665,"o":"m 564 54 q 591 65 579 54 q 603 93 603 76 l 665 93 q 604 0 665 28 q 565 -8 586 -8 q 481 35 510 -8 l 251 360 q 158 347 208 347 l 131 347 l 131 1 l 60 1 l 60 760 l 128 760 l 128 414 l 175 414 q 299 469 260 418 q 375 588 325 501 q 460 760 393 621 l 543 760 q 496 671 518 719 q 371 453 432 540 q 311 386 347 417 l 533 71 q 564 54 546 54 m 335 -317 l 275 -317 l 319 -86 l 390 -86 l 335 -317 z "},"Ǉ":{"ha":1089,"x_min":60,"x_max":1000,"o":"m 721 710 q 635 686 689 710 l 631 686 l 603 742 l 618 747 q 725 774 658 774 q 763 767 739 774 l 819 747 q 881 735 858 735 q 913 744 896 735 q 938 764 931 753 l 1000 764 l 1000 213 q 999 178 1000 178 q 997 181 997 179 l 997 174 q 996 158 997 164 l 992 142 q 942 51 972 81 q 801 -4 889 -4 q 681 28 731 -4 q 614 118 632 61 q 601 199 604 147 l 638 197 q 661 194 644 197 l 663 194 l 664 193 l 665 176 q 667 172 667 175 l 667 164 q 670 144 667 154 q 677 127 674 133 q 688 110 681 121 q 699 94 696 99 q 801 58 738 58 q 918 126 890 58 q 936 194 931 158 l 936 686 l 914 675 q 876 671 900 671 q 808 682 842 671 q 795 689 806 683 q 778 694 785 694 l 747 706 q 721 710 728 710 m 128 64 l 492 64 l 492 0 l 60 0 l 60 760 l 128 760 l 128 64 z "},"Ĺ":{"ha":568,"x_min":60,"x_max":492,"o":"m 469 957 l 278 835 l 253 872 l 429 1011 l 469 957 m 128 64 l 492 64 l 492 0 l 60 0 l 60 760 l 128 760 l 128 64 z "},"Ľ":{"ha":568,"x_min":60,"x_max":492,"o":"m 128 64 l 492 64 l 492 0 l 60 0 l 60 760 l 128 760 l 128 64 z "},"Ļ":{"ha":568,"x_min":60,"x_max":492,"o":"m 128 64 l 492 64 l 492 0 l 60 0 l 60 760 l 128 760 l 128 64 m 357 531 l 297 531 l 342 760 l 413 760 l 357 531 z "},"Ŀ":{"ha":568,"x_min":60,"x_max":492,"o":"m 128 64 l 492 64 l 492 0 l 60 0 l 60 760 l 128 760 l 128 64 m 250 364 q 270 410 250 390 q 317 429 290 429 q 362 409 342 429 q 382 364 382 389 q 363 317 382 336 q 317 297 344 297 q 269 317 288 297 q 250 364 250 336 z "},"ǈ":{"ha":806,"x_min":60,"x_max":731,"o":"m 636 739 q 650 772 636 758 q 683 786 664 786 q 731 739 731 786 q 717 706 731 719 q 683 692 703 692 q 651 706 665 692 q 636 739 636 721 m 128 64 l 492 64 l 492 0 l 60 0 l 60 760 l 128 760 l 128 64 m 619 -228 q 646 -216 635 -228 q 657 -189 657 -204 l 657 557 l 718 557 l 718 -189 q 658 -281 718 -253 q 619 -289 642 -289 q 536 -244 565 -289 l 586 -211 q 619 -228 599 -228 z "},"Ł":{"ha":583,"x_min":11,"x_max":528,"o":"m 528 64 l 528 0 l 97 0 l 97 360 l 11 299 l 11 369 l 97 431 l 97 760 l 164 760 l 164 481 l 256 546 l 256 475 l 164 408 l 164 64 l 528 64 z "}}}
